<?xml version="1.0" encoding="utf-8"?>
<!-- Generator: Adobe Illustrator 27.5.0, SVG Export Plug-In . SVG Version: 6.00 Build 0)  -->
<svg version="1.1" id="Layer_1" xmlns="http://www.w3.org/2000/svg" xmlns:xlink="http://www.w3.org/1999/xlink" x="0px" y="0px"
	 viewBox="0 0 4000 4000" style="enable-background:new 0 0 4000 4000;" xml:space="preserve">
<g>
	<g>
		<rect style="fill:#94D2BD;" width="4000" height="4000"/>
	</g>
	<g>
		<g>
			<g>
				<path style="fill:#62ED2E;" d="M2738.982,1564.223c1.27,152.615,150.202,172.998,192.607,172.548
					c88.44-0.954,135.476-73.172,135.476-73.172l-46.799-104.908l-18.81-55.257l-33.358-19.106
					c-16.255-57.896-62.753-130.072-101.989-117.526C2866.109,1366.802,2737.878,1432.673,2738.982,1564.223z"/>
			</g>
			<g>
				<path style="fill:#2BC614;" d="M3090.33,1619.83c-10.455,45.031-78.924,72.192-202.469,27.91
					c-43.518-15.598-73.061-55.434-62.606-100.465s55.434-73.06,100.465-62.606C2970.75,1495.123,3100.784,1574.799,3090.33,1619.83
					z"/>
			</g>
			<g>
				<path style="fill:#62ED2E;" d="M3119.683,1473.062c-41.108,25.722-76.02,43.611-76.02,43.611l-115.79,74.019l-27.343-168.855
					c0,0,6.854-31.205,18.843-71.832c23.662-80.461,67.288-197.834,116.961-183.009c89.336,26.676-26.062,251.466-26.062,251.466
					s189.49-159.326,234.73-91.072C3271.472,1367.326,3187.207,1430.771,3119.683,1473.062z"/>
			</g>
			<g>
				<path style="fill:#2BC614;" d="M3119.683,1473.062c-41.108,25.722-76.02,43.611-76.02,43.611l-115.79,74.019l-27.343-168.855
					c0,0,6.854-31.205,18.843-71.832c19.838,24.838,57.06,70.22,68.093,94.665
					C3006.466,1486.771,3084.737,1457.497,3119.683,1473.062z"/>
			</g>
			<g>
				<path style="fill:#371A45;" d="M2927.862,1604.001c-1.846,0-3.696-0.383-5.43-1.16c-4.087-1.829-6.978-5.591-7.693-10.01
					l-27.329-168.889c-0.269-1.655-0.22-3.347,0.142-4.983c4.956-22.505,50.325-220.982,115.63-259.412
					c12.043-7.087,24.819-8.916,36.958-5.291c16.858,5.034,29.47,16.379,36.479,32.81c20.244,47.468-8.345,132.568-31.389,187.383
					c48.506-35.32,125.442-83.691,174.656-76.616c15.532,2.241,28.052,9.927,36.206,22.229c7.087,10.696,8.975,23.455,5.457,36.892
					c-18.335,70.066-188.982,159.797-211.248,171.243l-115.278,73.708C2932.852,1603.295,2930.362,1604.001,2927.862,1604.001z
					 M2914.063,1422.214l23.689,146.392l98.757-63.145c0.354-0.227,0.723-0.439,1.096-0.63
					c50.684-25.984,185.09-104.409,198.225-154.609c2.119-8.101-0.071-12.71-1.902-15.471c-4.014-6.057-9.68-9.424-17.832-10.601
					c-51.067-7.363-159.722,72.939-197.285,104.504c-4.841,4.072-11.882,4.168-16.838,0.217c-4.949-3.945-6.428-10.833-3.54-16.462
					c22.085-43.045,74.788-165.562,53.728-214.917c-3.97-9.304-10.205-14.946-19.629-17.761c-3.198-0.952-8.323-1.709-15.864,2.727
					C2970.421,1209.67,2927.51,1362.35,2914.063,1422.214z"/>
			</g>
			<g>
				<path style="fill:#62ED2E;" d="M3088.06,1650.886c-30.578,30.939-128.752,25.909-157.436-9.344
					c-24.399-30.012,12.156-52.546,22.361-58.061c1.592-0.887,2.558-1.313,2.558-1.313s-33.639-19.507-32.889-51.479
					c0.047-2.069,0.237-4.191,0.619-6.398c5.949-35.704,106.976-44.266,148.052-27.494c30.707,12.545,39.859,28.36,39.634,42.951
					c-0.229,15.543-11.097,29.699-17.873,37.051c-3.117,3.349-5.337,5.26-5.337,5.26S3112.568,1626.119,3088.06,1650.886z"/>
			</g>
			<g>
				<path style="fill:#2BC614;" d="M3093.085,1576.799c-28.196,7.058-83.814,17.28-140.101,6.682
					c1.592-0.887,2.558-1.313,2.558-1.313s-33.639-19.507-32.889-51.479c31.723,15.076,120.816,50.447,188.305,9.058
					C3110.729,1555.291,3099.861,1569.447,3093.085,1576.799z"/>
			</g>
			<g>
				<path style="fill:#2BC614;" d="M3088.06,1650.886c-30.578,30.939-128.752,25.909-157.436-9.344
					c-12.001-14.744-9.259-27.667-2.171-37.676c1.193,2.14,2.674,4.347,4.492,6.588c28.643,35.243,126.817,40.273,157.385,9.375
					c3.171-3.206,5.547-6.727,7.195-10.46C3100.202,1623.031,3099.674,1639.112,3088.06,1650.886z"/>
			</g>
			<g>
				<path style="fill:#371A45;" d="M3019.271,1683.261c-3.22,0.003-6.487-0.078-9.8-0.239
					c-39.424-1.914-72.354-14.602-88.088-33.936c-11.807-14.509-11.936-27.764-9.968-36.328
					c3.21-13.962,13.784-24.661,23.169-31.702c-12.488-11.631-27.539-31.748-23.069-58.694c1.321-7.966,6.458-19.451,23.423-28.928
					c36.338-20.291,107.854-21.184,140.911-7.693c27.676,11.301,43.315,26.89,46.482,46.333
					c3.647,22.383-11.091,42.478-20.178,52.449c6.87,15.923,17.859,51.055-5.608,74.771
					C3081.456,1674.543,3053.016,1683.261,3019.271,1683.261z M3016.905,1500.463c-25.813,0-53.511,4.411-70.33,13.806
					c-4.792,2.676-10.679,6.929-11.521,12c-4.48,27.012,26.194,45.415,26.504,45.598c3.821,2.249,6.096,6.44,5.884,10.867
					c-0.215,4.426-2.844,8.381-6.863,10.251c-5.85,2.759-23.228,13.33-25.916,25.156c-0.417,1.826-1.682,7.39,5.229,15.881
					c11.182,13.743,38.948,23.621,70.735,25.164c30.383,1.477,57.466-5.068,68.953-16.675c17.839-18.03-2.051-54.238-2.253-54.602
					c-2.764-4.951-1.675-11.184,2.622-14.883c6.055-5.271,21.292-22.266,18.821-37.168c-2.202-13.281-18.586-22.571-31.941-28.022
					l0,0C3054.993,1503.002,3036.492,1500.463,3016.905,1500.463z"/>
			</g>
			<g>
				<path style="fill:#371A45;" d="M3020.054,1601.059c-20.374,0-43.552-2.341-67.324-9.353c-5.266-1.553-8.276-7.08-6.724-12.349
					c1.553-5.268,7.08-8.286,12.349-6.724c64.434,18.994,125.781,0.149,126.392-0.049c5.242-1.65,10.818,1.262,12.471,6.499
					c1.648,5.239-1.262,10.82-6.499,12.471C3088.909,1592.123,3059.837,1601.059,3020.054,1601.059z"/>
			</g>
			<g>
				<path style="fill:#FFFFFF;" d="M2866.113,1366.818c52.085-16.659,116.895,115.827,106.952,166.224
					c-7.591,38.472-60.199,59.824-102.926-1.432C2826.85,1469.546,2784.32,1392.98,2866.113,1366.818z"/>
			</g>
			<g>
				<path style="fill:#62ED2E;" d="M3067.066,1663.621c0,0-47.046,72.19-135.457,73.147
					c-42.417,0.459-191.355-19.921-192.63-172.555c-1.099-131.539,127.134-197.394,127.134-197.394
					c52.085-16.659,116.895,115.827,106.952,166.224c-7.591,38.472-69.354,46.947-101.281-31.261c0,0,10.871,66.831-52.248,96.052
					l109.11,101.791l99.565,3.521L3067.066,1663.621z"/>
			</g>
			<g>
				<path style="fill:#FFFFFF;" d="M2851.211,1574.366l-2.174-2.021c2.234-1.041,4.296-2.079,6.293-3.218
					C2854.059,1570.868,2852.697,1572.632,2851.211,1574.366z"/>
			</g>
			<g>
				<path style="fill:#2BC614;" d="M2876.388,1490.921c-0.974-26.22,55.292,53.019,95.897,45.442
					c-8.963,30.585-53.965,39.113-86.084-7.465C2888.385,1508.48,2876.388,1490.921,2876.388,1490.921z"/>
			</g>
			<g>
				<path style="fill:#2BC614;" d="M3011.427,1702.542l16.799,0.607c-22.665,17.007-55.099,33.175-96.621,33.629
					c-42.434,0.459-191.365-19.95-192.628-172.569c-0.75-89.508,58.424-148.64,96.3-177.235
					c-33.064,32.875-67.384,83.481-66.816,151.761c1.262,152.619,150.193,173.029,192.627,172.569
					C2979.725,1711.082,2996.529,1707.748,3011.427,1702.542z"/>
			</g>
			<g>
				<path style="fill:#FFFFFF;" d="M3067.023,1663.678c-0.468,0.714-4.174,6.223-11.036,13.944l-2.581-0.079L3067.023,1663.678z"/>
			</g>
			<g>
				<path style="fill:#FFFFFF;" d="M3057.708,1677.675c-1.678,1.257-3.408,2.545-5.208,3.773c1.216-1.32,2.382-2.609,3.487-3.826
					L3057.708,1677.675z"/>
			</g>
			<g>
				<path style="fill:#371A45;" d="M2774.696,1677.579c-45.275-25.566-51.96-84.94-48.255-131.923
					c3.535-48.664,26.346-95.173,58.704-130.708c22.261-24.259,47.281-45.281,76.598-60.689
					c19.844-6.586,40.018,3.083,54.122,15.219c38.2,32.283,80.984,119.344,69.265,169.616
					c-10.403,38.511-55.891,44.805-85.06,23.072c-18.942-13.653-31.957-34.812-40.593-55.36c0,0,25.427-7.158,25.427-7.158
					c0.493,3.531,0.646,5.995,0.774,8.883c1.622,39.123-18.046,93.558-64.281,93.323c-4.012-0.068-6.128-4.936-3.723-8.043
					c9.952-15.177,22.74-26.141,31.644-41.637c8.675-13.939,11.07-32.24,9.322-48.434c-1.815-15.305,19.328-20.923,25.45-6.983
					c9.428,22.217,26.229,48.533,50.78,51.283c11.073,1.378,22.163-5.108,24.609-15.939c1.316-4.142,1.299-8.24,1.233-12.848
					c-2.296-34.614-17.26-68.544-35.652-98.058c-11.806-17.262-32.354-46.3-54.896-41.716c0,0.001,2.022-0.835,2.022-0.835
					c-24.855,13.831-48.134,32.881-67.252,54.057c-29.04,32.1-48.73,71.992-51.992,115.09c-2.196,28.146,3.381,56.714,12.715,83.073
					c5.031,13.822,10.659,26.414,15.652,40.814C2782.926,1675.553,2778.323,1679.603,2774.696,1677.579L2774.696,1677.579z"/>
			</g>
			<g>
				<path style="fill:#371A45;" d="M3077.062,1670.135c-16.589,23.4-38.373,42.553-63.375,56.513
					c-24.649,13.52-54.011,26.539-82.034,14.096c-3.273-1.281-3.512-6.179-0.408-7.775c12.836-7.189,24.723-10.035,36.477-14.042
					c11.889-2.985,23.745-6.804,34.368-13.134c21.332-11.812,40.767-28.865,54.982-48.688
					C3065.939,1643.739,3085.753,1656.583,3077.062,1670.135L3077.062,1670.135z"/>
			</g>
		</g>
		<g>
			<g>
				<path style="fill:#62ED2E;" d="M1969.918,3090.127c39.343,82.591,9.075,241.222,33.257,350.299
					c11.958,54.034,58.081,92.054,110.93,92.054h353.608c38.863,0,71.747-31.076,74.629-71.392c0.107-0.896,0.16-1.848,0.214-2.8
					c3.363-87.854-64.167-141.721-166.929-116.188c0-118.484,19.805-224.424,17.189-304.496c-0.16-6.943-0.587-13.719-1.174-20.27
					L1969.918,3090.127z"/>
			</g>
			<g>
				<path style="fill:#2BC614;" d="M1969.918,3090.127c39.343,82.591,9.075,241.222,33.257,350.299
					c11.958,54.034,58.081,92.054,110.93,92.054h353.608c38.863,0,71.747-31.076,74.629-71.392
					c-13.292,10.191-28.506,17.862-44.201,23.07c-30.215,10.023-62.351,11.815-94.061,12.263
					c-76.872,1.12-153.85-5.151-229.654-18.702c-17.616-3.136-35.927-6.999-50.02-18.534
					c-20.606-16.854-27.546-45.971-31.336-73.072c-8.274-59.522-7.58-120.387,2.189-179.685
					c1.975-12.263,4.538-24.805,10.997-35.276c15.374-24.917,47.137-30.349,74.95-35.948
					c76.284-15.342,149.205-48.995,211.609-97.598c-0.16-6.943-0.587-13.719-1.174-20.27L1969.918,3090.127z"/>
			</g>
			<g>
				<path style="fill:#371A45;" d="M2467.716,3546.147h-353.589c-59.8,0-110.923-42.256-124.321-102.759
					c-10.918-49.292-11.04-107.852-11.162-164.482c-0.151-71.65-0.293-139.326-21.064-182.9c-1.841-3.857-1.768-8.359,0.2-12.158
					c1.965-3.804,5.598-6.46,9.814-7.188l421.726-72.793c3.762-0.654,7.627,0.308,10.652,2.627c3.027,2.329,4.944,5.815,5.286,9.619
					c4.009,44.692-0.693,96.826-6.14,157.192c-4.17,46.221-8.843,98.027-9.688,151.914c48.784-8.462,91.812,0.293,122.493,25.234
					c30.286,24.619,46.016,63.091,44.292,108.325C2554.349,3507.773,2515.477,3546.147,2467.716,3546.147z M1988.992,3100.702
					c16.714,47.813,16.846,111.323,16.987,178.145c0.117,55.176,0.239,112.227,10.515,158.633
					c10.606,47.886,50.752,81.333,97.632,81.333h353.589c33.005,0,59.878-26.826,61.184-61.074
					c1.387-36.44-10.767-67.007-34.221-86.074c-27.39-22.261-68.496-28.052-115.752-16.299c-4.077,1.001-8.401,0.093-11.716-2.5
					c-3.313-2.588-5.251-6.563-5.251-10.767c0-61.162,5.278-119.648,9.932-171.25c4.719-52.305,8.867-98.286,7.122-137.466
					L1988.992,3100.702z"/>
			</g>
			<g>
				<path style="fill:#371A45;" d="M2392.96,3352.349c-31.038,7.081-62.485,10.464-92.068,23.349
					c11.703-11.471,25.442-21.266,40.184-29.42c14.772-8.099,30.386-15.04,46.394-20.709c7.119-2.521,14.933,1.206,17.454,8.325
					C2408.074,3342.518,2401.754,3351.2,2392.96,3352.349L2392.96,3352.349z"/>
			</g>
		</g>
		<g>
			<g>
				<path style="fill:#62ED2E;" d="M1896.743,3110.755c-39.343,78.74-9.075,229.973-33.257,333.963
					c-11.958,51.514-58.081,87.761-110.93,87.761h-353.608c-38.863,0-71.747-29.627-74.629-68.063
					c-0.107-0.854-0.16-1.761-0.214-2.669c-3.363-83.758,64.166-135.112,166.928-110.77c0-112.958-19.805-213.959-17.189-290.296
					c0.16-6.619,0.587-13.079,1.174-19.324L1896.743,3110.755z"/>
			</g>
			<g>
				<path style="fill:#2BC614;" d="M1896.743,3110.755c-39.343,78.74-9.075,229.973-33.257,333.963
					c-11.958,51.514-58.081,87.761-110.93,87.761h-353.608c-38.863,0-71.747-29.627-74.629-68.063
					c13.292,9.716,28.506,17.029,44.201,21.994c30.215,9.555,62.351,11.264,94.061,11.691c76.872,1.068,153.85-4.911,229.653-17.83
					c17.616-2.99,35.927-6.673,50.02-17.67c20.606-16.068,27.545-43.827,31.336-69.665c8.274-56.746,7.58-114.773-2.189-171.306
					c-1.975-11.691-4.538-23.648-10.997-33.631c-15.374-23.755-47.137-28.933-74.95-34.272
					c-76.284-14.627-149.205-46.71-211.61-93.046c0.16-6.619,0.587-13.079,1.174-19.324L1896.743,3110.755z"/>
			</g>
			<g>
				<path style="fill:#371A45;" d="M1752.532,3545.824h-353.586c-47.573,0-86.304-36.709-88.176-83.569
					c-1.677-41.978,13.169-78.081,41.802-101.66c30.803-25.371,74.731-34.38,124.978-25.957
					c-0.855-51.245-5.518-100.522-9.68-144.492c-5.449-57.598-10.156-107.344-6.138-150.039c0.347-3.687,2.207-7.061,5.137-9.316
					c2.93-2.261,6.658-3.198,10.317-2.603l421.726,69.399c4.182,0.688,7.791,3.325,9.719,7.1c1.926,3.779,1.946,8.247,0.049,12.036
					c-20.691,41.387-20.833,105.806-20.986,174.004c-0.12,54.043-0.244,109.922-11.182,157.017
					C1863.096,3505.492,1812.115,3545.824,1752.532,3545.824z M1442.044,3358.246c-29.121,0-54.06,7.764-72.505,22.954
					c-22.354,18.408-33.455,46.069-32.1,79.99c1.299,32.49,28.315,57.944,61.506,57.944h353.586c47.1,0,87.39-31.841,97.979-77.427
					c10.254-44.146,10.376-98.486,10.493-151.04c0.139-63.501,0.273-123.867,16.811-169.502l-390.5-64.263
					c-1.719,37.246,2.422,80.986,7.129,130.728c4.656,49.214,9.934,105,9.934,163.35c0,4.082-1.865,7.939-5.068,10.469
					c-3.201,2.529-7.385,3.467-11.355,2.515C1471.822,3360.141,1456.422,3358.246,1442.044,3358.246z"/>
			</g>
			<g>
				<path style="fill:#371A45;" d="M1479.005,3334.885c31.336,10.576,62.647,25.452,86.764,48.123
					c-29.5-12.52-60.85-15.789-91.884-21.927C1453.993,3358.254,1459.67,3329.589,1479.005,3334.885L1479.005,3334.885z"/>
			</g>
		</g>
		<g>
			<path style="fill:#198BFD;" d="M1203.346,2416.006c68.818-105.994,186.26-271.481,319.717-362.232l132.877,95.741
				l-138.215,512.824l-202.855-80.074L1203.346,2416.006z"/>
		</g>
		<g>
			<path style="fill:#0E6FE2;" d="M1391.851,2448.619c17.362-39.572,54.849-65.691,85.966-95.678
				c18.959-18.271,35.922-38.485,52.844-58.656c-15.13,70.942-31.779,141.56-49.931,211.79
				c-14.033-2.469-27.308-9.103-37.707-18.844c-7.545-7.068-13.581-15.692-21.585-22.235c-8.004-6.543-19.024-10.853-28.713-7.246"
				/>
		</g>
		<g>
			<path style="fill:#371A45;" d="M1517.725,2675.683c-1.66,0-3.323-0.308-4.9-0.933l-202.856-80.073
				c-2.52-0.991-4.675-2.729-6.184-4.976l-111.524-166.26c-2.976-4.438-3.017-10.225-0.11-14.702
				c112.693-173.564,221.501-296.704,323.406-366.001c4.641-3.159,10.75-3.076,15.308,0.205l132.878,95.742
				c4.504,3.247,6.528,8.94,5.083,14.302l-138.215,512.822c-0.989,3.672-3.496,6.743-6.892,8.452
				C1521.839,2675.209,1519.783,2675.683,1517.725,2675.683z M1323.636,2571.376l185.093,73.062l131.926-489.487l-117.747-84.839
				c-95.335,67.217-197.393,183.467-303.564,345.786L1323.636,2571.376z"/>
		</g>
		<g>
			<path style="fill:#66707F;" d="M2745.732,1667.719c0,0,0.143-40.291-35.023-57.114c-35.52-16.991-79.954,3.346-122.303,35.872
				c-59.331,45.569-218.605,223.762-413.619,253.744c-195.677,30.084,36.94,330.396,36.94,330.396s220.646,24.361,441.894-97.443
				c260.014-143.145,275.718-307.792,275.718-307.792L2745.732,1667.719z"/>
		</g>
		<g>
			<path style="fill:#198BFD;" d="M2160.385,2154.556c26.572,44.088,51.326,76.061,51.326,76.061s220.651,24.349,441.907-97.442
				c88.025-48.477,148.073-99.397,188.951-145.581c0.037-0.035,0.037-0.035,0.037-0.035c79.87-90.141,86.728-162.16,86.728-162.16
				l-183.601-157.68c0,0,0.13-40.292-35.041-57.115c-35.488-16.979-79.939,3.361-122.285,35.861
				c-59.332,45.593-218.594,223.775-413.619,253.756C2042.95,1920.497,2105.523,2063.473,2160.385,2154.556z"/>
		</g>
		<g>
			<path style="fill:#371A45;" d="M2258.753,2243.52c-29.961,0-47.637-1.821-48.259-1.89l-4.668-0.513l-2.876-3.716
				c-1.028-1.328-25.457-32.988-52.056-77.129c-9.226-15.342-17.578-30.278-24.829-44.409l-0.005-0.005
				c-40.488-78.999-50.823-139.016-30.713-178.389c13.33-26.096,39.492-42.312,77.756-48.198
				c42.676-6.577,87.048-21.106,131.88-43.184c97.109-47.734,178.157-120.967,231.787-169.426
				c18.582-16.792,33.259-30.054,44.888-38.982c53.835-41.321,98.857-53.799,133.813-37.07
				c33.191,15.874,39.739,48.755,41.028,61.75l184.409,158.374l-0.544,5.715c-0.295,3.088-8.137,76.67-89.465,168.46l-0.386,0.427
				c-48.384,54.551-112.83,104.189-191.553,147.544C2498.648,2231.122,2336.917,2243.52,2258.753,2243.52z M2217.576,2220.009
				c32.786,2.505,232.749,12.422,430.698-96.543c76.682-42.227,139.263-90.415,185.999-143.215l0.386-0.43
				c63.56-71.887,79.297-132.092,82.759-150.051l-182.781-156.975l0.017-5.112c-0.01-1.316-0.53-33.589-28.743-47.083
				c-26.812-12.822-64.08-1.169-110.759,34.656c-10.923,8.386-26.03,22.041-43.525,37.849
				c-54.546,49.287-136.978,123.769-236.86,172.866c-46.851,23.071-93.381,38.281-138.291,45.2
				c-31.265,4.81-51.348,16.711-61.394,36.38c-16.453,32.212-5.837,86.916,30.701,158.201c7.026,13.687,15.134,28.188,24.097,43.096
				C2190.567,2183.173,2210.343,2210.326,2217.576,2220.009z"/>
		</g>
		<g style="opacity:0.3;">
			<path style="fill:#FFFFFF;" d="M2819.14,1828.203c-6.433-21.548-56.105-33.841-109.911-90.842
				c-39.146-41.47-69.588,8.129-20.262,55.869C2741.202,1843.786,2825.573,1849.751,2819.14,1828.203z"/>
		</g>
		<g>
			<path style="fill:#0E6FE2;" d="M2160.385,2154.556c26.572,44.088,51.326,76.061,51.326,76.061s220.651,24.349,441.907-97.442
				c88.025-48.477,148.073-99.397,188.951-145.581c-4.725,3.119-349.743,230.381-610.242,151.386
				C2189.917,2126.111,2168.617,2134.682,2160.385,2154.556z"/>
		</g>
		<g>
			<path style="fill:#371A45;" d="M2262.347,2247.138c-30.745,0-49.629-1.953-52.197-2.236c-3.867-0.43-7.397-2.407-9.783-5.483
				c-6.182-7.983-150.957-196.626-111.206-296.26c12.495-31.323,40.569-50.547,83.445-57.139
				c153.716-23.63,284.089-141.426,361.985-211.807c18.628-16.831,33.34-30.125,45.063-39.128
				c54.883-42.153,101.055-54.761,137.256-37.442c33.528,16.04,41.035,48.647,42.71,63.064l179.08,153.774
				c3.542,3.042,5.386,7.617,4.941,12.266c-0.669,7.031-19.453,173.877-283.091,319.014
				C2500.057,2234.12,2341.707,2247.138,2262.347,2247.138z M2219.281,2216.84c36.431,2.612,232.917,10.825,427.412-96.255
				c219.219-120.684,260.295-257.446,267.109-289.607l-177.429-152.358c-3.171-2.725-4.998-6.692-5.007-10.872
				c-0.012-1.367-0.62-31.631-26.858-44.182c-25.635-12.261-61.75-0.72-107.349,34.307c-10.815,8.306-25.872,21.909-43.303,37.661
				c-80.286,72.539-214.656,193.948-376.885,218.889c-32.546,5.005-52.539,17.883-61.118,39.375
				C2088.746,2021.718,2177.96,2162.006,2219.281,2216.84z"/>
		</g>
		<g>
			<path style="fill:#818891;" d="M2962.463,1748.319c0,0-53.7-17.837-117.668-55.639
				c-84.878-50.159-110.36-109.888-115.896-124.674c-3.14-8.386-52.917,5.731-54.605,48.149
				c-2.484,62.401,131.456,180.67,255.046,209.228C2981.399,1797.976,2962.463,1748.319,2962.463,1748.319z"/>
		</g>
		<g>
			<path style="fill:#0096F0;" d="M2674.307,1616.166c-2.483,62.379,131.424,180.659,255.026,209.233
				c18.028-9.491,27.536-21.659,32.284-33.477c8.943-22.363,0.837-43.607,0.837-43.607s-53.679-17.847-117.673-55.623
				c-84.853-50.182-110.335-109.9-115.894-124.68c-2.729-7.298-40.792,2.474-51.717,33.099c0,0,0,0-0.001,0.036
				C2675.551,1605.683,2674.524,1610.711,2674.307,1616.166z"/>
		</g>
		<g>
			<path style="fill:#0E6FE2;" d="M2674.307,1616.166c-2.483,62.379,131.424,180.659,255.026,209.233
				c18.028-9.491,27.536-21.659,32.284-33.477c-21.657,2.23-56.374-2.531-110.132-28.325
				c-140.461-67.422-173.507-160.19-174.316-162.451C2675.551,1605.683,2674.524,1610.711,2674.307,1616.166z"/>
		</g>
		<g>
			<path style="fill:#371A45;" d="M2929.339,1839.75c-1.082,0-2.166-0.122-3.235-0.369
				c-124.819-28.84-269.099-150.151-266.167-223.796c1.592-40.02,35.781-60.327,56.956-63.728
				c18.652-3.005,24.199,7.747,25.459,11.113c5.923,15.811,31.338,71.001,109.751,117.339
				c61.748,36.492,114.37,54.202,114.893,54.377c4.089,1.36,7.356,4.487,8.892,8.513c8.12,21.292,10.239,68.523-39.856,94.897
				C2933.953,1839.191,2931.656,1839.75,2929.339,1839.75z M2718.616,1580.851c-4.563,1.308-11.335,4.346-17.456,9.839
				c-7.896,7.087-12.104,15.847-12.512,26.038c-1.926,48.406,116.719,162.693,238.535,193.354
				c26.379-16.292,25.654-39.587,23.445-50.71c-17.034-6.25-61.616-23.872-113.145-54.321
				C2761.588,1660.199,2730.367,1607.687,2718.616,1580.851z"/>
		</g>
		<g style="opacity:0.3;">
			<path style="fill:#FFFFFF;" d="M2631.225,1702.513c11.207,16.129,33.132,16.289,33.927-3.69
				c0.59-14.827-14.685-38.187-28.107-36.405C2623.751,1664.182,2622.463,1689.902,2631.225,1702.513z"/>
		</g>
		<g>
			<path style="fill:#198BFD;" d="M2217.041,2091.142c24.913,135.922,101.071,291.912,192.178,453.755
				c50.764,98.859,58.721,229.547,26.691,363.004c13.14,17.615,22.765,37.07,28.172,58.729c3.152,12.625-3.048,25.695-14.506,31.864
				c-95.644,51.492-255.447,90.24-499.451,112.262c-255.56,20.044-398.23-39.875-507.486-64.96
				c-13.891-3.189-24.532-14.675-26.237-28.826c-2.627-21.802-0.151-43.977,5.233-66.363
				c-27.864-193.038,80.074-459.093,122.781-742.022l16.21-69.224l162.623,18.511h181.502l218.87-96.089l69.398-48.045
				L2217.041,2091.142z"/>
		</g>
		<g>
			
				<ellipse transform="matrix(0.9866 -0.1633 0.1633 0.9866 -319.1778 336.3361)" style="fill:#0E6FE2;" cx="1886.017" cy="2109.417" rx="283.454" ry="150.105"/>
		</g>
		<g>
			<path style="fill:#0E6FE2;" d="M1605.407,2782.863c-11.973,27.632-23.961,59.753-11.065,86.95
				c5.594,11.798,15.325,21.015,25.717,28.676c36.864,27.175,82.946,37.405,127.97,43.483
				c113.578,15.335,230.004,8.188,340.975-20.929c31.789-8.341,63.458-18.611,91.69-35.745
				c20.984-12.735,40.981-31.086,45.813-55.578c2.169-10.991,1.091-22.349,0.004-33.507c-3.138-32.228-6.275-64.456-9.413-96.684
				c15.013,34.049,35.356,66.49,64.137,89.436c28.781,22.946,66.917,35.409,102.491,27.2c35.574-8.209,66.543-39.731,69.04-77.002
				c8.173,29.85,10.239,61.438,6.025,92.135c-3.15,22.947-9.938,45.717-22.645,64.886c-25.034,37.765-69.081,56.684-111.375,71.062
				c-81.933,27.854-166.932,46.237-252.866,54.689c-111.098,10.927-223.085,5.276-334.427-2.668
				c-102.075-7.283-205.662-16.863-301.018-54.894c-4.231-1.688-8.575-3.52-11.73-6.865c-5.553-5.889-6.118-14.888-6.364-23.072
				c-0.956-31.847-1.005-66.657,18.351-91.593c8.308-10.703,19.558-18.589,31.109-25.443
				c38.257-22.704,81.893-35.819,126.063-37.888"/>
		</g>
		<g>
			<g>
				<path style="fill:#371A45;" d="M2126.344,2320.453c-1.736,0-3.496-0.342-5.195-1.06c-6.787-2.871-9.963-10.703-7.092-17.49
					c2.625-6.201,4.053-13.364,4.248-21.294c0.183-7.368,6.34-13.306,13.672-13.013c7.368,0.181,13.193,6.299,13.013,13.667
					c-0.278,11.299-2.415,21.738-6.348,31.04C2136.488,2317.392,2131.544,2320.453,2126.344,2320.453z"/>
			</g>
			<g>
				<path style="fill:#FFFFFF;" d="M1955.464,2181.893c35.619,9.914,76.434,10.63,107.596,18.498
					c8.358,2.11,16.324,5.72,23.057,11.103c17.972,14.367,15.188,30.621,17.689,47.391c2.103,14.097,13.382,25.184,27.5,27.142
					c2.381,0.33,4.802,0.493,7.262,0.492c12.365-0.005,22.889-9.031,25.213-21.177c10.856-56.748-40.223-105.811-117.566-115.479
					L1955.464,2181.893z"/>
			</g>
			<g>
				<path style="fill:#371A45;" d="M2138.573,2297.197c-2.969,0-5.908-0.2-8.74-0.596c-18.752-2.603-33.801-17.466-36.584-36.143
					c-0.535-3.579-0.85-7.134-1.155-10.659c-1.072-12.388-1.846-21.338-12.642-29.966c-5.212-4.165-11.606-7.227-19.004-9.092
					c-13.706-3.457-29.587-5.503-46.399-7.666c-20.383-2.622-41.462-5.332-61.445-10.894c-4.49-1.25-7.651-5.269-7.81-9.927
					c-0.156-4.658,2.725-8.877,7.117-10.43l90.752-32.031c1.563-0.552,3.24-0.723,4.878-0.527
					c48.032,6.006,88.257,26.885,110.364,57.285c15.488,21.304,21.147,45.786,16.362,70.796
					C2170.96,2284.633,2155.95,2297.187,2138.573,2297.197z M1995.606,2179.047c7.065,1.035,14.16,1.948,21.167,2.852
					c17.463,2.246,33.958,4.365,48.899,8.14c10.378,2.617,19.5,7.031,27.112,13.115c17.947,14.346,19.409,31.23,20.583,44.805
					c0.266,3.091,0.53,6.211,0.999,9.351c1.399,9.375,8.967,16.831,18.408,18.14c1.868,0.264,3.813,0.391,5.793,0.391
					c7.146,0,13.34-5.259,14.727-12.505c3.647-19.067-0.73-37.817-12.661-54.224c-18.284-25.142-52.185-42.681-93.272-48.33
					L1995.606,2179.047z"/>
			</g>
		</g>
		<g>
			<g>
				<path style="fill:#371A45;" d="M1683.216,2440.8c-3.694,0-7.368-1.523-10.005-4.507c-4.88-5.522-4.36-13.955,1.162-18.838
					c5.049-4.463,9.436-10.308,13.044-17.378c3.35-6.563,11.396-9.18,17.954-5.815c6.565,3.35,9.17,11.387,5.82,17.954
					c-5.137,10.059-11.577,18.55-19.143,25.239C1689.51,2439.697,1686.356,2440.8,1683.216,2440.8z"/>
			</g>
			<g>
				<path style="fill:#FFFFFF;" d="M1709.903,2197.908c-29.709,49.515,4.88,126.586-19.771,171.574
					c-7.954,14.516-1.859,33.209,13.71,38.828c0.188,0.068,0.377,0.135,0.567,0.2c12.054,4.154,25.617-1.49,31.644-12.725
					c35.877-66.879-7.384-148.033,27.232-192.539L1709.903,2197.908z"/>
			</g>
			<g>
				<path style="fill:#371A45;" d="M1712.532,2420.541c-3.887,0-7.803-0.63-11.601-1.938l-0.779-0.273
					c-9.944-3.589-17.874-11.45-21.692-21.543c-4.014-10.61-3.171-22.432,2.309-32.437c10.298-18.794,8.667-45.693,6.943-74.17
					c-2.056-33.96-4.182-69.072,13.035-97.764c2.126-3.545,6.113-5.518,10.217-5.132l53.384,5.337
					c3.867,0.386,7.219,2.847,8.75,6.416c1.533,3.574,1.001,7.695-1.384,10.762c-14.553,18.711-12.913,46.646-11.016,78.989
					c2.075,35.337,4.426,75.386-15.237,112.046C1738.844,2413.173,1725.87,2420.541,1712.532,2420.541z M1715.965,2209.247
					c-10.405,22.383-8.645,51.45-6.938,79.639c1.833,30.249,3.726,61.528-9.531,85.728c-2.478,4.521-2.866,9.849-1.062,14.619
					c1.631,4.312,4.839,7.52,9.036,9.033c7.336,2.554,15.583-0.835,19.175-7.524c16.812-31.343,14.741-66.602,12.739-100.703
					c-1.66-28.271-3.245-55.288,6.367-77.817L1715.965,2209.247z"/>
			</g>
		</g>
		<g>
			<path style="fill:#371A45;" d="M1544.417,2208.584c-1.124,79.552-19.156,156.729-35.721,233.838
				c-27.375,128.299-64.392,260.925-75.578,391.481c-2.898,38.536-2.491,77.397,1.797,115.497c0.147,1.478,0.022,2.974-0.307,4.342
				c-4.927,20.49-7.484,41.494-4.852,62.205c1.284,9.51,9.708,16.243,18.939,17.587c0,0,4.781,1.163,4.781,1.163
				c12.804,3.019,25.372,6.403,37.947,9.741c50.05,13.745,99.43,27.297,149.659,37.047c201.777,40.08,410.948,12.377,610.252-28.562
				c64.907-15.192,129.586-33.728,188.867-64.632c0,0,2.098-1.066,2.098-1.066l1.005-0.516c0.853-0.589,1.974-1.128,2.721-1.886
				c5.028-4.185,6.777-11.086,4.54-17.125c0,0-1.205-4.28-1.205-4.28c-5.085-17.15-13.37-33.06-24.095-47.469
				c-2.466-3.327-3.187-7.415-2.33-11.163c24.702-110.651,27.617-231.081-18.011-336.571c-3.251-6.698-7.728-16.947-11.547-23.326
				c-43.883-79.113-85.512-159.94-120.284-243.615c-27.399-67.1-54.218-136.693-56.05-210.132
				c12.338,34.393,23.91,68.135,36.481,101.675c42.341,118.063,102.538,229.714,164.181,338.905
				c8.919,16.069,16.883,33.881,23.182,51.11c38.289,105.042,34.652,221.001,8.003,328.184c0,0-2.279-11.094-2.279-11.094
				c14.076,18.788,24.741,40.564,30.417,63.458c5.133,19.492-6.089,40.677-24.355,48.51c-61.312,32.019-128.36,51.394-195.4,67.053
				c-153.137,31.799-309.076,54.058-465.504,47.607c-104.285-4.125-207.674-27.827-307.297-56.344
				c-12.422-3.297-24.828-6.636-37.198-9.55c-7.358-1.843-15.795-3.529-22.209-7.905c-15.078-8.879-22.85-26.63-22.757-43.668
				c-1.263-20.689,1.577-41.755,6.349-61.583c0.005-0.071-0.228,5.026-0.229,5.012l-2.664-24.182
				c-10.509-119.317,19.561-238.68,46.589-353.708c7.604-29.697,27.149-108.472,34.637-137.304
				C1506.6,2361.007,1521.657,2284.571,1544.417,2208.584L1544.417,2208.584z"/>
		</g>
		<g>
			<path style="fill:#371A45;" d="M1427.045,2938.406c88.66,40,184.083,64.891,280.84,75.018
				c32.499,3.538,65.239,5.547,98.108,6.581c-106.973,9.646-216.47,0.868-319.402-31.05c-21.498-6.62-49.733-17.19-70.364-26.148
				C1399.833,2955.463,1410.473,2931.188,1427.045,2938.406L1427.045,2938.406z"/>
		</g>
		<g>
			<path style="fill:#371A45;" d="M2444.454,2918.153c-79.714,59.21-179.175,77.639-275.458,80.499
				c47.418-5.63,94.298-15.519,138.634-31.615c44.219-16.078,86.094-38.666,119.774-69.423
				C2441.366,2885.628,2458.851,2906.567,2444.454,2918.153L2444.454,2918.153z"/>
		</g>
		<g>
			<g>
				
					<ellipse transform="matrix(1 -0.0084 0.0084 1 -15.2648 15.6473)" style="fill:#2BC614;" cx="1851.007" cy="1821.021" rx="303.689" ry="370.909"/>
			</g>
			<g>
				<g>
					<g>
						<path style="fill:#818891;" d="M1899.145,2197.703c30.41-2.727,151.543-33.233,246.228-102.635
							c84.312-61.798,138.535-128.679,108.806-180.595c-15.794-27.583-45.73-7.195-45.73-7.195s15.591-89.591-81.272-93.695
							c-86.14-3.65-144.307-19.722-111.289,50.73c33.018,70.452,13.427,166.654-56.009,250.135
							C1900.332,2186.04,1896.506,2177.787,1899.145,2197.703z"/>
					</g>
					<g>
						<path style="fill:#818891;" d="M2145.383,2095.076c-94.707,69.382-215.843,99.902-246.24,102.61
							c-2.636-19.89,1.194-11.644,60.744-83.249c19.298-23.218,34.738-47.403,46.29-71.755
							c29.976-63.203,33.563-127.526,9.718-178.385c-33.01-70.447,25.126-54.363,111.274-50.726
							c96.885,4.108,81.286,93.708,81.286,93.708s10.293-7.01,21.998-7.228c8.222-0.171,17.198,3.024,23.739,14.425
							C2283.922,1966.371,2229.7,2033.265,2145.383,2095.076z"/>
					</g>
					<g>
						<path style="fill:#0096F0;" d="M2145.383,2095.076c-94.707,69.382-215.843,99.902-246.24,102.61
							c-1.917-14.47-0.425-14.048,23.462-40.328c8.964-9.804,21.054-23.391,37.282-42.921c19.298-23.218,34.738-47.403,46.29-71.755
							c29.976-63.203,33.563-127.526,9.718-178.385c-33.01-70.447,25.126-54.363,111.274-50.726
							c96.885,4.108,81.286,93.708,81.286,93.708s10.293-7.01,21.998-7.228c7.367-0.172,15.301,2.389,21.551,11.086
							c0.785,1.019,1.481,2.138,2.187,3.339C2283.922,1966.371,2229.7,2033.265,2145.383,2095.076z"/>
					</g>
					<g style="opacity:0.3;">
						<path style="fill:#FFFFFF;" d="M2143.357,2049.58c-10.516,5.564-1.847-8.31,14.372-23.86
							c28.458-27.284,53.922-59.525,62.486-79.271c8.563-19.746,21.113-14.696,16.585,4.81
							C2231.433,1974.378,2183.852,2028.152,2143.357,2049.58z"/>
					</g>
					<g>
						<path style="fill:#0E6FE2;" d="M2145.383,2095.076c-94.707,69.382-215.843,99.902-246.24,102.61
							c-1.917-14.47-0.425-14.048,23.462-40.328c7.687,1.73,19.858,7.94,36.222,3.549
							c113.152-30.359,298.887-139.045,293.178-249.769c0.785,1.019,1.481,2.138,2.187,3.339
							C2283.922,1966.371,2229.7,2033.265,2145.383,2095.076z"/>
					</g>
					<g>
						<path style="fill:#0E6FE2;" d="M2230.454,1900.052c-5.215,33.451-30.218,81.771-110.182,126.998
							c62.811-62.817,61.274-118.365,42.49-100.304c-46.532,44.628-110.268,87.487-156.584,115.936
							c29.976-63.203,33.563-127.526,9.718-178.385c-33.01-70.447,25.126-54.363,111.274-50.726
							c96.885,4.108,81.286,93.708,81.286,93.708S2218.748,1900.27,2230.454,1900.052z"/>
					</g>
					<g>
						<path style="fill:#371A45;" d="M1899.132,2211.049c-6.621,0-12.329-4.907-13.215-11.592
							c-2.529-19.077,2.195-24.219,19.763-43.345c9.219-10.039,23.147-25.2,43.938-50.2
							c65.002-78.149,85.767-168.555,54.187-235.935c-8.335-17.786-16.448-40.33-5.098-56.924
							c13.857-20.254,46.816-18.027,92.449-14.951c11.667,0.789,23.735,1.602,36.587,2.146
							c33.645,1.426,59.036,12.493,75.466,32.891c14.312,17.768,18.494,38.826,19.331,54.343c5.378-0.994,11.367-1.211,17.488,0.195
							c7.456,1.719,17.971,6.611,25.735,20.164c30.486,53.237-8.416,121.704-112.498,197.988
							c-96.648,70.84-220.962,102.3-252.925,105.166C1899.935,2211.034,1899.532,2211.049,1899.132,2211.049z M2048.587,1822.829
							c-14.001,0-25.083,1.252-27.849,5.295c-0.701,1.025-3.645,7.31,7.236,30.525c36.018,76.853,13.855,178.137-57.834,264.333
							c-21.211,25.498-35.408,40.957-44.802,51.187c-2.444,2.656-4.456,4.849-6.108,6.689
							c46.516-9.932,141.204-40.078,218.254-96.553c52.236-38.286,135.352-110.4,105.115-163.198
							c-3.198-5.588-6.377-6.902-8.489-7.402c-6.753-1.609-15.63,2.934-18.218,4.651c-4.441,2.939-10.244,2.981-14.709,0.063
							c-4.458-2.917-6.794-8.181-5.879-13.43c0.044-0.281,5.21-32.813-13-55.251c-11.409-14.06-30.146-21.738-55.688-22.82
							c-13.186-0.559-25.425-1.387-37.258-2.185C2076.016,1823.835,2061.131,1822.829,2048.587,1822.829z"/>
					</g>
					<g>
						<path style="fill:#371A45;" d="M2223.661,1911.178c-14.041,30.386-33.65,59.815-62.053,78.124
							c19.638-24.445,28.304-55.685,31.631-85.923C2193.239,1903.379,2223.661,1911.178,2223.661,1911.178L2223.661,1911.178z"/>
					</g>
				</g>
				<g>
					<g>
						<path style="fill:#818891;" d="M1899.152,2197.702c-29.593,8.891-171.869,25.922-260.43-4.533
							c-122.354-41.71-161.933-198.35-147.107-258.893c7.877-32.166,59.807-39.918,98.43-11.77
							c25.395-55.874,125.218-76.83,112.057,2.564c-13.161,79.394,30.308,163.386,117.841,216.473
							C1895.01,2187.071,1896.512,2177.785,1899.152,2197.702z"/>
					</g>
					<g>
						<path style="fill:#198BFD;" d="M1899.152,2197.693c-29.58,8.89-171.858,25.928-260.443-4.525
							c-122.327-41.689-161.928-198.349-147.1-258.891c7.874-32.164,59.801-39.903,98.444-11.758
							c25.391-55.907,125.207-76.837,112.036,2.533c-9.696,58.568,11.413,119.678,58.325,168.977
							c16.645,17.53,36.592,33.574,59.542,47.522c19.614,11.878,34.182,20.057,45.095,25.96
							C1895.871,2184.211,1897.202,2182.974,1899.152,2197.693z"/>
					</g>
					<g>
						<path style="fill:#0E6FE2;" d="M1899.152,2197.693c-29.58,8.89-171.858,25.928-260.443-4.525
							c-122.327-41.689-161.928-198.349-147.1-258.891c7.874-32.164,59.801-39.903,98.444-11.758
							c25.391-55.907,125.207-76.837,112.036,2.533c-9.696,58.568,11.413,119.678,58.325,168.977
							c-45.769-13.716-78.453-63.722-108.814-45.597c-31.838,19.08,14.982,80.332,14.982,80.332s-25.501-12.03-55.945-45.681
							c-40.821-45.135-82.017-38.094-48.462,19.314c40.711,69.605,125.126,91.692,262.3,81.788
							c23.861-1.725,35.28-9.058,40.575-16.674C1895.871,2184.211,1897.202,2182.974,1899.152,2197.693z"/>
					</g>
				</g>
				<g>
					<g>
						<path style="fill:#371A45;" d="M1769.024,2223.803c-46.018,0-95.371-4.512-134.643-18.013
							c-125.652-42.837-172.927-204.463-155.73-274.688c3.931-16.047,15.693-28.391,33.118-34.758
							c22.251-8.137,49.866-5.068,73.596,7.534c22.063-31.912,65.847-51.685,97.974-41.912
							c25.483,7.756,37.422,32.161,31.931,65.286c-12.561,75.776,30.198,153.513,111.594,202.878
							c26.16,15.864,43.281,24.995,54.612,31.04c21.736,11.592,28.296,15.088,30.906,34.775c0.859,6.494-3.118,12.651-9.39,14.536
							C1884.942,2215.903,1829.906,2223.803,1769.024,2223.803z M1538.551,1918.569c-6.641,0-12.671,1.035-17.62,2.844
							c-6.226,2.276-14.116,6.904-16.353,16.038c-13.525,55.225,24.756,204.331,138.45,243.086
							c73.106,25.146,185.598,16.367,233.599,8.33c-2.351-1.284-5.005-2.7-7.712-4.146c-11.587-6.177-29.102-15.518-55.894-31.768
							c-90.92-55.142-138.467-143.296-124.085-230.066c3.279-19.783-1.218-31.687-13.369-35.386
							c-21.301-6.472-60.093,11.311-73.374,40.527c-1.658,3.652-4.873,6.365-8.755,7.385c-3.87,1.016-8.008,0.242-11.255-2.121
							C1567.735,1922.76,1551.91,1918.569,1538.551,1918.569z"/>
					</g>
				</g>
				<g>
					<path style="fill:#371A45;" d="M1642.068,2108.824c-55.258-48.468-101.822-139.575-56.584-209.209
						c0.001,0,25.035,18.963,25.035,18.963C1564.574,1971.795,1601.15,2061.883,1642.068,2108.824L1642.068,2108.824z"/>
				</g>
			</g>
		</g>
		<g>
			<g>
				<path style="fill:#198BFD;" d="M1357.576,2443.469c53.383-5.338,69.398,37.368,101.428,58.721
					c29.286,10.756,57.503,23.718,85.413,37.368c64.059,16.015,106.766,5.338,128.119,69.398
					c-28.239,118.471-85.413,218.87-181.502,272.253c-195.186-55.052-221.457-166.41-294.36-281.285
					c-11.49-18.105-19.356-38.428-21.287-59.784c-4.395-48.594,6.276-95.304,38.057-139.377L1357.576,2443.469z"/>
			</g>
			<g>
				<path style="fill:#0E6FE2;" d="M1632.233,2674.508c-63.388,121.554-225.959,146.769-321.197,48.163
					c-51.254-53.067-78.15-116.708-120.215-181.468c-6.72-10.346-12.172-21.434-16.028-33.007
					c-0.527,9.808-0.402,19.697,0.399,29.67c1.745,21.737,9.099,42.617,20.815,61.01c73.412,115.246,99.248,227.114,295.027,282.333
					c96.089-53.383,153.263-153.782,181.502-272.253c-2.012-6.037-4.215-11.407-6.607-16.201
					C1656.733,2621.55,1645.557,2648.958,1632.233,2674.508z"/>
			</g>
			<g>
				<path style="fill:#371A45;" d="M1357.576,2443.469c50.29-13.815,72.236,26.273,106.902,50.508
					c0.001-0.001-2.071-1.053-2.071-1.053c20.01,6.747,39.758,14.226,58.927,22.784c7.68,3.677,19.641,8.708,27.687,11.242
					c40.404,12.748,93.332,6.733,120.561,46.421c7.167,9.95,11.854,20.711,15.613,31.364c0.859,2.448,0.927,4.967,0.321,7.316
					c-13.246,55.613-33.197,110.37-63.718,159.863c-30.472,49.649-72.608,93.153-123.917,121.619
					c-3.388,1.89-7.213,2.229-10.675,1.245c-51.912-14.547-103.154-36.584-147.002-70.486
					c-43.313-33.621-76.181-79.404-102.826-126.291c-13.41-23.099-26.094-46.212-39.302-68.709
					c-5.869-10.705-15.081-23.483-20.644-34.768c-10.047-19.028-15.77-40.993-16.48-62.705c-0.968-21.104,0.782-42.344,5.876-62.926
					c6.688-27.529,19.352-53.413,35.788-75.936c4.331-5.987,12.712-7.316,18.68-2.958c5.927,4.325,7.242,12.622,2.969,18.569
					c-14.553,20.249-25.338,42.842-30.986,66.748c-9.666,41.694-7.135,86.536,18.546,122.397
					c17.66,27.872,33.742,57.985,50.087,85.987c54.687,99.421,123.428,153.014,232.948,183.938
					c-0.001,0.001-10.674,1.246-10.674,1.246c97.061-53.321,150.344-158.263,175.366-263.023c0,0,0.321,7.315,0.321,7.315
					c-5.756-17.004-14.206-32.454-30.339-40.557c-29.333-14.025-72.84-12.344-103.782-28.942
					c-23.016-11.19-46.515-22.732-70.152-32.22C1418.832,2486.821,1408.871,2446.513,1357.576,2443.469L1357.576,2443.469z"/>
			</g>
			<g>
				<path style="fill:#371A45;" d="M1654.445,2625.909c13.076-28.539,22.181-59.751,28.767-91.689
					c5.939,33.527,7.941,69.592-4.198,101.965C1672.079,2652.946,1647.375,2642.64,1654.445,2625.909L1654.445,2625.909z"/>
			</g>
		</g>
		<g>
			<path style="fill:#371A45;" d="M2205.803,2560.381c11.624,110.698,24.812,206.194,113.224,283.841
				C2209.358,2802.977,2177.619,2664.125,2205.803,2560.381L2205.803,2560.381z"/>
		</g>
		<g style="opacity:0.3;">
			<path style="fill:#FFFFFF;" d="M1600.631,2590.431c-10.27-15.573-52.667-13.441-109.055-45.828
				c-41.024-23.563-53.324,23.123-2.713,49.227C1542.46,2621.475,1610.901,2606.005,1600.631,2590.431z"/>
		</g>
		<g style="opacity:0.3;">
			<path style="fill:#FFFFFF;" d="M1421.274,2535.606c12.765,10.127,30.216,5.003,26.063-11.057
				c-3.082-11.917-20.81-26.813-31.044-22.183C1406.158,2506.952,1411.295,2527.689,1421.274,2535.606z"/>
		</g>
		<g style="opacity:0.3;">
			<path style="fill:#FFFFFF;" d="M2021.754,2595.52c-17.384-12.234-61.456,7.702-134.757-3.135
				c-53.329-7.885-46.91,46.753,17.646,53.336C1973.006,2652.693,2039.138,2607.754,2021.754,2595.52z"/>
		</g>
		<g style="opacity:0.3;">
			<path style="fill:#FFFFFF;" d="M2078.95,2604.32c16.019-9.388,17.767-30.04-1.006-32.245
				c-13.931-1.637-37.061,11.058-36.36,23.838C2042.279,2608.571,2066.426,2611.659,2078.95,2604.32z"/>
		</g>
		<g>
			<path style="fill:#371A45;" d="M1750.144,2540.458c60.194,6.408,118.612,11.584,178.66,11.924
				c59.996,0.674,118.88-3.721,179.147-8.373C2000.575,2590.716,1855.711,2593.469,1750.144,2540.458L1750.144,2540.458z"/>
		</g>
		<g>
			<g>
				<path style="fill:#FFAD40;" d="M2204.215,1717.125"/>
			</g>
			<g>
				<g>
					<path style="fill:#62ED2E;" d="M1607.567,547.398c362.347-64.339,788.145,126.351,892.333,581.842
						c133.416,583.265-431.876,943.256-615.738,975.903s-838.531-110.726-914.071-704.267
						C911.099,937.359,1245.22,611.737,1607.567,547.398z"/>
				</g>
				<g>
					<path style="fill:#62ED2E;" d="M2272.634,1864.648c-140.39,142.087-304.365,225.543-388.475,240.478
						s-266.719-6.982-447.385-91.947c-214.253-100.768-425.704-290.285-466.69-612.298
						c-58.969-463.512,275.127-789.154,637.481-853.494c362.354-64.34,788.136,126.377,892.344,581.856
						C2572.281,1445.645,2439.031,1696.329,2272.634,1864.648z"/>
				</g>
				<g>
					<path style="fill:#2BC614;" d="M2272.634,1864.648c-140.39,142.087-304.365,225.543-388.475,240.478
						s-266.719-6.982-447.385-91.947c88.319,21.245,251.551,49.313,434.024,16.913
						C2053.271,1997.692,2197.078,1915.067,2272.634,1864.648z"/>
				</g>
				<g style="opacity:0.7;">
					<path style="fill:#FFFFFF;" d="M2512.424,1196.626c-0.949-4.448-1.898-8.897-2.931-13.37
						c-82.394-360.249-365.974-554.827-660.217-588.669c1.109,3.106,1.723,6.341,1.867,9.619
						c1.631,37.202-58.756,70.094-134.939,73.432c-76.144,3.331-139.173-24.163-140.811-61.404c-0.094-2.093,0.007-4.22,0.32-6.266
						c-345.911,80.883-652.741,399.12-596.031,844.924c0.57,4.555,1.211,9.058,1.851,13.562
						c-4.632-21.824-8.478-44.385-11.442-67.579c-58.979-463.51,275.117-789.136,637.457-853.473
						c362.379-64.344,788.154,126.358,892.353,581.838C2505.103,1152.036,2509.259,1174.542,2512.424,1196.626z"/>
				</g>
				<g>
					<path style="fill:#371A45;" d="M1810.313,2124.872c-15.252,0-30.92-0.703-47.158-2.08
						c-163.276-16.152-342.036-82.72-478.416-178.101C1096.434,1813,981.915,1625.676,953.565,1402.973
						c-61.128-480.432,289.829-807.839,651.077-871.982c361.284-64.153,803.506,122.419,911.514,594.524
						c50.051,218.838,7.024,434.124-124.424,622.59c-95.198,136.489-240.115,260.547-387.649,331.846l-0.144,0.073
						C1938.826,2110.722,1878.8,2124.872,1810.313,2124.872z M1745.169,552.06c-45.627,0-90.759,3.931-134.702,11.733
						c-346.111,61.455-682.38,374.978-623.855,834.973c62.586,491.65,537.312,666.882,779.59,690.852
						c83.77,7.124,148.572-4.399,223.457-39.697c219.221-105.979,604.492-433.957,494.021-916.978
						C2393.394,738.305,2058.948,552.06,1745.169,552.06z"/>
				</g>
				<g>
					<g>
						<g>
							<path style="fill:#371A45;" d="M1105.782,1290.78c-26.182,65.675-14.65,227.901,128.433,320.411
								c137.675,89.013,412.842,26.635,441.639-45.456c15.722-39.361-15.948-212.909-152.709-323.993
								C1378.839,1124.527,1164.527,1143.423,1105.782,1290.78z"/>
						</g>
						<g>
							<path style="fill:#371A45;" d="M1503.1,1605.488c-97.269,17.269-191.632,6.051-246.267-29.275
								c-122.102-78.942-133.496-217.001-112.363-270.007c20.204-50.678,65.224-84.604,126.766-95.532
								c75.843-13.467,160.198,10.232,225.651,63.396c122.333,99.364,147.631,248.354,140.161,276.479
								c-5.866,11.683-51.946,40.378-133.941,54.937C1503.104,1605.487,1503.104,1605.487,1503.1,1605.488z"/>
						</g>
						<g style="opacity:0.5;">
							<path style="fill:#FFFFFF;" d="M1600.752,1405.306c-20.424-27.593-45.202-54.454-75.11-78.755
								c-74.445-60.472-170.393-87.429-256.676-72.109c-59.463,10.558-105.34,39.982-131.882,83.952
								c1.36-12.594,3.942-23.543,7.398-32.194c20.192-50.667,65.226-84.595,126.74-95.518
								c75.867-13.471,160.194,10.22,225.687,63.398C1545.499,1313.549,1578.773,1360.857,1600.752,1405.306z"/>
						</g>
					</g>
					<g style="opacity:0.35;">
						<g>
							<path style="fill:#111A28;" d="M1675.857,1565.747c-28.786,72.076-303.965,134.474-441.649,45.424
								c-104.078-67.266-138.563-171.425-139.515-248.5c19.306,55.838,57.299,113.052,123.015,155.573
								c118.227,76.429,393.581,21.446,445.081-69.934C1680.408,1502.755,1682.975,1547.943,1675.857,1565.747z"/>
						</g>
					</g>
					<g>
						<g>
							<path style="fill:#371A45;" d="M1413.919,1668.354c-67.971,0.002-135.95-13.11-186.89-46.045
								c-150.391-97.234-161.187-267.097-133.545-336.431l12.297,4.902l-12.297-4.902c24.771-62.136,77.085-106.421,147.307-124.7
								c95.373-24.827,206.763,2.107,290.701,70.286c137.244,111.477,176.182,290.303,156.658,339.182
								c-15.093,37.781-75.2,61.853-109.69,72.839C1530.904,1658.637,1472.413,1668.351,1413.919,1668.354z M1313.624,1178.537
								c-22.568,0-44.809,2.708-66.162,8.264c-61.863,16.103-107.81,54.771-129.382,108.882
								c-24.053,60.337-12.466,216.597,123.325,304.39c83.667,54.094,228.848,50.095,329.019,18.186
								c49.612-15.806,85.3-37.813,93.137-57.434c13.669-34.216-18.433-202.949-148.762-308.809
								C1456.219,1204.435,1383.404,1178.537,1313.624,1178.537z"/>
						</g>
					</g>
				</g>
				<g>
					<g>
						<g>
							<path style="fill:#371A45;" d="M2334.799,1072.554c47.191,52.647,92.213,208.926-10.275,345.04
								c-98.614,130.969-378.436,167.136-430.291,109.365c-28.312-31.542-58.325-205.385,31.833-356.76
								C2021.199,1010.469,2228.916,954.428,2334.799,1072.554z"/>
						</g>
						<g>
							<path style="fill:#371A45;" d="M2070.113,1504.808c97.268-17.273,182.001-60.292,221.135-112.267
								c87.461-116.152,50.629-249.695,12.539-292.184c-36.416-40.624-90.363-56.978-151.905-46.05
								c-75.843,13.467-146.883,64.758-190.032,137.205c-80.647,135.406-53.106,283.997-36.411,307.831
								c9.529,8.95,62.672,20.026,144.666,5.467C2070.109,1504.809,2070.109,1504.809,2070.113,1504.808z"/>
						</g>
						<g style="opacity:0.5;">
							<path style="fill:#FFFFFF;" d="M1909.515,1350.481c9.676-32.937,23.693-66.687,43.406-99.799
								c49.076-82.405,129.878-140.746,216.161-156.067c59.463-10.558,112.665,1.273,152.722,33.417
								c-5.613-11.356-11.806-20.747-18.029-27.679c-36.4-40.619-90.362-56.969-151.876-46.046
								c-75.867,13.471-146.883,64.745-190.065,137.219C1929.801,1245.312,1914.848,1301.183,1909.515,1350.481z"/>
						</g>
					</g>
					<g style="opacity:0.35;">
						<g>
							<path style="fill:#111A28;" d="M1894.235,1526.972c51.839,57.76,331.679,21.608,430.29-109.399
								c74.558-98.985,71.076-208.649,45.436-281.34c1.098,59.07-14.876,125.868-61.936,188.413
								c-84.687,112.459-362.138,155.632-441.95,87.568C1868.276,1469.397,1881.423,1512.707,1894.235,1526.972z"/>
						</g>
					</g>
					<g>
						<g>
							<path style="fill:#371A45;" d="M1994.844,1566.808c-36.787,0-87.283-5.183-110.461-31.008
								c-35.159-39.165-60.168-220.464,30.307-372.378c55.337-92.908,150.647-156.543,248.735-166.069
								c72.2-7.021,136.582,16.55,181.233,66.365l0,0c49.819,55.578,98.162,218.777-9.558,361.841
								c-67.893,90.164-214.854,136.226-322.669,140.869C2007.117,1566.655,2001.182,1566.808,1994.844,1566.808z
								 M2187.974,1022.626c-7.224,0-14.553,0.359-21.99,1.082c-89.863,8.726-177.437,67.454-228.545,153.264
								c-85.918,144.258-57.966,313.723-33.354,341.142c14.114,15.723,55.173,24.119,107.207,21.858
								c105.034-4.521,242.722-50.745,302.656-130.342c97.263-129.175,54.348-279.873,10.994-328.242
								C2290.606,1043.083,2242.557,1022.626,2187.974,1022.626z"/>
						</g>
					</g>
				</g>
				<g>
					
						<ellipse transform="matrix(0.7771 -0.6293 0.6293 0.7771 -581.2587 1455.212)" style="fill:#371A45;" cx="1764.063" cy="1548.317" rx="12.35" ry="22.231"/>
				</g>
				<g>
					
						<ellipse transform="matrix(0.3584 -0.9336 0.9336 0.3584 -281.2764 2674.4045)" style="fill:#371A45;" cx="1805.005" cy="1541.832" rx="22.231" ry="12.35"/>
				</g>
				<g>
					<g>
						<path style="fill:#62ED2E;" d="M1385.714,918.16c0.584-7.504-89.091-272.297-282.194-260.838
							c-101.008,5.985-157.42,83.333-179.808,114.566c-11.464-1.977-23.55-1.404-35.467,2.08
							c-41.919,12.257-65.97,56.184-53.713,98.103c12.245,41.878,56.172,65.929,98.091,53.672
							c41.879-12.245,65.929-56.172,53.684-98.049c-0.957-3.273-2.111-6.443-3.463-9.509
							c39.619-34.769,196.346-124.366,297.109,135.818L1385.714,918.16z"/>
					</g>
					<g>
						<path style="fill:#62ED2E;" d="M1351.281,900.975c-9.992-25.407-29.957-68.815-60.932-110.928
							c-54.458-74.029-116.769-109.507-185.212-105.445c-7.077,0.419-14.143,1.264-20.996,2.511
							c-75.935,13.81-119.581,74.697-138.222,100.696l-9.977,13.922l-16.879-2.913c-5.857-1.01-11.826-0.976-17.749,0.101
							c-1.804,0.328-3.621,0.757-5.402,1.279c-27.393,8.008-43.161,36.812-35.152,64.207c7.451,25.481,32.748,41.12,58.84,36.377
							c1.789-0.325,3.591-0.752,5.353-1.268c13.246-3.872,24.199-12.682,30.837-24.805c6.638-12.123,8.158-26.096,4.284-39.344
							c-0.619-2.125-1.371-4.193-2.236-6.156l-8.087-18.342l15.064-13.222c9.928-8.711,46.349-37.864,98.334-47.319
							c68.001-12.367,162.06,8.106,232.333,169.559L1351.281,900.975z"/>
					</g>
					<g>
						<path style="fill:#2BC614;" d="M860.777,864.419c7.45,25.469,32.714,41.111,58.833,36.361
							c1.767-0.321,3.596-0.734,5.328-1.247c13.262-3.88,24.198-12.694,30.843-24.815c6.644-12.121,8.152-26.085,4.31-39.353
							c-0.622-2.109-1.397-4.19-2.267-6.135l-0.757-1.767c-0.621,7.057-2.664,13.936-6.183,20.33
							c-6.644,12.121-17.581,20.935-30.843,24.815c-1.732,0.514-3.554,0.964-5.321,1.285c-23.315,4.24-45.939-7.795-55.822-28.536
							C858.329,851.611,858.905,858.054,860.777,864.419z"/>
					</g>
					<g style="opacity:0.7;">
						<path style="fill:#FFFFFF;" d="M832.13,860.939c7.063-25.529,24.516-67.961,51.794-75.938
							c11.908-3.475,37.392,0.144,53.135,8.523c22.371-31.25,74.226-99.143,164.378-104.098
							c156.675-8.611,284.283,228.719,284.283,228.719c0.583-7.487-89.081-272.276-282.189-260.844
							c-101.008,5.99-157.45,83.355-179.821,114.605c-11.474-2-23.552-1.43-35.46,2.044
							C850.005,785.113,826.674,822.648,832.13,860.939z"/>
					</g>
					<g>
						<path style="fill:#371A45;" d="M1385.714,918.16c-37.642-85.028-108.509-190.205-196.205-227.364
							c-82.97-35.261-170.573-4.357-227.918,61.516c-10.526,11.64-21.092,24.749-30.667,37.727
							c-31.772-8.241-63.588,3.901-77.543,34.601c-18.398,40.378,12.525,87.974,56.889,87.594
							c44.416,0.582,75.408-46.822,57.335-87.317c-0.003-0.008-3.905-11.362-3.909-11.372l8.16-7.881
							c52.662-50.583,140.306-63.795,201.251-20.828c50.292,34.043,78.968,90.056,99.169,145.483c0,0,7.676,23.682,7.676,23.682
							c-14.062-28.636-30.916-59.398-50.061-84.689c-64.82-88.336-147.698-103.28-236.061-38.609
							c0.006,0.014,4.248-19.301,4.259-19.227c17.562,39.103,5.202,88.143-29.054,113.989
							c-79.266,59.688-184.995-22.853-146.113-114.323c16.774-39.25,61.559-63.48,103.619-55.67c0-0.001-16.369,6.71-16.369,6.71
							c14.663-22.58,32.172-44.892,53.093-63.856c63.165-60.161,161.57-78.723,240.733-40.046
							C1298.577,702.127,1367.279,818.504,1385.714,918.16L1385.714,918.16z"/>
					</g>
				</g>
				<g>
					<g>
						<path style="fill:#62ED2E;" d="M1943.5,819.119c-3.131-6.844-10.098-286.323,175.146-342.044
							c96.894-29.155,176.486,24.044,208.258,45.66c10.083-5.803,21.627-9.426,34.016-10.257
							c43.576-2.924,81.28,30.038,84.204,73.615c2.921,43.533-30.041,81.237-73.617,84.161
							c-43.534,2.921-81.237-30.041-84.158-73.574c-0.229-3.402-0.237-6.776-0.022-10.12
							c-49.167-19.004-227.159-49.168-232.189,229.801L1943.5,819.119z"/>
					</g>
					<g>
						<path style="fill:#62ED2E;" d="M1969.912,791.13c0.634-27.294,4.435-74.922,19.019-125.124
							c25.643-88.252,71.932-143.013,137.589-162.762c6.789-2.043,13.713-3.682,20.577-4.871
							c76.047-13.176,137.987,28.963,164.44,46.955l14.16,9.636l14.844-8.546c5.151-2.964,10.767-4.988,16.698-6.016
							c1.807-0.313,3.66-0.536,5.512-0.659c28.476-1.912,53.196,19.703,55.108,48.18c1.776,26.489-16.59,49.88-42.72,54.41
							c-1.792,0.31-3.63,0.53-5.463,0.652c-13.769,0.925-27.085-3.576-37.491-12.673c-10.406-9.097-16.643-21.692-17.567-35.464
							c-0.151-2.208-0.156-4.409-0.02-6.549l1.278-20.005l-18.695-7.227c-12.32-4.76-56.551-19.593-108.613-10.573
							c-68.102,11.799-149.363,63.403-159.757,239.179L1969.912,791.13z"/>
					</g>
					<g>
						<path style="fill:#2BC614;" d="M2417.847,587.944c1.773,26.477-16.561,49.861-42.719,54.393
							c-1.769,0.306-3.629,0.549-5.432,0.664c-13.787,0.923-27.09-3.587-37.5-12.68c-10.411-9.092-16.634-21.683-17.594-35.464
							c-0.142-2.194-0.131-4.415,0.016-6.54l0.103-1.92c3.013,6.412,7.299,12.167,12.804,16.959
							c10.411,9.092,23.713,13.602,37.5,12.68c1.803-0.114,3.669-0.319,5.438-0.625c23.35-4.045,40.447-23.134,42.586-46.009
							C2415.736,575.076,2417.413,581.323,2417.847,587.944z"/>
					</g>
					<g style="opacity:0.7;">
						<path style="fill:#FFFFFF;" d="M2443.544,574.814c-15.42-21.537-46.414-55.366-74.771-53.464
							c-12.376,0.837-35.057,13.008-46.952,26.295c-31.762-21.638-103.82-67.529-190.168-41.145
							c-150.062,45.853-188.164,312.607-188.164,312.607c-3.125-6.828-10.101-286.299,175.139-342.048
							c96.896-29.15,176.522,24.055,208.284,45.693c10.084-5.828,21.62-9.451,33.996-10.288
							C2400.658,509.777,2435.485,536.985,2443.544,574.814z"/>
					</g>
					<g>
						<path style="fill:#371A45;" d="M1943.5,819.119c-16.984-100.01,7.396-232.706,81.138-306.553
							c61.022-63.561,159.781-80.02,239.805-45.276c26.172,10.602,50.292,25.521,71.831,41.673l-17.678-0.665
							c36.79-21.804,87.202-14.487,116.453,16.596c67.937,72.456-2.747,186.37-97.827,157.636
							c-41.074-12.478-69.542-54.269-66.518-97.035c-0.001,0,10.617,16.601,10.617,16.601
							c-56.07-17.004-124.461-13.551-164.825,34.151c-42.101,47.661-54.647,117.89-61.359,180.113c0,0-0.946-24.876-0.946-24.876
							c-0.11-59,7.521-121.451,43.021-170.731c42.438-61.326,129.252-79.087,196.12-49.729c0-0.001,10.375,4.589,10.375,4.589
							c0.341,10.407-0.459,22.339,2.375,32.435c8.86,34.29,48.792,54.836,81.761,41.828c41.714-14.885,54.481-70.249,23.254-101.824
							c-23.773-24.036-57.623-24.476-84.714-5.79c-13.481-8.883-27.881-17.553-41.781-24.865
							c-76.499-42.1-169.436-40.954-235.161,20.713C1979.854,603.266,1949.608,726.206,1943.5,819.119L1943.5,819.119z"/>
					</g>
				</g>
			</g>
			<g>
				<path style="fill:#371A45;" d="M1708.287,1689.404c80.427,28.376,129.619,19.321,195.395-34.696
					c-13.038,37.799-47.62,67.173-87.523,74.667C1776.115,1736.071,1733.537,1720.399,1708.287,1689.404L1708.287,1689.404z"/>
			</g>
		</g>
	</g>
</g>
</svg>
