<?xml version="1.0" encoding="utf-8"?>
<!-- Generator: Adobe Illustrator 27.5.0, SVG Export Plug-In . SVG Version: 6.00 Build 0)  -->
<svg version="1.1" id="Layer_1" xmlns="http://www.w3.org/2000/svg" xmlns:xlink="http://www.w3.org/1999/xlink" x="0px" y="0px"
	 viewBox="0 0 4000 4000" style="enable-background:new 0 0 4000 4000;" xml:space="preserve">
<g>
	<g>
		<g>
			<rect x="0.5" y="0.5" style="fill:#B0F8FF;" width="4000" height="4000"/>
		</g>
	</g>
	<g>
		<g>
			<g>
				<path style="fill:#B2C5D8;" d="M3157.133,1323.217c-24.939,33.002-70.875,50.144-120.266,64.718
					c-17.01,5.006-32.603,13.909-45.537,26.047c-59.358,55.593-116.723,131.74-173.378,215.594l-428.972-614.931l-16.124-23.123
					c288.329-37.165,662.019,88.55,779.317,265.029c2.658,3.986,5.183,7.973,7.574,12.004
					C3169.846,1285.698,3169.093,1307.359,3157.133,1323.217z"/>
			</g>
			<g style="opacity:0.7;">
				<path style="fill:#FFFFFF;" d="M2389.711,1015.695c285.156-28.561,643.596,95.264,758.031,267.434
					c2.658,3.986,5.183,7.973,7.574,12.004c3.678,6.242,5.897,13.085,6.68,20.027c7.026-14.653,6.228-32.215-2.251-46.605
					c-2.392-4.031-4.917-8.018-7.574-12.004c-117.299-176.479-490.988-302.194-779.317-265.029l16.124,23.123L2389.711,1015.695z"/>
			</g>
			<g>
				<path style="fill:#83AAC4;" d="M3157.133,1323.217c-24.939,33.002-70.875,50.144-120.266,64.718
					c-17.01,5.006-32.603,13.909-45.537,26.047c-59.358,55.593-116.723,131.74-173.378,215.594l-428.972-614.931
					c4.075-3.411,8.284-6.689,12.625-9.79l45.936-15.017c78.538,53.777,149.901,118.052,211.563,190.61
					c27.907,32.868,53.998,67.553,85.848,96.612c31.894,29.059,70.698,52.537,113.489,57.586c29.28,3.455,58.738-1.86,87.708-7.087
					c27.597-5.05,55.194-10.055,82.791-15.062c37.165-6.777,76.014-14.264,105.383-38.051c6.6-5.36,12.536-11.384,17.852-17.896
					c2.658,3.986,5.183,7.973,7.574,12.004C3169.846,1285.698,3169.093,1307.359,3157.133,1323.217z"/>
			</g>
			<g>
				<path style="fill:#390075;" d="M2817.949,1642.848c-4.338,0-8.403-2.119-10.886-5.679l-445.088-638.071
					c-2.656-3.804-3.13-8.721-1.252-12.964c1.88-4.248,5.837-7.202,10.442-7.793c143.147-18.467,314.319,2.095,469.602,56.377
					c157.2,54.956,277.627,137.725,330.4,227.09c13.057,22.119,11.697,49.37-3.464,69.424
					c-25.808,34.15-69.473,52.456-127.095,69.438c-14.956,4.404-28.86,12.358-40.208,22.993
					c-50.735,47.524-105.215,115.317-171.453,213.345c-2.449,3.623-6.526,5.811-10.901,5.84
					C2818.015,1642.848,2817.981,1642.848,2817.949,1642.848z M2396.487,1002.174l421.328,604.009
					c62.546-91.206,115.049-155.635,164.434-201.894c14.355-13.452,31.941-23.511,50.854-29.087
					c52.583-15.493,91.992-31.621,113.42-59.976c8.647-11.441,9.346-27.109,1.782-39.922
					C3046.419,1102.78,2686.24,973.405,2396.487,1002.174z"/>
			</g>
			<g>
				<g>
					<path style="fill:#B2C5D8;" d="M3336.801,3441.677c-3.809,26.8-10.232,52.049-19.491,74.818
						c-7.043,17.276-30.476,20.289-41.019,4.873c-112.647-164.475-400.489-172.803-396.325-367.976
						c-136.169,142.68-220.156,69.369-302.283,26.756c-39.557-20.51-85.981-22.592-127.841-7.354
						c-41.329,15.061-75.571,18.738-98.074,3.499c-11.251-7.619-14.795-22.591-8.727-34.729c1.462-2.968,2.968-5.891,4.474-8.815
						c118.893-231.54,286.292-299.359,471.675-279.957c3.676,0.354,7.353,0.753,11.03,1.24c6.246,0.753,12.492,1.595,18.738,2.57
						l188.351,9.258c31.982,59.003,118.76,121.64,191.585,199.381c53.998,57.719,89.878,129.657,103.212,207.575
						C3342.117,3330.934,3344.376,3389.318,3336.801,3441.677z"/>
				</g>
				<g>
					<path style="fill:#83AAC4;" d="M3336.801,3441.677c-3.809,26.8-10.232,52.049-19.491,74.818
						c-7.043,17.276-30.476,20.289-41.019,4.873c-112.647-164.475-400.489-172.803-396.325-367.976
						c-136.169,142.68-220.156,69.369-302.283,26.756c-39.557-20.51-85.981-22.592-127.841-7.354
						c-41.329,15.061-75.571,18.738-98.074,3.499c-11.251-7.619-14.795-22.591-8.727-34.729c1.462-2.968,2.968-5.891,4.474-8.815
						c3.234,5.493,8.018,10.232,13.555,13.245c14.042,7.664,31.096,6.954,46.91,4.474c43.721-6.91,86.114-26.002,130.233-22.946
						c50.144,3.455,94.486,34.995,144.231,42.26c68.528,10.011,141.175-33.312,164.874-98.428
						c8.771-24.053,11.296-50.011,10.631-75.571c-1.285-49.834-14.707-99.314-38.76-142.99c-1.152-2.215-2.392-4.43-3.677-6.601
						c4.828,2.791,9.701,5.405,14.707,7.841c56.169,27.863,122.127,35.615,183.168,21.13c4.74-1.107,9.79-2.348,14.396-0.753
						c3.677,1.285,6.512,4.208,9.169,6.999c24.895,26.135,49.79,52.27,74.685,78.406c-26.8-1.152-50.366,17.01-69.413,35.88
						c-48.815,48.329-87.841,118.185-67.509,183.789c12.846,41.418,47.176,72.78,84.031,95.681
						c36.855,22.857,77.475,39.336,113.622,63.345c28.66,19.003,54.308,42.657,75.571,69.723
						c13.732,17.497,27.73,37.83,49.435,42.613C3311.065,3453.815,3325.107,3449.65,3336.801,3441.677z"/>
				</g>
				<g>
					<path style="fill:#390075;" d="M3295.091,3544.645c-11.96,0-22.871-5.708-29.751-15.757
						c-45.652-66.665-122.175-107.134-196.177-146.274c-96.165-50.854-187.468-99.15-200.84-199.087
						c-117.004,108.32-198.22,63.022-270.352,22.788c-9.099-5.073-17.695-9.863-26.387-14.375
						c-35.532-18.428-78.252-20.854-117.219-6.655c-49.407,18.003-85.4,18.657-110.027,2.002
						c-16.609-11.24-22.275-33.447-13.179-51.665c60.635-121.426,138.369-206.87,231.042-253.965
						c82.339-41.851,179.265-54.741,288.079-38.276l187.686,9.209c4.634,0.225,8.811,2.856,11.021,6.934
						c18.997,35.054,60.808,73.696,105.073,114.6c28.02,25.898,56.997,52.676,84.517,82.065
						c55.95,59.751,92.822,133.882,106.631,214.385c16.516,96.299,10.972,185.405-15.61,250.913
						c-5.146,12.681-16.794,21.47-30.4,22.935C3297.818,3544.572,3296.448,3544.645,3295.091,3544.645z M2879.969,3140.114
						c1.707,0,3.425,0.332,5.066,1.006c5.061,2.095,8.32,7.075,8.203,12.554c-2.229,104.692,86.082,151.396,188.337,205.474
						c76.848,40.645,156.313,82.671,205.669,154.741c2.947,4.307,7.349,4.316,9.104,4.141c3.931-0.425,7.166-2.866,8.65-6.523
						c24.749-60.986,29.736-144.956,14.043-236.44c-12.927-75.371-47.451-144.78-99.844-200.732
						c-26.863-28.691-55.481-55.137-83.154-80.713c-45.22-41.782-84.619-78.198-106.638-114.873l-181.096-8.887
						c-0.452-0.02-0.901-0.068-1.348-0.132c-220.972-33.662-381.929,57.227-492.051,277.759c-3.169,6.348-1.318,14.004,4.307,17.808
						c16.833,11.392,45.789,9.717,86.062-4.951c45.925-16.738,96.421-13.804,138.528,8.032c9.05,4.692,18.223,9.81,27.095,14.756
						c74.614,41.606,145.085,80.923,259.463-38.906C2872.92,3141.544,2876.411,3140.114,2879.969,3140.114z"/>
				</g>
			</g>
			<g>
				<g>
					<path style="fill:#B2C5D8;" d="M1781.401,1997.241l-196.236,153.888c-18.87,14.795-33.976,33.843-44.253,55.504
						c-39.469,83.234-85.493,148.04-142.238,182.903c-19.889,12.182-43.987,13.067-63.832,3.588
						c-8.638-4.075-16.479-10.188-22.813-18.117c-59.801-75.039-57.807-237.122-21.927-402.483
						c10.498-48.283,23.876-96.877,39.469-143.61L1781.401,1997.241z"/>
				</g>
				<g>
					<path style="fill:#83AAC4;" d="M1781.401,1997.241l-196.236,153.888c-18.87,14.795-33.976,33.843-44.253,55.504
						c-39.469,83.234-85.493,148.04-142.238,182.903c-19.889,12.182-43.987,13.067-63.832,3.588
						c-3.411-3.278-6.778-6.645-10.1-10.011c28.97,8.283,60.776-5.316,81.772-26.977c20.952-21.661,33.046-50.278,43.5-78.539
						c26.224-70.786,44.386-153.002,8.151-219.27c-31.894-58.339-100.997-88.107-168.063-85.804
						c10.498-48.283,23.876-96.877,39.469-143.61L1781.401,1997.241z"/>
				</g>
				<g>
					<path style="fill:#390075;" d="M1363.382,2412.804c-23.433,0-46.387-10.239-61.746-29.512
						c-83.21-104.429-52.254-355.791,15.342-558.579c1.138-3.413,3.616-6.221,6.865-7.774c3.252-1.548,6.99-1.724,10.361-0.464
						l451.831,168.33c4.502,1.675,7.744,5.65,8.481,10.396c0.74,4.746-1.145,9.521-4.924,12.485l-196.233,153.906
						c-17.075,13.394-31.06,30.928-40.442,50.708c-44.15,93.091-92.332,154.761-147.295,188.525
						C1392.481,2408.903,1377.837,2412.804,1363.382,2412.804z M1337.886,1846.173c-60.386,187.798-90.332,426.646-15.488,520.576
						c16.484,20.684,46.287,25.61,69.329,11.46c50.447-30.996,95.327-88.984,137.205-177.285
						c11.138-23.477,27.751-44.302,48.047-60.22l177.598-139.292L1337.886,1846.173z"/>
				</g>
			</g>
			<g>
				<g>
					<path style="fill:#B2C5D8;" d="M3097.952,2517.42c0,2.791-0.044,5.582-0.089,8.328c-0.044,5.227-0.133,10.454-0.266,15.636
						c-0.133,5.626-0.266,11.252-0.487,16.833c-0.044,1.284-0.089,2.614-0.133,3.898c-0.133,3.854-0.31,7.708-0.487,11.517
						c-0.089,2.126-0.177,4.252-0.31,6.335c-0.443,8.904-0.974,17.719-1.594,26.445c0,0.398-0.044,0.841-0.089,1.24
						c-0.399,5.404-0.797,10.808-1.24,16.168c-0.399,4.607-0.798,9.17-1.24,13.733c-1.152,11.65-2.436,23.123-3.854,34.463
						c-0.443,3.677-0.93,7.265-1.417,10.897c-0.221,1.638-0.443,3.278-0.664,4.873c-0.665,4.651-1.374,9.258-2.082,13.865
						c-0.576,3.676-1.152,7.353-1.772,11.03c-0.133,0.93-0.266,1.816-0.443,2.746c-0.266,1.595-0.531,3.234-0.842,4.828
						c-0.177,1.063-0.354,2.126-0.531,3.145c-1.24,7.088-2.569,14.131-3.987,21.041c-0.177,0.842-0.354,1.684-0.487,2.525
						c-0.753,3.721-1.55,7.397-2.303,11.03c-1.462,6.556-2.924,13.067-4.474,19.491c-0.842,3.588-1.728,7.176-2.658,10.72
						c-0.974,3.853-1.993,7.663-3.012,11.472c-0.354,1.373-0.753,2.747-1.107,4.076c-2.303,8.327-4.695,16.523-7.22,24.584
						c0,0,0,0.044-0.044,0.089c-1.196,3.854-2.436,7.663-3.721,11.473c-4.518,13.644-9.391,26.844-14.574,39.601
						c-1.24,3.057-2.481,6.069-3.765,9.037c-0.443,1.063-0.886,2.082-1.329,3.145c-1.551,3.5-3.056,6.955-4.651,10.366
						c-3.411,7.486-6.955,14.751-10.676,21.883c-0.177,0.399-0.398,0.842-0.62,1.24c-1.639,3.145-3.278,6.29-4.961,9.346
						c-2.259,4.076-4.518,8.062-6.822,12.005c-1.373,2.347-2.746,4.651-4.164,6.954c-0.487,0.798-0.974,1.55-1.462,2.347
						c0,0.044-0.044,0.044-0.044,0.089c-5.094,8.24-10.365,16.125-15.858,23.744c-8.549,11.871-17.586,22.946-27.065,33.267
						c-11.739,12.713-28.439,16.567-43.411,12.757c-12.536-3.145-23.832-11.65-29.901-24.806
						c-375.948-809.838-1111.633-837.302-1605.677-1127.669c-175.682,12.713-320.489,5.36-343.789-80.886
						c-0.31-1.285-0.665-2.525-0.93-3.81c-0.31-1.285-0.576-2.569-0.797-3.898c-1.329-9.524-2.038-18.871-2.17-28.04
						c-0.089-4.297-0.044-8.549,0.089-12.801c0.088-2.038,0.177-4.076,0.31-6.114c0.266-4.916,0.709-9.789,1.24-14.618
						c0.221-1.949,0.443-3.898,0.709-5.803c0.31-2.392,0.664-4.74,1.019-7.088c0.133-0.841,0.266-1.727,0.398-2.569
						c0.266-1.462,0.487-2.924,0.753-4.341c0.398-2.348,0.841-4.695,1.329-6.999c0.354-1.861,0.753-3.677,1.152-5.537
						c1.949-9.17,4.164-18.029,6.556-26.667c1.019-3.766,2.082-7.531,3.145-11.207c0.709-2.392,1.373-4.696,2.082-6.999
						c0.576-1.949,1.196-3.898,1.772-5.847c2.171-7.354,4.341-14.441,6.379-21.262c0.443-1.373,0.797-2.703,1.196-4.031
						c1.152-3.987,2.215-7.885,3.234-11.694c3.898-14.663,6.423-27.996,6.246-39.867H840.045c-45.449,0-90.587-10.72-130.189-33.09
						c-37.298-21.041-62.547-47.575-75.526-75.925c-0.089-0.133-0.133-0.31-0.221-0.443c-0.753-1.728-1.506-3.5-2.215-5.227
						c-0.753-1.905-1.462-3.809-2.126-5.714c-1.329-3.81-2.392-7.664-3.234-11.518c-0.443-1.904-0.797-3.809-1.151-5.714v-0.133
						c-2.924-16.965-1.595-34.108,3.942-50.764c0.399-1.063,0.753-2.171,1.152-3.278c8.372-23.079,24.895-45.005,49.701-63.876
						c17.143-13.112,38.272-24.718,63.389-34.153c2.835-1.064,5.67-2.127,8.594-3.101c2.924-1.019,5.891-1.994,8.904-2.968
						c3.411-1.063,6.866-2.126,10.366-3.101c2.614-0.753,5.271-1.462,7.929-2.17c0.133-0.044,0.266-0.089,0.399-0.089
						c3.234-0.841,6.511-1.683,9.834-2.437c2.746-0.664,5.537-1.285,8.372-1.86c0.576-0.133,1.152-0.266,1.728-0.355
						c3.367-0.708,6.733-1.373,10.188-2.038h0.221c1.595-0.31,3.234-0.576,4.829-0.886c7.575-1.285,15.327-2.437,23.345-3.411
						c2.348-0.31,4.74-0.576,7.132-0.841c4.784-0.532,9.657-1.019,14.618-1.418c22.148-349.946,215.062-618.475,757.479-602.439
						c5.316,0.221,10.587,0.487,15.858,0.797c3.012,0.133,5.98,0.31,8.992,0.532c3.145,0.177,6.29,0.399,9.391,0.62
						c1.24,0.044,2.481,0.133,3.721,0.266c8.328,0.576,16.656,1.284,24.895,2.037c5.493,0.487,10.986,1.063,16.434,1.595
						c15.238,1.595,30.343,3.411,45.316,5.537c98.339,13.821,191.363,38.582,279.115,72.647c0,0.044,0.044,0.044,0.044,0.044
						c0.266,0.089,0.576,0.221,0.842,0.31c5.271,2.082,10.498,4.164,15.725,6.246c1.285,0.531,2.569,1.063,3.81,1.551
						c4.297,1.772,8.549,3.544,12.802,5.316c8.638,3.632,17.187,7.353,25.692,11.163c3.189,1.417,6.379,2.879,9.524,4.297
						c4.385,2.037,8.771,4.075,13.156,6.113c5.537,2.613,10.986,5.271,16.479,7.929c4.651,2.259,9.258,4.563,13.865,6.866
						c16.656,8.417,33.09,17.143,49.303,26.18c4.607,2.569,9.214,5.183,13.776,7.84c10.631,6.069,21.129,12.315,31.54,18.693
						c5.05,3.056,10.011,6.157,15.016,9.302c7.22,4.563,14.441,9.169,21.617,13.909c4.253,2.791,8.461,5.582,12.669,8.417
						c6.999,4.695,13.998,9.479,20.908,14.308c5.139,3.588,10.277,7.22,15.371,10.897c5.581,3.986,11.118,8.062,16.655,12.137
						c0,0,0,0,0.044,0.044c5.405,3.987,10.764,8.018,16.08,12.093c6.866,5.227,13.688,10.498,20.465,15.902
						c3.101,2.437,6.157,4.873,9.214,7.354c18.384,14.751,36.412,29.989,54.087,45.67c3.854,3.367,7.708,6.777,11.517,10.233
						c6.246,5.67,12.447,11.34,18.649,17.143c2.968,2.746,5.936,5.493,8.859,8.328c2.303,2.126,4.607,4.297,6.866,6.556
						c1.816,1.683,3.632,3.455,5.448,5.183c2.835,2.746,5.626,5.493,8.461,8.283c9.037,8.859,17.985,17.852,26.844,26.932
						c4.474,4.607,8.904,9.214,13.333,13.865c10.233,10.764,20.333,21.706,30.299,32.735c4.297,4.784,8.594,9.568,12.802,14.397
						c3.633,4.075,7.176,8.151,10.72,12.27c5.537,6.379,11.03,12.802,16.434,19.269c4.164,4.917,8.284,9.878,12.359,14.84
						c1.063,1.329,2.17,2.613,3.234,3.942c3.632,4.474,7.265,8.904,10.853,13.422c4.297,5.36,8.594,10.72,12.846,16.168
						c0.044,0.089,0.133,0.177,0.221,0.266c4.208,5.404,8.46,10.897,12.669,16.39c4.208,5.493,8.417,11.03,12.58,16.567v0.044
						c4.164,5.581,8.328,11.163,12.403,16.789c3.898,5.315,7.752,10.631,11.606,15.991c16.434,22.946,32.381,46.291,47.796,69.945
						c3.81,5.803,7.575,11.695,11.34,17.542c4.12,6.467,8.195,12.935,12.226,19.402c3.101,4.961,6.202,9.967,9.258,15.017
						c13.998,22.857,27.552,46.025,40.62,69.369c2.835,5.005,5.626,10.011,8.372,15.061c0.089,0.089,0.133,0.222,0.177,0.355
						c2.436,4.385,4.873,8.771,7.22,13.201c3.677,6.733,7.265,13.511,10.853,20.288c2.348,4.43,4.696,8.904,6.999,13.378
						c6.113,11.739,12.093,23.566,17.985,35.393c2.791,5.67,5.582,11.34,8.328,17.01c2.348,4.784,4.651,9.568,6.955,14.352
						c1.727,3.588,3.411,7.221,5.094,10.809c2.215,4.695,4.43,9.347,6.6,14.042c2.259,4.873,4.474,9.745,6.689,14.618
						c9.169,20.155,18.029,40.399,26.534,60.732c2.525,5.891,4.961,11.738,7.353,17.63c2.171,5.271,4.341,10.586,6.467,15.858
						c2.968,7.398,5.936,14.839,8.815,22.281c4.518,11.561,8.948,23.123,13.245,34.684c3.278,8.726,6.467,17.497,9.613,26.268
						c1.86,5.139,3.677,10.277,5.493,15.46c0.044,0.088,0.089,0.221,0.133,0.354c2.215,6.334,4.43,12.669,6.6,19.048
						c2.171,6.378,4.341,12.801,6.467,19.18c1.639,4.961,3.278,9.922,4.873,14.839c3.987,12.182,7.841,24.408,11.562,36.589
						c1.594,5.094,3.145,10.189,4.651,15.327c2.924,9.746,5.759,19.447,8.549,29.148c1.816,6.423,3.632,12.802,5.404,19.18
						c4.651,16.877,9.081,33.71,13.333,50.499c1.284,5.05,2.525,10.144,3.765,15.194c1.196,4.784,2.348,9.613,3.5,14.396
						c10.41,43.766,19.402,87.221,26.933,130.101c2.082,11.738,4.031,23.433,5.847,35.127c1.063,6.733,2.082,13.422,3.056,20.067
						c0.797,5.182,1.55,10.322,2.259,15.415c0.93,6.689,1.816,13.333,2.702,19.934c0.487,3.721,0.93,7.398,1.418,11.074
						c0.31,2.702,0.664,5.404,0.975,8.107c0.221,1.727,0.398,3.411,0.62,5.094c0.443,3.898,0.886,7.841,1.329,11.739
						c0.665,5.98,1.329,12.005,1.905,17.984c0.531,5.227,1.063,10.455,1.55,15.637c0.399,4.208,0.753,8.372,1.107,12.492
						c0.399,4.518,0.753,8.992,1.107,13.467c0.443,5.448,0.842,10.897,1.24,16.301c0.531,7.619,1.019,15.194,1.417,22.724
						c0.443,6.91,0.753,13.776,1.063,20.643c0.177,3.189,0.31,6.423,0.398,9.612c0.177,3.544,0.31,7.044,0.399,10.543
						c0.133,3.543,0.221,7.042,0.31,10.498c0.133,4.031,0.221,8.018,0.266,12.004c0.044,1.418,0.088,2.791,0.088,4.164
						c0.089,3.81,0.133,7.62,0.133,11.384C3097.996,2501.208,3097.996,2509.358,3097.952,2517.42z"/>
				</g>
				<g>
					<path style="fill:#FFFFFF;" d="M2911.993,3025.684c-12.536-3.145-23.832-11.65-29.901-24.806
						c-375.948-809.838-1111.633-837.302-1605.677-1127.669c-180.776,13.067-328.861,4.917-345.517-88.594
						c-0.354-2.437-0.62-4.873-0.886-7.265c-0.221-1.772-0.354-3.499-0.487-5.227c-0.089-0.664-0.133-1.373-0.221-2.082
						c-0.133-2.171-0.266-4.385-0.354-6.556c-0.133-2.304-0.177-4.607-0.221-6.911c-1.506-80.576,38.361-147.818,37.608-193.445
						H957.3v-0.044l177.365-22.104c71.23-38.715,123.013-90.587,166.468-148.084c320.799-144.276,546.714,298.694,847.933,427.156
						l249.569,239.956l341.042,327.886c2.746,4.519,5.493,8.992,8.195,13.555c84.651,141.706,148.041,299.094,162.171,492.804
						C2913.1,2936.292,2913.854,2980.014,2911.993,3025.684z"/>
				</g>
				<g>
					<path style="fill:#D6E8F2;" d="M949.739,1638.124c8.266-7.698,17.307-15.02,28.044-18.524s23.549-2.523,31.962,5.013
						c4.867-21.461,13.54-42.053,25.493-60.529c-25.401,0.26-50.796,1.111-76.157,2.552c-5.614,19.549-9.582,39.571-11.847,59.784
						c-0.692,6.173-2.618,13.933-8.761,14.856"/>
				</g>
				<g>
					<path style="fill:#D6E8F2;" d="M2747.873,2401.451c-2.702-4.563-5.448-9.037-8.195-13.555l-341.042-327.886
						c6.423,2.614,12.757,5.493,18.915,8.727c27.597,14.44,51.252,35.216,74.596,55.814
						c79.292,69.856,158.628,139.757,237.919,209.614c7.265,6.423,14.751,13.112,18.649,21.971
						C2754.872,2370.221,2750.708,2386.168,2747.873,2401.451z"/>
				</g>
				<g>
					<path style="fill:#83AAC4;" d="M2982.469,2979.659c-8.549,11.871-17.586,22.946-27.065,33.267
						c-11.739,12.713-28.439,16.567-43.411,12.757c1.861-45.67,1.107-89.391-1.949-131.429c1.285,6.024,2.658,12.049,4.12,18.029
						c4.208,17.275,9.48,35.172,21.706,48.106C2947.785,2973.059,2964.884,2979.039,2982.469,2979.659z"/>
				</g>
				<g>
					<path style="fill:#D6E8F2;" d="M2911.993,3025.684c-12.536-3.145-23.832-11.65-29.901-24.806
						c-375.948-809.838-1111.633-837.302-1605.677-1127.669c-180.776,13.067-328.861,4.917-345.517-88.594
						c-0.354-2.437-0.62-4.873-0.886-7.265c-0.221-1.772-0.354-3.499-0.487-5.227c-0.089-0.664-0.133-1.373-0.221-2.082
						c-0.133-2.171-0.266-4.385-0.354-6.556c-0.133-2.304-0.177-4.607-0.221-6.911c12.093,42.747,63.478,61.927,108.173,62.193
						c71.495,0.488,142.503-31.584,189.458-85.538c50.056-57.497,77.342-140.82,147.465-170.809
						c32.337-13.865,69.192-13.51,103.699-6.821c105.825,20.465,192.869,95.858,295.505,128.771
						c85.36,27.376,183.788,26.667,253.024,83.633c36.457,30.034,59.845,72.559,88.417,110.167
						c54.751,72.159,130.897,127.885,216.258,158.317c22.547,8.018,45.847,14.397,67.907,23.521l341.042,327.886
						c2.746,4.519,5.493,8.992,8.195,13.555c-0.177,1.063-0.398,2.126-0.576,3.189c-18.472,107.819,73.755,199.248,116.058,300.156
						c25.16,60.111,32.691,125.715,46.689,189.458C2913.1,2936.292,2913.854,2980.014,2911.993,3025.684z"/>
				</g>
				<g>
					<path style="fill:#390075;" d="M1294.134,1399.231c-12.182,75.482-45.759,152.338-97.896,215.062
						c-39.601,47.752-90.011,87.354-149.768,111.894c-12.714,5.182-27.553,4.075-38.45-4.342
						c-11.916-9.169-13.555-23.344-9.967-40.842c6.29-31.584,29.413-74.021,39.159-117.874
						C1140.246,1541.779,1225.429,1486.231,1294.134,1399.231z"/>
				</g>
				<g>
					<path style="fill:#FF67A0;" d="M1196.238,1614.293c-39.601,47.752-90.011,87.354-149.768,111.894
						c-12.714,5.182-27.553,4.075-38.45-4.342c-11.916-9.169-13.555-23.344-9.967-40.842c12.049-19.18,29.635-37.519,51.739-52.492
						C1102.461,1592.853,1163.369,1588.069,1196.238,1614.293z"/>
				</g>
				<g style="opacity:0.6;">
					<g>
						<path style="fill:#FFFFFF;" d="M634.315,1454.133c-4.078-23.482-6.948-63.878,13.082-103.628
							c8.034-15.945,19.022-30.245,32.335-42.666C626.206,1348.895,611.38,1404.31,634.315,1454.133z"/>
					</g>
					<g>
						<path style="fill:#FFFFFF;" d="M810.079,1255.183c-51.948,3.631-98.067,22.538-130.347,52.655
							C710.401,1284.314,753.736,1265.496,810.079,1255.183z"/>
					</g>
					<g>
						<path style="fill:#FFFFFF;" d="M3097.952,2517.42c0,2.791-0.044,5.582-0.089,8.328c-0.044,5.227-0.133,10.454-0.266,15.636
							c-0.133,5.626-0.266,11.252-0.487,16.833c-0.044,1.284-0.089,2.614-0.133,3.898c-0.133,3.854-0.31,7.708-0.487,11.517
							c-0.089,2.126-0.177,4.252-0.31,6.335c-0.443,8.904-0.974,17.719-1.594,26.445c0,0.398-0.044,0.841-0.089,1.24
							c-0.399,5.404-0.797,10.808-1.24,16.168c-0.399,4.607-0.798,9.17-1.24,13.733c-1.152,11.65-2.436,23.123-3.854,34.463
							c-0.443,3.677-0.93,7.265-1.417,10.897c-0.221,1.638-0.443,3.278-0.664,4.873c-0.665,4.651-1.374,9.258-2.082,13.865
							c-0.576,3.676-1.152,7.353-1.772,11.03c-0.133,0.93-0.266,1.816-0.443,2.746c-0.266,1.595-0.531,3.234-0.842,4.828
							c-0.177,1.063-0.354,2.126-0.531,3.145c-1.24,7.088-2.569,14.131-3.987,21.041c-0.177,0.842-0.354,1.684-0.487,2.525
							c-0.753,3.721-1.55,7.397-2.303,11.03c-1.462,6.556-2.924,13.067-4.474,19.491c-0.842,3.588-1.728,7.176-2.658,10.72
							c-0.974,3.853-1.993,7.663-3.012,11.472c-0.354,1.373-0.753,2.747-1.107,4.076c-2.303,8.327-4.695,16.523-7.22,24.584
							c0,0,0,0.044-0.044,0.089c-1.196,3.854-2.436,7.663-3.721,11.473c-4.518,13.644-9.391,26.844-14.574,39.601
							c-1.24,3.057-2.481,6.069-3.765,9.037c-0.443,1.063-0.886,2.082-1.329,3.145c-1.551,3.5-3.056,6.955-4.651,10.366
							c-3.411,7.442-6.955,14.751-10.676,21.883c-0.177,0.399-0.398,0.842-0.62,1.24c-1.639,3.145-3.278,6.29-4.961,9.346
							c-2.259,4.076-4.518,8.062-6.822,12.005c-1.373,2.347-2.746,4.651-4.164,6.954c-0.487,0.798-0.974,1.55-1.462,2.347
							c236.192-484.697-76.412-1762.09-913.537-2154.561c2.17,8.018,2.215,15.681-0.177,22.768
							c-14.707,43.633-114.951,49.214-223.922,12.492c-108.439-36.545-184.63-101.263-170.853-144.851
							c-24.851-2.569-50.011-4.518-75.527-5.626c-393.136-17.276-586.226,183.744-586.226,183.744
							c-126.69,133.91-152.736,302.77-159.248,387.687c-20.111-2.968-39.823-3.633-58.782-2.304c1.595-0.31,3.234-0.576,4.829-0.886
							c7.575-1.285,15.327-2.437,23.345-3.411c2.348-0.31,4.74-0.576,7.132-0.841c4.784-0.532,9.657-1.019,14.618-1.418
							c22.148-349.946,215.062-618.475,757.479-602.439c5.316,0.221,10.587,0.487,15.858,0.797c3.012,0.133,5.98,0.31,8.992,0.532
							c3.145,0.177,6.29,0.399,9.391,0.62c1.24,0.044,2.481,0.133,3.721,0.266c8.328,0.576,16.656,1.284,24.895,2.037
							c5.493,0.487,10.986,1.063,16.434,1.595c15.15,1.639,30.166,3.499,45.094,5.581c0.088,0,0.133-0.044,0.221-0.044
							c98.339,13.821,191.363,38.582,279.115,72.647c0,0.044,0.044,0.044,0.044,0.044c0.266,0.089,0.576,0.221,0.842,0.31
							c5.271,2.082,10.498,4.164,15.725,6.246c1.285,0.531,2.569,1.063,3.81,1.551c4.297,1.772,8.549,3.544,12.802,5.316
							c8.638,3.632,17.187,7.353,25.692,11.163c3.189,1.417,6.379,2.879,9.524,4.297c4.385,2.037,8.771,4.075,13.156,6.113
							c5.537,2.613,10.986,5.271,16.479,7.929c4.651,2.259,9.258,4.563,13.865,6.866c16.656,8.417,33.09,17.143,49.303,26.18
							c4.607,2.569,9.214,5.183,13.776,7.84c10.631,6.069,21.129,12.315,31.54,18.693c5.05,3.056,10.011,6.157,15.016,9.302
							c7.22,4.563,14.441,9.169,21.617,13.909c4.253,2.791,8.461,5.582,12.669,8.417c6.999,4.695,13.998,9.479,20.908,14.308
							c5.139,3.588,10.277,7.22,15.371,10.897c5.581,3.986,11.118,8.062,16.655,12.137c0,0,0,0,0.044,0.044
							c5.405,3.987,10.764,8.018,16.08,12.093c6.866,5.227,13.688,10.498,20.465,15.902c3.101,2.437,6.157,4.873,9.214,7.354
							c18.384,14.751,36.412,29.989,54.087,45.67c3.854,3.367,7.708,6.777,11.517,10.233c6.246,5.67,12.447,11.34,18.649,17.143
							c2.968,2.746,5.936,5.493,8.859,8.328c2.303,2.126,4.607,4.297,6.866,6.556c1.816,1.683,3.632,3.455,5.448,5.183
							c2.835,2.746,5.626,5.493,8.461,8.283c9.037,8.859,17.985,17.852,26.844,26.932c4.474,4.607,8.904,9.214,13.333,13.865
							c10.233,10.764,20.333,21.706,30.299,32.735c4.297,4.784,8.594,9.568,12.802,14.397c3.633,4.075,7.176,8.151,10.72,12.27
							c5.537,6.379,11.03,12.802,16.434,19.269c4.164,4.917,8.284,9.878,12.359,14.84c1.063,1.329,2.17,2.613,3.234,3.942
							c3.632,4.474,7.265,8.904,10.853,13.422c4.297,5.36,8.594,10.72,12.846,16.168c0.044,0.089,0.133,0.177,0.221,0.266
							c4.208,5.404,8.46,10.897,12.669,16.39c4.208,5.493,8.417,11.03,12.58,16.567v0.044c4.164,5.581,8.328,11.163,12.403,16.789
							c3.898,5.315,7.752,10.631,11.606,15.991c16.434,22.946,32.381,46.291,47.796,69.945c3.81,5.803,7.575,11.695,11.34,17.542
							c4.12,6.467,8.195,12.935,12.226,19.402c3.101,4.961,6.202,9.967,9.258,15.017c13.998,22.857,27.552,46.025,40.62,69.369
							c2.835,5.005,5.626,10.011,8.372,15.061c0.089,0.089,0.133,0.222,0.177,0.355c2.436,4.385,4.873,8.771,7.22,13.201
							c3.677,6.733,7.265,13.511,10.853,20.288c2.348,4.43,4.696,8.904,6.999,13.378c6.113,11.739,12.093,23.566,17.985,35.393
							c2.791,5.67,5.582,11.34,8.328,17.01c2.348,4.784,4.651,9.568,6.955,14.352c1.727,3.588,3.411,7.221,5.094,10.809
							c2.215,4.695,4.43,9.347,6.6,14.042c2.259,4.873,4.474,9.745,6.689,14.618c9.169,20.155,18.029,40.399,26.534,60.732
							c2.525,5.891,4.961,11.738,7.353,17.63c2.171,5.271,4.341,10.586,6.467,15.858c2.968,7.398,5.936,14.839,8.815,22.281
							c4.518,11.561,8.948,23.123,13.245,34.684c3.278,8.726,6.467,17.497,9.613,26.268c1.86,5.139,3.677,10.277,5.493,15.46
							c0.044,0.088,0.089,0.221,0.133,0.354c2.215,6.334,4.43,12.669,6.6,19.048c2.171,6.378,4.341,12.801,6.467,19.18
							c1.639,4.961,3.278,9.922,4.873,14.839c3.987,12.182,7.841,24.408,11.562,36.589c1.594,5.094,3.145,10.233,4.651,15.327
							c2.924,9.746,5.759,19.447,8.549,29.148c1.816,6.423,3.632,12.802,5.404,19.18c4.651,16.877,9.081,33.71,13.333,50.499
							c1.284,5.05,2.525,10.144,3.765,15.194c1.196,4.784,2.348,9.613,3.5,14.396c10.41,43.766,19.402,87.221,26.933,130.101
							c2.082,11.738,4.031,23.433,5.847,35.127c1.063,6.733,2.082,13.422,3.056,20.067c0.797,5.182,1.55,10.322,2.259,15.415
							c0.93,6.689,1.816,13.333,2.702,19.934c0.487,3.721,0.93,7.398,1.418,11.074c0.31,2.702,0.664,5.404,0.975,8.107
							c0.221,1.727,0.398,3.411,0.62,5.094c0.443,3.898,0.886,7.841,1.329,11.739c0.665,5.98,1.329,12.005,1.905,17.984
							c0.531,5.227,1.063,10.455,1.55,15.637c0.399,4.208,0.753,8.372,1.107,12.492c0.399,4.518,0.753,8.992,1.107,13.467
							c0.443,5.448,0.842,10.897,1.24,16.301c0.531,7.619,1.019,15.194,1.417,22.724c0.443,6.91,0.753,13.776,1.063,20.643
							c0.177,3.189,0.31,6.423,0.398,9.612c0.177,3.544,0.31,7.044,0.399,10.543c0.133,3.543,0.221,7.042,0.31,10.498
							c0.133,4.031,0.221,8.018,0.266,12.004c0.044,1.418,0.088,2.791,0.088,4.164c0.089,3.81,0.133,7.62,0.133,11.384
							C3097.996,2501.208,3097.996,2509.358,3097.952,2517.42z"/>
					</g>
					<g>
						<path style="fill:#FFFFFF;" d="M960.095,1602.997c-10.972,41.665-32.482,93.956-31.367,153.577
							c0.133,9.17,0.842,18.516,2.17,28.04c0.939,5.271,2.354,10.233,4.11,14.974c-0.03-1.043-0.127-2.108-0.142-3.147
							c-1.486-80.576,37.843-147.818,37.1-193.445H960.095z"/>
					</g>
				</g>
				<g>
					<g>
						<g>
							
								<ellipse transform="matrix(0.9955 -0.0945 0.0945 0.9955 -93.7985 137.6292)" style="fill:#390075;" cx="1405.864" cy="1058.917" rx="115.94" ry="156.3"/>
						</g>
					</g>
					<g>
						<g>
							
								<ellipse transform="matrix(0.9955 -0.0945 0.0945 0.9955 -89.9777 134.0552)" style="fill:#FFFFFF;" cx="1370.217" cy="1016.912" rx="37.801" ry="55.864"/>
						</g>
					</g>
					<g style="opacity:0.2;">
						<g>
							
								<ellipse transform="matrix(0.9955 -0.0945 0.0945 0.9955 -98.1304 142.3543)" style="fill:#FFFFFF;" cx="1453.904" cy="1107.232" rx="20.936" ry="37.806"/>
						</g>
					</g>
				</g>
				<g>
					<path style="fill:#83AAC4;" d="M640.393,1375.527c-11.168,20.251-6.426,46.411,6.86,65.368
						c13.286,18.957,33.754,31.788,54.778,41.76c89.687,42.539,193.878,40.543,292.913,31.47
						c96.66-8.855,200.066-27.116,268.181-95.55c-23.62,56.519-77.38,96.635-135.572,117.261
						c-58.191,20.626-121.008,24.134-182.809,25.305c-68.543,1.298-138.23-0.196-203.756-20.137
						c-33.109-10.076-65.727-25.495-88.461-51.356c-22.734-25.861-33.708-63.809-20.529-95.506"/>
				</g>
				<g>
					<g>
						<path style="fill:#B2C5D8;" d="M2485.723,1846.631c106.909,64.145,89.968,297.551,275.98,453.123
							c16.557,13.847,21.577,37.512,11.3,56.492c-5.823,10.754-14.299,19.757-25.382,27.042
							c-16.472,10.828-36.156,15.562-55.864,15.171c-308.296-6.111-816.291-445.697-682.226-726.801L2485.723,1846.631z"/>
					</g>
					<g>
						<path style="fill:#83AAC4;" d="M2760.91,2330.131c-16.472,10.828-36.156,15.562-55.864,15.171
							c-283.935-5.627-737.234-378.929-702.373-657.484c-107.955,281.461,386.628,704.646,689.083,710.64
							c19.708,0.391,39.393-4.343,55.865-15.171c11.083-7.285,19.559-16.288,25.382-27.042c6.488-11.983,6.865-25.828,2.105-37.897
							C2770.976,2322.673,2766.263,2326.613,2760.91,2330.131z"/>
					</g>
					<g>
						<path style="fill:#390075;" d="M2009.531,1671.656c-12.079,76.217-14.706,142.005,15.148,214.697
							c56.199,137.447,165.535,246.751,282.331,335.328c103.892,75.359,221.002,140.239,349.205,158.658
							c32.087,4.458,69.762,6.429,93.768-18.198c4.527-4.477,8.332-9.673,11.016-15.39c5.133-11.624,1.747-26.379-7.835-34.819
							c-22.613-19.541-44.291-41.332-63.136-64.551c-48.697-59.935-81.116-131.066-107.268-202.744
							c-13.211-35.464-25.142-71.182-39.974-104.888c-15.177-34.131-30.185-65.914-57.063-93.12
							c18.625,5.806,34.924,18.762,47.747,33.708c36.857,44.94,51.306,103.382,72.848,155.39
							c26.38,69.206,58.109,136.818,105.575,193.704c11.534,13.477,24.484,27.724,37.59,39.778
							c10.497,10.839,23.906,18.875,32.734,31.281c34.474,51.368-17.65,105.199-69.202,111.774
							c-21.034,3.082-40.146,0.821-60.534-1.261c-57.726-6.948-113.778-24.902-166.79-47.715
							c-173.905-78.846-329.425-203.646-434.572-363.78C1996.142,1914.542,1932.553,1759.508,2009.531,1671.656L2009.531,1671.656z"
							/>
					</g>
				</g>
				<g>
					<path style="fill:#390075;" d="M2923.015,3040.343c-4.753,0-9.553-0.586-14.294-1.792
						c-17.139-4.302-31.252-16.006-38.682-32.109c-268.843-579.121-732.603-758.413-1141.77-916.602
						c-163.096-63.052-317.214-122.637-455.012-203.096c-165.591,11.709-336.142,8.477-355.427-99.8
						c-8.66-60.571,7.688-114.414,20.823-157.681c6.045-19.907,11.457-37.739,13.528-52.857H840.044
						c-49.126,0-96.401-12.036-136.716-34.81c-69.541-39.238-103.193-98.667-90.01-158.975
						c13.313-60.908,81.914-130.434,234.236-146.172c13.984-188.389,76.917-335.068,187.139-436.079
						c129.556-118.726,325.747-175.073,583.203-167.456c305.974,13.252,583.057,128.467,823.733,342.451
						c205.181,182.422,377.554,433.638,498.481,726.484c105.127,254.58,165.796,529.048,170.833,772.852
						c5.068,245.303-46.704,439.639-145.776,547.217c-0.002,0-0.007,0.005-0.01,0.01
						C2954.173,3033.829,2938.845,3040.343,2923.015,3040.343z M1276.416,1859.933c2.358,0,4.682,0.63,6.726,1.831
						c136.838,80.425,291.238,140.117,454.702,203.315c211.787,81.88,430.786,166.548,632.964,304.99
						c229.929,157.446,401.108,361.958,523.325,625.22c4.058,8.799,11.741,15.176,21.089,17.52
						c11.277,2.866,22.632-0.454,30.417-8.877l0,0c94.407-102.51,143.687-290.264,138.762-528.677
						c-4.971-240.591-64.929-511.66-168.828-763.271c-125.952-305.01-504.624-1018.14-1298.645-1052.539
						c-467.788-13.852-718.005,184.678-743.66,590.015c-0.415,6.567-5.583,11.841-12.144,12.388
						c-145.869,12.178-210.256,73.306-221.873,126.45c-10.562,48.306,18.271,96.973,77.126,130.181
						c36.345,20.532,79.104,31.377,123.665,31.377h126.292c7.246,0,13.152,5.81,13.271,13.057
						c0.359,21.66-7.014,45.947-15.552,74.067c-13.018,42.876-27.771,91.47-20.017,145.762
						c15.774,88.496,185.41,87.778,331.421,77.232C1275.779,1859.948,1276.096,1859.933,1276.416,1859.933z M2955.403,3012.926
						h0.049H2955.403z"/>
				</g>
				<g>
					<path style="fill:#390075;" d="M816.673,1240.556c63.053-8.766,127.115-2.341,189.531,8.066
						c-61.231,5.218-124.696,10.923-185.781,18.217C803.238,1268.646,799.656,1243.649,816.673,1240.556L816.673,1240.556z"/>
				</g>
				<g>
					<circle style="fill:#FF67A0;" cx="1480.181" cy="1363.794" r="84.164"/>
				</g>
				<g>
					<path style="fill:#390075;" d="M1030.667,1742.584c-11.172,0-22.024-3.482-30.762-10.234
						c-22.395-17.231-16.721-44.917-14.856-54.014c3.201-16.069,10.273-34.253,17.761-53.506
						c8.135-20.918,16.548-42.554,21.443-64.58c1.135-5.098,5.151-9.057,10.266-10.117c98.01-20.313,181.853-73.852,249.197-159.131
						c3.745-4.741,10.227-6.353,15.759-3.926c5.535,2.436,8.726,8.301,7.764,14.267c-12.935,80.156-48.73,158.799-100.793,221.436
						c-42.827,51.641-96.406,91.651-154.932,115.689C1044.732,1741.232,1037.635,1742.584,1030.667,1742.584z M1048.169,1574.337
						c-5.447,21.113-13.455,41.699-20.618,60.117c-7.056,18.14-13.718,35.273-16.482,49.141
						c-3.721,18.164,0.464,24.204,5.046,27.734c6.75,5.21,16.46,6.187,25.344,2.564c54.487-22.373,104.487-59.751,144.561-108.071
						c38.091-45.83,66.938-100.728,83.647-158.325C1206.944,1512.604,1132.661,1555.167,1048.169,1574.337z"/>
				</g>
				<g>
					<path style="fill:#390075;" d="M1240.977,1372.653c52.428-21.795,107.552,30.608,97.453,84.166
						c-15.191-17.903-26.016-35.72-42.175-50.816C1280.295,1390.662,1262.076,1382.571,1240.977,1372.653L1240.977,1372.653z"/>
				</g>
				<g>
					<path style="fill:#390075;" d="M947.129,1576.442c-2.627,0-5.251-0.01-7.883-0.039c-7.331-0.068-13.215-6.069-13.147-13.398
						c0.071-7.285,6.001-13.149,13.272-13.149c0.044,0,0.085,0.005,0.129,0.005c47.766,0.488,94.763-3.374,139.536-11.387
						c7.236-1.299,14.114,3.516,15.405,10.728c1.292,7.217-3.513,14.116-10.727,15.405
						C1039.788,1572.467,993.875,1576.442,947.129,1576.442z"/>
				</g>
				<g>
					<path style="fill:#390075;" d="M1258.086,1861.173c29.928-2.185,59.745-3.223,89.204-10.113
						c-25.425,17.53-55.679,28.931-86.516,36.524c-7.156,1.76-14.385-2.612-16.145-9.768
						C1242.407,1869.236,1249.391,1861.082,1258.086,1861.173L1258.086,1861.173z"/>
				</g>
			</g>
		</g>
		<g>
			<path style="fill:#390075;" d="M3295.093,3562.145c-17.913,0-34.021-8.516-44.192-23.369
				c-43.215-63.11-117.795-102.549-189.919-140.693c-86.787-45.898-176.243-93.208-203.474-182.163
				c-114.666,91.235-199.255,44.053-268.059,5.679c-8.962-4.995-17.427-9.717-25.923-14.126
				c-31.196-16.177-68.804-18.276-103.167-5.747c-55.054,20.063-96.206,20.073-125.82,0.059
				c-23.857-16.143-32.039-47.949-19.036-73.979c62.351-124.858,142.686-212.925,238.774-261.753
				c57.639-29.292,122.473-45.005,193.11-46.841c-271.619-421.626-671.636-576.265-1025.427-713.047l-19.807-7.661l-97.993,76.86
				c-14.956,11.729-27.205,27.095-35.425,44.434c-45.652,96.255-96.011,160.347-153.953,195.942
				c-15.505,9.526-33.279,14.561-51.399,14.561c-29.656,0-57.151-13.159-75.432-36.104
				c-96.721-121.382-39.483-388.384-13.806-486.733c-1.68-0.962-3.359-1.924-5.034-2.891c-2.205,0.151-4.411,0.298-6.616,0.444
				c-1.76,0.249-3.569,0.356-5.31,0.352c-164.458,10.469-335.171,4.868-356.585-115.352c-0.034-0.2-0.066-0.396-0.095-0.596
				c-9.209-64.409,7.761-120.313,21.399-165.229c3.328-10.962,6.401-21.084,8.792-30.283h-90.649
				c-52.139,0-102.393-12.817-145.325-37.07c-76.584-43.213-113.408-109.736-98.501-177.949
				c6.37-29.141,40.811-126.362,216.748-155.435c0.164-0.034,0.325-0.068,0.479-0.098c0.249-0.044,0.498-0.088,0.75-0.122
				c0.107-0.015,0.327-0.044,0.51-0.068c5.52-0.889,11.057-1.699,16.567-2.422c16.431-186.069,80.852-331.782,191.597-433.271
				c133.052-121.934,333.445-179.873,595.542-172.046c306.682,13.281,584.634,127.505,826.467,339.512
				c128.979-4.717,271.292,17.685,401.66,63.262c161.042,56.299,284.856,141.846,339.695,234.712
				c16.682,28.237,14.89,63.125-4.565,88.872c-28.701,37.979-75.173,57.715-136.116,75.674
				c-12.344,3.638-23.821,10.195-33.193,18.975c-34.854,32.651-71.936,75.679-113.169,131.328
				c20.144,41.577,39.329,84.39,57.092,127.407c105.938,256.538,167.075,533.257,172.156,779.175
				c3.118,150.903-15.532,286.401-53.977,392.666c20.657,28.823,55.134,60.684,91.475,94.263
				c28.33,26.187,57.5,53.145,85.413,82.954c58.298,62.256,96.716,139.497,111.106,223.384
				c17.061,99.473,11.15,191.968-16.643,260.459c-7.571,18.657-24.712,31.587-44.734,33.75
				C3299.087,3562.037,3297.078,3562.145,3295.093,3562.145z M2868.325,3166.027c1.987,0,3.992,0.337,5.923,1.035
				c6.15,2.212,10.554,7.666,11.421,14.146c12.175,91.001,99.365,137.114,191.675,185.938
				c75.876,40.127,154.338,81.621,202.434,151.855c4.011,5.864,10.388,8.838,17.512,8.022c7.219-0.776,13.374-5.42,16.091-12.119
				c25.376-62.524,30.552-148.247,14.578-241.377c-13.228-77.119-48.552-148.135-102.156-205.376
				c-27.048-28.887-55.747-55.415-83.501-81.064c-41.138-38.018-79.883-73.818-102.08-108.188
				c-3.013-4.663-3.633-10.479-1.672-15.674c39.023-103.369,58.008-237.593,54.9-388.159
				c-4.995-241.685-65.195-513.911-169.514-766.538c-18.845-45.635-39.309-91.025-60.825-134.912
				c-2.864-5.845-2.251-12.788,1.589-18.037c45.049-61.563,85.522-108.892,123.733-144.688
				c13.342-12.495,29.673-21.836,47.229-27.007c54.299-15.996,95.159-32.866,118.083-63.203
				c10.867-14.38,11.792-33.994,2.354-49.971c-50.703-85.864-167.744-165.854-321.108-219.473
				c-128.655-44.971-269.155-66.611-395.637-61.05c-4.58,0.259-8.97-1.367-12.368-4.37
				c-236.909-209.551-509.38-322.402-809.846-335.415c-252.449-7.461-444.521,47.31-570.62,162.871
				c-106.799,97.876-167.869,240.688-181.511,424.473c-0.627,8.452-7.222,15.244-15.652,16.113
				c-9.795,1.011-19.402,2.29-29.368,3.911c-0.071,0.01-0.159,0.024-0.256,0.039c-0.017,0-0.034,0.005-0.051,0.01
				c-123.347,20.225-178.579,79.653-189.265,128.54c-11.453,52.402,19.019,104.736,81.511,140
				c37.7,21.294,82.002,32.549,128.12,32.549H940.23c2.427,0.024,4.661,0.034,6.899,0.034l5.051-0.034
				c5.056,0,9.863,2.188,13.186,5.996c3.325,3.809,4.839,8.872,4.153,13.877c-2.261,16.509-8.023,35.483-14.121,55.566
				c-12.612,41.543-28.298,93.213-20.288,149.814c16.997,93.53,180.242,95.22,320.601,86.226c0.613-0.039,1.23-0.044,1.848-0.019
				c0.627-0.112,1.216-0.186,1.853-0.225c4.207-0.278,8.413-0.562,12.617-0.854c3.503-0.249,7.017,0.571,10.059,2.349
				c6.958,4.067,13.992,8.042,21.035,12.002c6.997,3.935,10.42,12.119,8.306,19.863c-45.618,167.061-68.55,377.969,3.897,468.887
				c11.602,14.561,29.119,22.91,48.059,22.91c11.648,0,23.086-3.242,33.079-9.385c51.987-31.934,97.993-91.177,140.647-181.113
				c10.532-22.212,26.247-41.914,45.449-56.978l105.825-83.003c4.856-3.809,11.36-4.785,17.117-2.549l29.08,11.245
				c366.338,141.631,781.553,302.163,1059.475,754.136c3.374,5.483,3.462,12.383,0.227,17.949
				c-3.235,5.571-9.272,8.843-15.703,8.706c-77.295-2.505-147.432,11.934-208.445,42.944
				c-89.258,45.356-164.392,128.188-223.318,246.187c-5.19,10.396-2.041,23.013,7.332,29.355
				c19.646,13.281,50.474,11.982,94.226-3.95c43.545-15.879,91.392-13.115,131.27,7.559c8.967,4.658,17.654,9.497,26.851,14.629
				c69.939,39.004,142.258,79.341,249.941-20.347C2859.722,3167.638,2863.987,3166.027,2868.325,3166.027z M816.673,1240.558h0.049
				H816.673z"/>
		</g>
	</g>
</g>
</svg>
