<?xml version="1.0" encoding="utf-8"?>
<!-- Generator: Adobe Illustrator 27.5.0, SVG Export Plug-In . SVG Version: 6.00 Build 0)  -->
<svg version="1.1" id="Layer_1" xmlns="http://www.w3.org/2000/svg" xmlns:xlink="http://www.w3.org/1999/xlink" x="0px" y="0px"
	 viewBox="0 0 4000 4000" style="enable-background:new 0 0 4000 4000;" xml:space="preserve">
<g>
	<g>
		<g>
			<g>
				<g>
					<rect style="fill:#9D91FF;" width="4000" height="4000"/>
				</g>
			</g>
		</g>
	</g>
	<g>
		<g>
			<g>
				<g>
					<path style="fill:#FFAD40;" d="M1744.223,2721.208c0,0-520.133,211.236-696.558,61.174
						c-133.505-113.556-54.85-334.859-27.842-440.063c79.294-166.909,349.612,93.198,349.612,93.198l267.293-60.036l367.06-62.914
						L1744.223,2721.208z"/>
				</g>
			</g>
		</g>
		<g>
			<g>
				<g>
					<path style="fill:#FFAD40;" d="M2003.778,2312.584l-138.061,217.32l-121.48,191.297c0,0-520.155,211.256-696.56,61.181
						c-133.532-113.573-54.848-334.846-27.865-440.052c79.298-166.924,349.624,93.192,349.624,93.192l142.666-32.049l124.628-27.981
						L2003.778,2312.584z"/>
				</g>
			</g>
		</g>
		<g>
			<g>
				<g>
					<path style="fill:#C7CEE2;" d="M2003.792,2312.583l-138.061,217.32l-121.48,191.297c0,0-38.496,15.622-98.104,35.35
						c-159.478,52.852-470.029,135.067-598.456,25.831c-49.167-41.798-69.548-98.182-74.346-158.02
						c-8.253-102.711,29.439-215.554,46.481-282.032c79.297-166.924,349.623,93.192,349.623,93.192l142.666-32.049l124.628-27.981
						L2003.792,2312.583z"/>
				</g>
			</g>
		</g>
		<g>
			<g>
				<g>
					<path style="fill:#A3B0CE;" d="M1646.147,2756.55c-159.478,52.852-470.029,135.067-598.456,25.831
						c-49.167-41.798-69.548-98.182-74.346-158.02c27.865,52.968,78.837,114.456,165.888,117.181
						c137.216,4.337,212.1-107.316,212.1-107.316c15.813,54.771,86.321,76.15,170.801-19.153
						C1569.689,2561.415,1614.328,2654.875,1646.147,2756.55z"/>
				</g>
			</g>
		</g>
		<g>
			<g>
				<g>
					<path style="fill:#A3B0CE;" d="M2003.778,2312.584l-138.061,217.32c-163.24-33.469-289.785-92.425-353.615-126.431
						l124.628-27.981L2003.778,2312.584z"/>
				</g>
			</g>
		</g>
		<g>
			<g>
				<g>
					<path style="fill:#390176;" d="M1242.715,2850.061c-81.323,0-154.78-15.342-203.975-57.185
						c-127.178-108.174-73.433-303.589-41.323-420.344c3.345-12.173,6.45-23.452,9.063-33.638c0.22-0.857,0.523-1.689,0.903-2.485
						c16.577-34.897,42.08-55.713,75.796-61.868c105.474-19.285,259.097,116.96,290.371,145.933l260.161-58.435
						c0.229-0.051,0.459-0.095,0.688-0.137l367.061-62.915c7.534-1.296,14.619,3.752,15.908,11.252
						c1.284,7.498-3.755,14.619-11.25,15.906l-366.714,62.854l-266.953,59.961c-4.507,1.003-9.233-0.305-12.568-3.513
						c-1.689-1.628-170.361-162.39-271.768-143.799c-24.482,4.473-42.578,19.336-55.288,45.42
						c-2.578,9.976-5.596,20.959-8.848,32.769c-30.366,110.427-81.196,295.249,32.612,392.053
						c168.061,142.939,677.324-61.365,682.451-63.445c7.036-2.866,15.083,0.532,17.944,7.581c2.861,7.051-0.532,15.083-7.578,17.947
						C1733.721,2740.341,1460.147,2850.061,1242.715,2850.061z"/>
				</g>
			</g>
		</g>
		<g>
			<g>
				<g>
					<path style="fill:#D3D8E5;" d="M1984.985,2548.478c-88.313-9.335-169.202-27.784-239.434-49.173
						c30.32-2.867,56.413-2.095,75.56-1.029C1851.579,2499.93,1919.164,2512.683,1984.985,2548.478z"/>
				</g>
			</g>
		</g>
		<g>
			<g>
				<g>
					<path style="fill:#93B3C1;" d="M2293.584,2539.474c-284.38,48.769-536.235-26.645-685.26-90.15l154.354-148.548l492.684,46.894
						C2255.363,2347.67,2272.525,2425.987,2293.584,2539.474z"/>
				</g>
			</g>
		</g>
		<g>
			<g>
				<g>
					<path style="fill:#B4CEDC;" d="M1566.078,2490.009c-144.653,225.946-261.088,447.224-271.2,651.031
						c-9.682,195.16,215.112,336.651,483.868,353.491c138.347,8.669,578.049,9.804,590.709-297.993
						c7.053-296.45-114.096-848.872-114.096-848.872l-492.668-46.907L1566.078,2490.009z"/>
				</g>
			</g>
		</g>
		<g>
			<g>
				<g>
					<path style="fill:#B4CEDC;" d="M2369.438,3196.546c-4.336,105.88-59.242,175.192-135.023,220.212
						c-144.468,85.887-364.901,83.462-455.676,77.765c-268.76-16.832-493.53-158.323-483.864-353.472
						c7.387-148.952,71.554-307.202,161.999-469.788c33.333-59.905,70.231-120.433,109.188-181.256l196.618-189.231l492.684,46.894
						C2255.363,2347.67,2376.494,2900.075,2369.438,3196.546z"/>
				</g>
			</g>
		</g>
		<g>
			<g>
				<g>
					<path style="fill:#C7CEE2;" d="M2369.438,3196.546c-4.336,105.88-59.242,175.192-135.023,220.212
						c-144.468,85.887-364.901,83.462-455.676,77.765c-268.76-16.832-493.53-158.323-483.864-353.472
						c2.793-56.744,13.855-114.847,31.495-174.016c28.592-96.141,74.531-195.148,130.503-295.772
						c33.333-59.905,70.231-120.433,109.188-181.256l196.618-189.231l492.684,46.894c0,0,79.75,363.762,106.063,659.314
						C2367.526,3075.672,2370.761,3140.648,2369.438,3196.546z"/>
				</g>
			</g>
		</g>
		<g>
			<g>
				<g>
					<path style="fill:#A3B0CE;" d="M2293.584,2539.474c-284.38,48.769-536.235-26.645-685.26-90.15l154.354-148.548l492.684,46.894
						C2255.363,2347.67,2272.525,2425.987,2293.584,2539.474z"/>
				</g>
			</g>
		</g>
		<g>
			<g>
				<g>
					<path style="fill:#A3B0CE;" d="M2369.438,3196.546c-4.336,105.88-59.242,175.192-135.023,220.212
						c-144.468,85.887-364.901,83.462-455.676,77.765c-268.76-16.832-493.53-158.323-483.864-353.472
						c2.793-56.744,13.855-114.847,31.495-174.016c227.011,7.24,744.65,28.078,1035.057,39.948
						C2367.526,3075.672,2370.761,3140.648,2369.438,3196.546z"/>
				</g>
			</g>
		</g>
		<g>
			<g>
				<g>
					<path style="fill:#D3D8E5;" d="M2234.414,3416.759c-144.468,85.887-364.901,83.462-455.676,77.765
						c-268.76-16.832-493.53-158.323-483.864-353.472c0.183-3.822,0.404-7.644,0.698-11.466c0.184-3.16,0.441-6.321,0.698-9.518
						c0.037-0.147,0.037-0.257,0.037-0.368c0.258-3.124,0.552-6.284,0.882-9.408c0.478-4.851,1.029-9.702,1.617-14.553
						c0.294-2.499,0.625-5.035,0.956-7.534c1.507-11.062,3.271-22.198,5.292-33.333c0.661-3.602,1.359-7.203,2.095-10.805
						c0.735-3.785,1.507-7.534,2.315-11.282c0.772-3.528,1.543-7.056,2.352-10.584c0.846-3.675,1.691-7.313,2.573-10.989
						c0.919-3.675,1.838-7.313,2.756-10.989c2.83-11.025,5.917-22.087,9.225-33.186c182.653,5.844,553.507,20.47,842.701,32.12
						h0.037C2195.054,3154.687,2234.892,3303.823,2234.414,3416.759z"/>
				</g>
			</g>
		</g>
		<g>
			<g>
				<g>
					<path style="fill:#F8FDFF;" d="M2234.414,3416.759c-144.468,85.887-364.901,83.462-455.676,77.765
						c-268.76-16.832-493.53-158.323-483.864-353.472c7.387-148.952,71.554-307.202,161.999-469.788
						c125.542-177.25,292.869-176.883,364.24-172.987c67.695,3.712,318.448,61.926,326.68,306.614
						C2155.179,3025.066,2235.113,3257.112,2234.414,3416.759z"/>
				</g>
			</g>
		</g>
		<g>
			<g>
				<g>
					<path style="fill:#D3D8E5;" d="M2234.414,3416.759c-144.468,85.887-364.901,83.462-455.676,77.765
						c-268.76-16.832-493.53-158.323-483.864-353.472c0.183-3.822,0.404-7.644,0.698-11.466c0.184-3.16,0.441-6.321,0.698-9.518
						c0.037-0.147,0.037-0.257,0.037-0.368c0.258-3.124,0.552-6.284,0.882-9.408c0.478-4.851,1.029-9.702,1.617-14.553
						c0.294-2.499,0.625-5.035,0.956-7.534c1.507-11.062,3.271-22.198,5.292-33.333c0.661-3.602,1.359-7.203,2.095-10.805
						c0.735-3.785,1.507-7.534,2.315-11.282c0.772-3.528,1.543-7.056,2.352-10.584c0.846-3.675,1.691-7.313,2.573-10.989
						c0.919-3.675,1.838-7.313,2.756-10.989c2.83-11.025,5.88-22.087,9.225-33.186c182.653,5.844,553.507,20.47,842.701,32.12h0.037
						C2195.054,3154.687,2234.892,3303.823,2234.414,3416.759z"/>
				</g>
			</g>
		</g>
		<g>
			<g>
				<g>
					<path style="fill:#D3D8E5;" d="M1984.985,2548.478c-88.313-9.335-169.202-27.784-239.434-49.173
						c30.32-2.867,56.413-2.095,75.56-1.029C1851.579,2499.93,1919.164,2512.683,1984.985,2548.478z"/>
				</g>
			</g>
		</g>
		<g>
			<g>
				<g>
					<path style="fill:#390176;" d="M1566.078,2490.009c-105.399,204.504-259.488,444.139-256.392,679.629
						c4.1,58.821,33.442,112.998,74.472,154.851c130.942,129.11,328.262,161.556,505.942,155.819
						c162.785-6.118,396.005-40.709,451.711-219.608c8.537-27.516,11.056-58.118,10.762-86.916
						c-5.096-276.788-59.098-551.659-112.466-822.77c-0.004,0,13.771,12.202,13.771,12.202l-246.27-24.12l-246.222-24.62
						l2.611-27.429l246.445,22.286l246.397,22.787c6.93,0.638,12.391,5.741,13.776,12.203
						c13.323,60.75,25.575,121.421,37.215,182.357c39.287,213.691,76.149,429.095,78.975,647.269
						c0.223,32.229-2.597,65.603-12.108,96.539c-68.804,224.432-379.933,249.224-577.685,240.93
						c-178.928-8.132-402.906-75.105-490.48-245.303c-31.034-61.136-30.001-124.09-19.421-189.966
						C1323.343,2859.543,1436.071,2663.627,1566.078,2490.009L1566.078,2490.009z"/>
				</g>
			</g>
		</g>
		<g>
			<g>
				<g>
					<path style="fill:#FF9343;" d="M2373.82,2522.496c-47.287,11.937-93.883,20.228-139.442,25.448l-4.568-91.887
						C2277.443,2467.648,2326.61,2491.291,2373.82,2522.496z"/>
				</g>
			</g>
		</g>
		<g>
			<g>
				<g>
					<path style="fill:#390176;" d="M1335.28,2429.07c24.568,60.128,34.428,127.391,20.232,191.107
						c-1.189,4.283-4.198,14.644-5.429,18.986c1.034-7.465,3.091-18.508,3.288-25.94c3.284-42.876-5.601-86.114-20.871-125.972
						c-6.06-15.439-13.393-31.653-21.751-45.592C1301.414,2424.666,1326.814,2411.48,1335.28,2429.07L1335.28,2429.07z"/>
				</g>
			</g>
		</g>
		<g>
			<g>
				<g>
					<path style="fill:#C7CEE2;" d="M2247.627,2815.686l71.472,202.309c27.284,8.12,391.154,70.714,313.939-200.695
						c-58.402-139.816-240.078-321.595-403.232-361.257L2247.627,2815.686z"/>
				</g>
			</g>
		</g>
		<g>
			<g>
				<g>
					<path style="fill:#A3B0CE;" d="M2373.82,2522.496c-47.287,11.937-93.883,20.228-139.442,25.448l-4.568-91.887
						C2277.443,2467.648,2326.61,2491.291,2373.82,2522.496z"/>
				</g>
			</g>
		</g>
		<g>
			<g>
				<g>
					<path style="fill:#390176;" d="M2247.627,2815.686c16.24,32.114,31.288,64.725,45.841,97.584
						c14.256,32.848,29.607,65.355,38.621,100.135c0,0-9.06-8.615-9.06-8.615c2.827,1.128,9.704,1.948,13,2.785
						c79.294,12.747,194.395,18.745,258.603-35.472c43.329-37.314,40.082-100.264,25.156-151.033
						c-52.062-115.773-157.682-227.236-270.196-297.659c-38.629-23.702-79.936-43.332-123.155-54.011
						c-7.385-1.827-11.891-9.296-10.064-16.681c1.827-7.388,9.302-11.896,16.688-10.063c47.066,11.669,90.575,32.537,130.971,57.29
						c80.483,50.028,150.244,115.402,208.295,190.023c28.93,37.908,55.266,78.489,73.93,123.444
						c5.563,19.746,9.624,40.176,10.942,61.228c5.101,71.417-32.32,126.394-99.485,150.163
						c-74.745,25.975-157.508,22.064-234.259,8.387c-5.408-1.238-13.901-2.151-16.317-8.362
						c-7.944-17.007-13.987-34.729-19.427-52.637C2272.765,2920.454,2259.026,2868.369,2247.627,2815.686L2247.627,2815.686z"/>
				</g>
			</g>
		</g>
		<g>
			<g>
				<g>
					<g>
						<path style="fill:#C7CEE2;" d="M1823.773,940.108c-0.946,51.082-83.917,157.266-179.75,263.273
							c-132.135,146.311-288.785,292.093-288.785,292.093c-177.045,50.31-350.996-70.057-389.147-144.802
							c-19.123,20.381-74.205,52.565-137.425-42.419c-9.676-14.575-18.305-32.177-25.521-52.223
							c-64.493-179.098-18.845-550.657,328.032-649.868c-42.747-40.237-34.803-91.337,28.287-110.088
							C1451.638,409.499,1827.688,732.018,1823.773,940.108z"/>
					</g>
				</g>
			</g>
			<g>
				<g>
					<g>
						<path style="fill:#A3B0CE;" d="M1644.022,1203.381c-132.135,146.311-288.785,292.093-288.785,292.093
							c-177.045,50.31-350.996-70.057-389.147-144.802c-19.123,20.381-74.205,52.565-137.425-42.419
							c-9.676-14.575-18.305-32.177-25.521-52.223c55.774,49.578,152.957,73.346,276.066-139.604
							C1239.518,839.047,1542.495,1102.29,1644.022,1203.381z"/>
					</g>
				</g>
			</g>
			<g style="opacity:0.5;">
				<g>
					<g>
						<path style="fill:#FFFFFF;" d="M1788.356,813.182c-112.943-174.457-357.067-340.981-571.413-292.262
							c-50.22,11.414-68.033,44.802-54.246,79.349c6.207,15.553-1.534,33.252-17.616,37.922
							c-357.998,103.967-394.885,525.817-310.773,671.855c8.148,14.15,16.299,25.697,24.353,35.009
							c-9.68-9.343-19.729-21.39-29.992-36.789c-96.438-144.898-83.099-591.861,302.501-702.111
							c-42.761-40.24-34.82-91.329,28.307-110.083C1396.316,425.878,1688.327,624.602,1788.356,813.182z"/>
					</g>
				</g>
			</g>
			<g>
				<g>
					<g>
						<path style="fill:#390176;" d="M1268.345,1521.245c-139.199,0-261.831-84.558-305.752-149.522
							c-11.592,8.093-29.307,16.47-51.646,14.622c-32.92-2.734-64.463-26.436-93.755-70.447
							c-53.564-80.483-77.681-255.207-16.87-420.488c37.822-102.793,121.602-235.772,306.421-296.179
							c-13.853-19.265-19.063-40.327-14.399-59.941c6.221-26.135,28.672-46.169,63.223-56.414
							c137.998-40.928,311.836,4.287,465,120.908c133.76,101.841,218.931,233.955,216.992,336.575l0,0
							c-2.344,123.713-424.8,520.374-472.964,565.195c-1.597,1.484-3.521,2.571-5.62,3.167
							C1328.423,1517.404,1298.003,1521.245,1268.345,1521.245z M966.074,1336.928c0.64,0,1.284,0.046,1.929,0.137
							c4.438,0.627,8.301,3.379,10.342,7.373c32.319,63.289,196.68,185.864,369.932,138.66
							c130.239-121.465,459.951-449.038,461.733-543.262c1.753-92.681-81.084-218.921-206.133-314.131
							c-146.201-111.313-310.854-154.829-440.479-116.414c-24.697,7.322-40.41,20.239-44.248,36.377
							c-3.74,15.713,4.082,34.106,21.45,50.464c3.608,3.396,5.112,8.469,3.945,13.284c-1.172,4.815-4.839,8.628-9.6,9.99
							c-188.169,53.801-271.768,184.961-308.765,285.518c-55.581,151.064-36.553,319.824,13.95,395.71
							c24.048,36.135,49.326,56.279,73.096,58.252c22.646,1.88,38.481-12.996,42.793-17.6
							C958.643,1338.486,962.295,1336.928,966.074,1336.928z M1823.784,940.097h0.049H1823.784z"/>
					</g>
				</g>
			</g>
			<g>
				<g>
					<g>
						<path style="fill:#FC9595;" d="M1664.87,1092.701c-29.523,185.081-103.877,233.741-285.535,279.86
							c-199.295,50.597-401.44-78.383-396.739-326.792c3.546-187.387,171.558-350.417,358.133-332.639
							C1505.161,728.798,1699.641,874.719,1664.87,1092.701z"/>
					</g>
				</g>
			</g>
			<g>
				<g>
					<g>
						<path style="fill:#F97D7D;" d="M1664.87,1092.716c-29.541,185.06-103.881,233.731-285.537,279.86
							c-170.77,43.359-343.601-45.141-386.646-227.622c39.003,34.867,165.38,138.298,226.531,74.033
							c67.984-71.483-17.216-146.84,17.855-206.437c34.831-59.231,214.972,33.733,145.359-292.789
							C1536.069,753.682,1696.734,892.959,1664.87,1092.716z"/>
					</g>
				</g>
			</g>
			<g>
				<g>
					<g>
						<path style="fill:#390176;" d="M1292.949,1397.304c-74.116,0-144.658-23.594-201.684-68.823
							c-81.191-64.397-124.678-164.893-122.441-282.974c1.846-97.5,46.367-192.192,122.153-259.8
							c71.978-64.211,161.108-94.878,251.06-86.292c104.731,9.98,209.644,67.649,273.784,150.5
							c55.181,71.272,76.846,155.977,62.651,244.956l-13.604-2.17l13.604,2.17c-30.913,193.796-112.5,244.519-295.747,291.04
							C1352.656,1393.547,1322.515,1397.304,1292.949,1397.304z M1312.451,725.561c-72.944,0-144.194,28.122-203.135,80.706
							c-70.078,62.517-111.245,149.907-112.944,239.763c-2.07,109.287,37.71,201.931,112.017,260.864
							c72.983,57.886,170.498,76.946,267.559,52.314c178.794-45.393,247.266-92.808,275.317-268.677
							c12.964-81.274-6.826-158.645-57.231-223.75c-59.639-77.034-157.202-130.657-254.614-139.939
							C1330.42,725.986,1321.416,725.561,1312.451,725.561z"/>
					</g>
				</g>
			</g>
		</g>
		<g>
			<g>
				<g>
					<path style="fill:#B4CEDC;" d="M2178.179,2469.129c606.766,8.015,747.219-255.674,724.597-482.118
						c78.251-369.735-58.645-767.488-224.509-919.693c-280.179-284.468-627.222-287.157-886.276-223.164
						c-262.722,71.673-485.704,321.533-591.644,757.829c-174.796,193.549-98.647,630.17,516.341,792.658"/>
				</g>
			</g>
		</g>
		<g>
			<g>
				<g>
					<path style="fill:#C7CEE2;" d="M2902.769,1986.996c6.542,65.527-0.552,134.141-28.666,198.419
						c-69.018,157.882-264.718,289.414-695.918,283.718l-461.483-74.494c-303.932-80.301-476.257-227.526-551.707-379.344
						c-77.251-155.31-53.068-315.397,35.355-413.302c105.953-436.308,328.922-686.179,591.655-757.843
						c259.021-63.983,606.098-61.301,886.251,223.153C2844.114,1219.524,2981.012,1617.28,2902.769,1986.996z"/>
				</g>
			</g>
		</g>
		<g>
			<g>
				<g>
					<path style="fill:#A3B0CE;" d="M2874.103,2185.415c-69.018,157.882-264.718,289.414-695.918,283.718l-461.483-74.494
						c-303.932-80.301-476.257-227.526-551.707-379.344c4.337,3.491,6.91,5.549,6.946,5.549
						c271.737,212.531,642.47,297.965,635.885,56.633c0,0,265.614-66.854,276.83,40.426
						c12.679,121.278,181.18,215.606,342.627,229.474C2564.664,2359.177,2750.729,2316.469,2874.103,2185.415z"/>
				</g>
			</g>
		</g>
		<g>
			<g>
				<g>
					<path style="fill:#390176;" d="M2178.179,2469.129c195.296-14.449,427.23-31.643,583.844-159.594
						c96.531-78.202,140.241-201.096,125.581-323.312c58.753-281.798-0.228-636.217-181.355-864.426
						c-119.287-136.122-277.837-237.457-455.962-274.75c-147.334-31.846-302.694-23.329-449.076,12.237
						c-28.709,7.459-57.017,17.369-84.478,29.172c-167.733,71.396-293.159,216.317-376.396,375.266
						c-57.163,108.74-97.867,225.539-127.358,344.712c-61.258,68.459-85.915,164.074-76.095,254.499
						c26.384,238.141,242.007,394.708,448.276,480.861c43.015,18.487,87.036,34.924,131.529,50.848
						c-46.529-8.279-92.431-20.244-137.558-34.972c-135.611-45.348-264.41-120.483-357.923-230.455
						c-94.732-109.923-147.175-266.236-103.336-408.873c14.216-47.082,38.421-91.573,72.251-127.591l-3.163,5.981
						c43.264-180.622,112.242-358.724,226.205-507.07c76.266-99.497,174.388-184.031,290.234-234.08
						c28.966-12.471,58.807-22.96,89.558-30.964c181.528-44.433,376.287-47.868,555.189,11.956
						c149.156,49.514,281.314,143.513,384.412,261.29c188.967,239.06,245.433,609.875,185.158,885.655
						c14.538,130.505-34.035,262.964-137.465,345.879C2616.882,2463.434,2380.799,2486.175,2178.179,2469.129L2178.179,2469.129z"/>
				</g>
			</g>
		</g>
		<g>
			<g>
				<g>
					<path style="fill:#F8FDFF;" d="M1753.432,1923.914c-103.805,173.855-24.328,256.21,86.249,292.832
						c91.557,30.323,305.89,93.362,360.077-75.947c21.626-67.571,4-185.139-194.025-240.45
						C1940.518,1882.134,1753.432,1923.914,1753.432,1923.914z"/>
				</g>
			</g>
		</g>
		<g>
			<g>
				<g>
					<path style="fill:#D3D8E5;" d="M2139.597,2224.518c-86.99,58.067-229.621,15.509-299.925-7.755
						c-25.138-8.342-48.695-19.037-68.798-32.635c24.733-23.704,38.294-58.765,36.971-106.652c0,0,265.6-66.85,276.809,40.426
						C2088.697,2156.785,2108.799,2192.948,2139.597,2224.518z"/>
				</g>
			</g>
		</g>
		<g>
			<g>
				<g>
					<g>
						<path style="fill:#C7CEE2;" d="M1944.469,889.525c0,0-170.646-10.957-174.062-83.973
							c-6.992-69.353,111.6-129.597,244.897-44.397c-45.069-39.985-114.691-144.169-36.463-173.617
							c138.189-41.7,330.534,156.44,397.556,283.702l6.583,41.526"/>
					</g>
				</g>
			</g>
			<g>
				<g>
					<g>
						<path style="fill:#390176;" d="M1944.469,889.524c-53.297,2.254-112.44-2.554-158.648-32.612
							c-35.564-23.06-39.71-71.109-13.974-103.221c14.817-19.409,36.045-32.07,58.513-39.718
							c65.338-21.583,137.337-0.375,192.692,35.059c0,0-17.297,22.884-17.297,22.884c-24.165-21.95-43.738-46.84-59.314-75.466
							c-28.347-50.442-27.992-111.564,38.962-126.597c50.643-11.187,103.696,5.805,147.447,28.994
							c82.614,44.855,149.406,113.015,205.218,187.544c18.301,24.951,34.479,51.701,46.507,80.54l0.692,1.66
							c0.162,0.388,0.246,0.803,0.259,1.201c0.022,7.109-0.022,14.221-0.43,21.352c-0.358,7.152-0.943,14.338-2.115,21.62
							c-6.565-12.976-11.308-26.365-15.711-40.078c0,0,0.95,2.858,0.95,2.858c-33.271-49.362-69.068-97.428-110.949-140.02
							c-41.591-42.552-87.835-81.159-139.127-108.959c-40.484-21.272-86.088-36.547-130.853-25.265
							c-57.693,16.635-14.601,86.862,8.654,117.432c8.827,11.435,18.544,22.382,28.991,31.734
							c12.925,11.97-2.558,32.067-17.382,22.809c-49.603-31.866-111.359-51.109-168.438-33.011
							c-32.082,9.348-64.581,40.257-51.318,75.675c5.561,13.472,21.335,25.894,38.714,34.896
							C1862.86,869.521,1904.226,880.016,1944.469,889.524L1944.469,889.524z"/>
					</g>
				</g>
			</g>
		</g>
		<g>
			<g>
				<g>
					<g>
						<path style="fill:#B5CFDD;" d="M2412.93,1115.312c21.488-217.535,453.499-507.778,747.628-381.479
							c63.572,27.298,65.542,81.597,16.01,118.319c388.705,162.453,347.634,630.344,229.192,769.659
							c-77.623,91.302-131.166,50.967-148.57,27.368c-48.993,73.242-245.292,177.408-423.762,103.148
							C2833.429,1752.326,2400.388,1242.286,2412.93,1115.312z"/>
					</g>
				</g>
			</g>
			<g>
				<g>
					<g>
						<path style="fill:#A2B4BC;" d="M2412.93,1115.312c21.488-217.535,453.499-507.778,747.628-381.479
							c63.572,27.298,65.542,81.597,16.01,118.319c388.705,162.453,347.634,630.344,229.192,769.659
							c-77.623,91.302-131.166,50.967-148.57,27.368c-48.993,73.242-245.292,177.408-423.762,103.148
							C2833.429,1752.326,2400.388,1242.286,2412.93,1115.312z"/>
					</g>
				</g>
			</g>
			<g>
				<g>
					<g>
						<path style="fill:#C7CEE2;" d="M3487.95,1318.024c3.924,128-32.295,245.097-82.2,303.771
							c-77.616,91.332-131.181,50.978-148.538,27.375c-49.043,73.23-245.325,177.451-423.811,103.146
							c0,0-47.683-56.168-110.878-135.817c-127.416-160.44-317.985-416.319-309.57-501.192
							c21.482-217.506,453.45-507.753,747.621-381.468c63.546,27.295,65.503,81.62,15.997,118.321
							C3401.444,946.156,3482.467,1142.368,3487.95,1318.024z"/>
					</g>
				</g>
			</g>
			<g>
				<g>
					<g>
						<path style="fill:#A3B0CE;" d="M2833.377,1752.328c178.505,74.3,374.768-29.93,423.853-103.171
							c17.338,23.644,70.908,63.98,148.543-27.353c49.875-58.693,86.078-175.765,82.208-303.776
							c-1.431-45.306-7.841-91.976-20.555-137.944c0.039,1.088,0.084,2.237,0.123,3.325c3.931,128.005-32.272,245.077-82.147,303.77
							c-77.635,91.333-131.205,50.997-148.543,27.353c-49.085,73.241-355.434,44.595-413.212,109.049
							C2779.449,1672.884,2833.377,1752.328,2833.377,1752.328z"/>
					</g>
				</g>
			</g>
			<g style="opacity:0.5;">
				<g>
					<g>
						<path style="fill:#FFFFFF;" d="M2465.502,987.271c139.286-168.102,414.444-311.79,632.06-234.597
							c50.986,18.086,65.461,55.107,46.829,89.451c-8.388,15.462-2.49,34.878,13.712,41.728
							c360.678,152.5,347.264,597.118,241.552,739.119c-10.241,13.759-20.164,24.802-29.712,33.526
							c11.248-8.556,23.212-19.887,35.813-34.689c118.431-139.296,159.5-607.214-229.199-769.664
							c49.559-36.718,47.559-90.992-15.988-118.322C2922.129,631.459,2593.052,802.847,2465.502,987.271z"/>
					</g>
				</g>
			</g>
			<g>
				<g>
					<g>
						<path style="fill:#390176;" d="M2459.715,995.938c16.16-36.921,40.878-70.422,68.484-99.6
							c155.177-157.24,428.852-265.778,642.183-173.055c66.674,30.018,72.678,97.088,14.39,139.935
							c0.001,0-2.891-23.777-2.891-23.777c42.895,18.158,83.941,41.211,121.126,69.659
							c65.353,49.519,117.31,116.204,150.476,191.128c50.518,114.94,60.488,245.792,34.593,368.137
							c-17.26,77.158-49.903,157.474-117.089,204.198c-4.527,2.651-11.55,7.495-16.447,9.465
							c-23.918,12.287-53.931,14.519-77.992,1.396c-12.112-6.38-22.223-15.289-30.443-26.07l22.537-0.518
							c-23.021,35.462-56.752,59.261-92.449,79.35c-103.587,56.191-236.01,70.346-342.763,16.139
							c73.116,23.998,151.766,22.61,224.779,1.309c53.751-15.854,105.042-40.69,149.261-74.731
							c14.364-11.319,27.851-23.766,38.246-37.349c5.165-7.783,17.034-7.988,22.565-0.554
							c45.522,58.381,113.237-3.645,142.076-48.769c32.54-50.712,49.401-111.331,58.029-170.764
							c19.247-136.726-7.692-283.375-89.65-396.132c-52.108-71.985-125.717-126.214-207.477-160.473
							c-7.02-2.974-10.3-11.076-7.326-18.095c0.989-2.335,2.53-4.218,4.434-5.683c6.847-5.49,13.552-11.236,18.391-17.982
							c28.193-37.506-4.324-67.985-41.04-80.258c-94.833-37.61-201.664-29.743-297.956-0.677
							C2696.838,787.447,2566.674,881.466,2459.715,995.938L2459.715,995.938z"/>
					</g>
				</g>
			</g>
			<g>
				<g>
					<g>
						<path style="fill:#FF7B7B;" d="M2812.35,1566.169c9.236,38.315,40.567,67.137,79.385,73.953
							c181.574,31.884,362.95-80.439,385.734-311.088c19.353-195.921-135.864-386.665-332.688-391.071
							c-110.725-2.479-240.75,48.9-317.863,146.645c-28.802,36.507-28.463,88.115,1.148,123.969
							C2692.708,1286.846,2775.18,1411.96,2812.35,1566.169z"/>
					</g>
				</g>
			</g>
			<g>
				<g>
					<g>
						<path style="fill:#FC9595;" d="M3087.255,1616.666c-59.616,27.127-127.531,35.385-195.513,23.441
							c-38.827-6.803-70.166-35.62-79.398-73.932c-37.169-154.225-119.654-279.344-184.254-357.591
							c-29.616-35.843-29.956-87.493-1.176-123.981c77.121-97.734,207.127-149.128,317.879-146.629
							c35.456,0.808,69.624,7.651,101.587,19.561c0.057,0.015,0.057,0.015,0.057,0.015c145.43,53.818,246.834,210.9,231.007,371.484
							C3263.243,1473.332,3186.913,1571.327,3087.255,1616.666z"/>
					</g>
				</g>
			</g>
			<g>
				<g>
					<g>
						<path style="fill:#F97D7D;" d="M3087.255,1616.666c-59.616,27.127-127.531,35.385-195.513,23.441
							c-38.827-6.803-70.166-35.62-79.398-73.932c-37.169-154.225-119.654-279.344-184.254-357.591
							c-29.616-35.843-29.956-87.493-1.176-123.981c77.121-97.734,207.127-149.128,317.879-146.629
							c35.456,0.808,69.624,7.651,101.587,19.561c-6.128,0.768-215.705,28.283-216.469,140.149
							c-0.905,130.487,124.827,91.831,162.518,244.721C3010.205,1414.51,2891.811,1621.529,3087.255,1616.666z"/>
					</g>
				</g>
			</g>
			<g>
				<g>
					<g>
						<path style="fill:#390176;" d="M2953.101,1659.313c-21.006,0-42.314-1.858-63.75-5.623
							c-44.448-7.805-79.932-40.894-90.396-84.292c0-0.003,0-0.003,0-0.003c-37.207-154.368-119.243-276.648-181.509-352.048
							c-33.433-40.474-33.994-99.888-1.343-141.274c73.306-92.922,198.34-151.978,320.547-151.978c2.813,0,5.625,0.032,8.438,0.095
							c94.663,2.117,183.73,44.971,250.791,120.669c70.615,79.705,105.352,183.777,95.303,285.527
							c-11.064,111.99-58.354,202.639-136.763,262.149C3096.597,1636.425,3026.763,1659.313,2953.101,1659.313z M2825.742,1562.939
							c7.891,32.737,34.731,57.708,68.374,63.613c88.994,15.64,175.513-4.243,243.647-55.962
							c72.139-54.754,115.708-138.75,125.996-242.913c9.302-94.141-22.959-190.564-88.506-264.548
							c-61.914-69.888-143.877-109.448-230.781-111.394c-114.81-2.578-237.988,54.255-306.738,141.404
							c-24.668,31.27-24.268,76.128,0.952,106.665C2702.803,1277.436,2787.3,1403.476,2825.742,1562.939L2825.742,1562.939z"/>
					</g>
				</g>
			</g>
		</g>
		<g>
			<g>
				<g>
					<path style="fill:#390176;" d="M2470.104,1893.782c-6.699-50.501-23.689-103.015-51.052-144.723
						c-25.38-38.813-63.45-65.11-108.173-74.205c-72.526-14.432-140.513,30.209-192.792,78.095
						c-19.427,17.896-37.722,37.578-55.723,58.716c14.854-54.728,45.861-104.47,88.156-143.269
						c44.188-41.309,109.705-67.359,171.435-56.206c63.26,9.757,120.259,52.741,145.085,111.084
						C2489.648,1776.01,2494.052,1841.835,2470.104,1893.782L2470.104,1893.782z"/>
				</g>
			</g>
		</g>
		<g>
			<g>
				<g>
					<path style="fill:#390176;" d="M1651.5,1723.644c-28.611-91.848-73.053-238.944-193.192-224.955
						c-40.502,6.977-70.358,42.639-91.517,78.156c-11.677,19.855-21.841,41.165-29.883,64.356
						c-1.864-12.208-1.908-24.785-0.761-37.203c5.558-64.773,43.422-136.685,111.903-152.965
						c49.182-11.58,102.172,6.36,137.444,41.56C1643.246,1551.98,1660.62,1644.258,1651.5,1723.644L1651.5,1723.644z"/>
				</g>
			</g>
		</g>
		<g>
			<g>
				<g>
					<g>
						<g>
							<path style="fill:#E09F69;" d="M2082.523,2287.407L2082.523,2287.407c0.878-15.753-16.883-29.977-40.006-31.641
								c-357.866-25.754-715.732-51.507-1073.598-77.261c-23.122-1.664-43.955,18.258-45.407,44.32l0,0
								c-1.452,26.063,17.038,48.175,40.202,49.09c358.512,14.164,717.024,28.328,1075.535,42.494
								C2062.414,2315.323,2081.646,2303.161,2082.523,2287.407z"/>
						</g>
					</g>
				</g>
			</g>
			<g>
				<g>
					<g>
						<g>
							<path style="fill:#390176;" d="M2041.739,2328.234c-1.006,0-2.012-0.02-3.032-0.061l-1075.532-42.495
								c-14.199-0.559-27.534-6.936-37.549-17.954c-11.025-12.126-16.811-28.772-15.869-45.664c0.942-16.899,8.54-32.8,20.85-43.625
								c11.172-9.834,25.146-14.685,39.307-13.669l1073.599,77.261c30.908,2.227,54.087,22.498,52.769,46.147
								C2095.005,2311.047,2071.304,2328.234,2041.739,2328.234z M966.24,2192.185c-6.182,0-12.314,2.427-17.437,6.934
								c-6.797,5.981-11.006,14.902-11.538,24.475c-0.532,9.565,2.656,18.896,8.745,25.596c5.01,5.51,11.489,8.691,18.247,8.96
								l1075.532,42.495c16.03,0.618,28.589-7.014,28.979-14.004l0,0c0.391-6.987-11.426-15.994-27.241-17.134L967.93,2192.246
								C967.368,2192.207,966.807,2192.185,966.24,2192.185z"/>
						</g>
					</g>
				</g>
			</g>
		</g>
		<g>
			<g>
				<g>
					<g>
						<path style="fill:#FFFFFF;" d="M2466.236,2749.715c0,8.748-3.185,17.369-9.342,25.692
							c-51.384,69.73-307.75,122.768-616.391,122.768c-308.684,0-565.219-53.039-616.433-122.811
							c-6.158-8.323-9.343-16.901-9.343-25.649c0-82.002,280.147-148.418,625.776-148.418
							C2186.132,2601.297,2466.236,2667.713,2466.236,2749.715z"/>
					</g>
				</g>
			</g>
			<g>
				<g>
					<g>
						<path style="fill:#390176;" d="M1840.503,2911.953c-313.975,0-572.031-52.815-627.539-128.435
							c-7.964-10.764-12.012-22.151-12.012-33.804c0-105.347,329.512-162.192,639.551-162.192
							c310.02,0,639.507,56.846,639.507,162.192c0,11.685-4.048,23.086-12.041,33.887
							C2412.285,2859.165,2154.253,2911.953,1840.503,2911.953z M1840.503,2615.075c-166.138,0-322.158,15.3-439.321,43.086
							c-127.314,30.19-172.681,67.09-172.681,91.553c0,5.708,2.173,11.418,6.641,17.461
							c41.733,56.848,268.057,117.224,605.361,117.224c337.075,0,563.442-60.366,605.303-117.166
							c4.419-5.974,6.655-11.863,6.655-17.52c0-24.463-45.361-61.362-172.661-91.553
							C2162.647,2630.375,2006.636,2615.075,1840.503,2615.075z"/>
					</g>
				</g>
			</g>
		</g>
		<g>
			<g>
				<g>
					<g>
						<path style="fill:#FDB738;" d="M1734.945,2813.003c59.629-101.541,7.223-374.827,47.612-545.892
							c11.106-47.038,59.255-157.458,98.658-180.191c22.148-12.778,212.171,17.996,212.171,17.996s-55.516,84.94-64.889,143.751
							c-14.772,144.38,64.684,373.23,95.507,590.108"/>
					</g>
				</g>
			</g>
			<g>
				<g>
					<g>
						<path style="fill:#FF8A33;" d="M2124.006,2838.771l-389.074-25.768c18.535-31.563,26.262-79.648,29.262-136.157
							c35.602,2.506,95.713-0.725,164.321-4.47c35.512,15.022,61.584,9.5,86.286-7.686c37.972,15.645,56.964-6.818,73.613-15.173
							C2102.059,2712.026,2115.087,2775.892,2124.006,2838.771z"/>
					</g>
				</g>
			</g>
			<g style="opacity:0.7;">
				<g>
					<g>
						<path style="fill:#FFFFFF;" d="M2059.071,2515.989c-21.864-6.863-47.345-12.371-65.962,14.795
							c-17.672-18.987-49.564-24.124-74.428,1.028c-21.987-23.59-56.304-17.754-78.415-1.89
							c-17.261-11.631-47.427-20.261-74.634-12.329c-0.164-22.563-0.247-45.29,0-67.812c0.041-3.616,0.082-7.233,0.164-10.809
							c25.522,13.809,50.92,9.658,71.634-8.055c21.248,17.878,53.756,14.919,73.278-1.767c28.768,13.768,47.632,12.412,67.031,0
							c24.576,21.124,51.824,15.206,65.674,8.466c3.904,21.535,8.343,43.687,13.11,66.291
							C2057.345,2507.933,2058.208,2511.92,2059.071,2515.989z"/>
					</g>
				</g>
			</g>
			<g>
				<g>
					<g>
						<path style="fill:#FF8A33;" d="M2028.494,2248.688c-1.973,19.439-2.26,40.399-1.192,62.674
							c-20.22-8.22-34.728-8.672-57.126,3.329c-18.864-5.548-40.687-9.247-63.044,5.384c-15.165-8.466-39.659-15.658-67.154,0.945
							c-22.357-14.22-53.509-7.356-67.195,2.425c2.384-19.686,5.589-38.591,9.781-56.345c3.288-13.932,9.864-33.495,18.494-54.66
							l240.34-7.973C2035.439,2219.714,2030.672,2234.92,2028.494,2248.688z"/>
					</g>
				</g>
			</g>
			<g>
				<g>
					<g>
						<path style="fill:#390176;" d="M2110.366,2840.715c-11.597-81.582-30.093-164.761-47.983-245.2
							c-29.312-131.814-56.997-256.316-47.593-348.247l0.103-0.767c7.148-44.863,38.721-102.439,55.864-131.199
							c-81.323-12.439-169.409-21.711-183.066-16.24c-33.545,19.38-80.942,125.549-91.724,171.213
							c-17.954,76.033-17.178,173.228-16.431,267.224c0.913,115.063,1.777,223.748-32.71,282.478l-23.76-13.95
							c30.64-52.17,29.8-157.158,28.916-268.308c-0.757-95.627-1.548-194.512,17.168-273.774
							c10.483-44.409,58.916-162.266,105.181-188.958c23.833-13.74,162.671,6.841,221.255,16.331l20.918,3.389l-11.587,17.744
							c-0.537,0.825-53.779,82.825-62.754,138.013c-8.833,87.471,18.345,209.683,47.119,339.07
							c17.998,80.952,36.616,164.663,48.359,247.305L2110.366,2840.715z"/>
					</g>
				</g>
			</g>
			<g>
				<g>
					<g>
						<path style="fill:#390176;" d="M1840.83,2815.927l-26.172-8.613c20.298-61.653,16.465-159.38,12.402-262.844
							c-3.896-99.343-7.925-202.068,6.963-293.638c0.747-3.811,16.973-83.184,73.906-154.373l21.514,17.207
							c-52.573,65.747-68.159,141.313-68.311,142.068c-14.355,88.357-10.381,189.673-6.538,287.656
							C1858.755,2649.411,1862.681,2749.553,1840.83,2815.927z"/>
					</g>
				</g>
			</g>
			<g>
				<g>
					<g>
						<path style="fill:#390176;" d="M1927.823,2839.003c-0.313,0-0.62-0.01-0.938-0.032c-7.588-0.508-13.33-7.075-12.822-14.666
							c6.768-100.986-1.592-201.252-9.678-298.215c-8.037-96.367-15.625-187.393-7.617-270.586
							c2.173-22.598,27.339-109.37,85.088-174.294c5.054-5.686,13.77-6.199,19.448-1.138c5.684,5.056,6.196,13.765,1.138,19.448
							c-53.716,60.391-76.568,141.152-78.252,158.621c-7.769,80.735-0.278,170.559,7.651,265.659
							c8.169,97.979,16.616,199.292,9.712,302.346C1941.065,2833.425,1935.01,2839.003,1927.823,2839.003z"/>
					</g>
				</g>
			</g>
			<g>
				<g>
					<g>
						<path style="fill:#390176;" d="M2020.093,2802.089c-0.366,0-0.737-0.015-1.108-0.044c-7.583-0.605-13.242-7.244-12.637-14.827
							c5.439-68.254-7.939-145.261-22.1-226.79c-17.334-99.788-35.259-202.971-24.79-311.448
							c3.442-35.645,48.813-141.538,74.937-167.126c5.435-5.33,14.155-5.234,19.478,0.2c5.327,5.435,5.234,14.158-0.2,19.482
							c-20.913,20.486-63.994,121.118-66.792,150.09c-10.107,104.775,7.495,206.099,24.517,304.087
							c14.468,83.291,28.135,161.965,22.412,233.691C2033.238,2796.618,2027.207,2802.089,2020.093,2802.089z"/>
					</g>
				</g>
			</g>
		</g>
		<g>
			<g>
				<g>
					<g>
						<path style="fill:#F38E0A;" d="M1875.686,2943.449"/>
					</g>
				</g>
			</g>
			<g style="opacity:0.3;">
				<g>
					<g>
						<path style="fill:#FFFFFF;" d="M1384.766,3153.176c-42.615-57.803-78.56-145.269-48.548-170.063
							c40.303-33.296,96.612,56.234,151.885,114.002c91.082,95.193,155.837,107.008,152.87,154.706
							C1639.15,3281.151,1506.48,3318.271,1384.766,3153.176z"/>
					</g>
				</g>
			</g>
			<g>
				<g>
					<g>
						<g>
							<g>
								<path style="fill:#FFB839;" d="M2036.039,2645.02l-24.657,163.72h-567.83l20.266-127.458l3.263-20.536
									c0,0,28.558-53.657,100.617-69.482c20.805-4.588,45.266-6.011,73.727-2.061c6.207,0.859,12.513,2.134,18.941,3.729
									c25.884,6.452,53.657,18.278,83.811,30.644c23.529,9.617,48.48,19.554,75.15,27.503c25.099,7.508,51.67,13.249,79.958,15.26
									C1940.992,2669.333,1986.381,2664.304,2036.039,2645.02z"/>
							</g>
						</g>
					</g>
					<g style="opacity:0.7;">
						<g>
							<g>
								<path style="fill:#FFFFFF;" d="M1728.742,2662.292c-25.172,17.837-15.874,42.96-15.874,42.96
									c-13.126,16.021-11.114,46.101-11.114,46.101l-18.45-2.871c14.402-18.278-5.569-50.664-5.569-50.664
									c15.064-25.32-3.018-52.357-3.018-52.357c6.354-12.046-3.165-33.735-14.353-52.529
									c25.884,6.452,53.657,18.278,83.811,30.644C1721.529,2639.475,1728.742,2662.292,1728.742,2662.292z"/>
							</g>
						</g>
					</g>
					<g>
						<g>
							<g>
								<path style="fill:#FF8A33;" d="M1910.471,2733.982l-243.065,65.213l28.73-49.781c0,0,32.165-22.646,38.274-33.735
									c0,0,38.642-10.869,48.848-35.551c0,0,31.65-6.207,36.066-29.049c25.099,7.508,51.67,13.249,79.958,15.26L1910.471,2733.982
									z"/>
							</g>
						</g>
					</g>
					<g>
						<g>
							<g>
								<path style="fill:#FF8A33;" d="M1544.536,2768.601l-80.719-87.319l3.263-20.536c0,0,28.558-53.657,100.617-69.482
									c8.734,18.426,24.633,40.531,51.793,46.469c0,0-8.661,31.257,43.009,56.405c0,0-8.808,41.856,44.015,84.595
									C1731.613,2799.024,1544.536,2768.601,1544.536,2768.601z"/>
							</g>
						</g>
					</g>
					<g>
						<g>
							<g>
								<path style="fill:#FFB839;" d="M1174.912,2391.607"/>
							</g>
						</g>
					</g>
					<g>
						<g>
							<g>
								<path style="fill:#390176;" d="M2011.372,2822.509H1443.55c-4.033,0-7.861-1.768-10.479-4.834s-3.76-7.126-3.125-11.106
									l23.54-147.976c0.239-1.506,0.728-2.961,1.44-4.309c2.119-3.987,53.472-97.456,188.398-78.726
									c30.645,4.253,63.35,17.69,97.974,31.917c80.449,33.059,171.636,70.532,289.756,24.695c4.585-1.772,9.761-0.981,13.594,2.09
									c3.838,3.071,5.747,7.949,5.015,12.808l-24.668,163.718C2023.98,2817.524,2018.189,2822.509,2011.372,2822.509z
									 M1459.693,2794.956h539.824l19.487-129.346c-117.974,37.292-211.86-1.289-288.179-32.649
									c-34.395-14.133-64.097-26.34-91.289-30.112c-106.812-14.814-151.802,50.349-159.243,62.588L1459.693,2794.956z"/>
							</g>
						</g>
					</g>
					<g>
						<g>
							<g>
								<path style="fill:#390176;" d="M1927.163,2724.179c-55.361,0.002-126.436-23.54-190.918-44.9
									c-41.899-13.877-81.474-26.985-102.583-27.913c-67.31-2.957-118.418,49.524-118.926,50.051
									c-5.259,5.486-13.975,5.691-19.468,0.444c-5.498-5.247-5.718-13.943-0.483-19.448c2.412-2.539,59.902-62.178,140.088-58.572
									c24.932,1.094,64.37,14.158,110.034,29.282c75.796,25.107,170.122,56.34,217.988,38.047
									c7.114-2.725,15.068,0.842,17.788,7.944c2.72,7.107-0.84,15.071-7.944,17.788
									C1959.424,2721.997,1944.024,2724.179,1927.163,2724.179z"/>
							</g>
						</g>
					</g>
					<g>
						<g>
							<g>
								<path style="fill:#363D56;" d="M1927.168,2824.772c-55.366,0.002-126.44-23.542-190.923-44.9
									c-41.899-13.879-81.474-26.987-102.583-27.915c-67.363-2.939-118.418,49.521-118.926,50.051
									c-5.259,5.479-13.975,5.688-19.468,0.444c-5.498-5.247-5.718-13.943-0.479-19.451c2.407-2.539,59.897-62.141,140.083-58.569
									c24.932,1.094,64.37,14.158,110.034,29.285c75.796,25.103,170.122,56.343,217.988,38.047
									c7.114-2.717,15.068,0.84,17.788,7.944c2.72,7.107-0.84,15.071-7.944,17.788
									C1959.424,2822.59,1944.024,2824.772,1927.168,2824.772z"/>
							</g>
						</g>
					</g>
					<g>
						<g>
							<g>
								<path style="fill:#363D56;" d="M1927.163,2775.703c-55.361,0.002-126.44-23.542-190.923-44.902
									c-41.895-13.877-81.47-26.985-102.578-27.913c-67.705-2.964-118.403,49.504-118.906,50.034
									c-5.254,5.522-13.97,5.732-19.478,0.491c-5.513-5.244-5.732-13.962-0.493-19.475c2.412-2.539,59.902-62.156,140.088-58.574
									c24.927,1.096,64.365,14.158,110.029,29.282c75.806,25.11,170.151,56.348,217.993,38.049
									c7.114-2.725,15.068,0.842,17.788,7.944c2.72,7.107-0.84,15.071-7.944,17.788
									C1959.424,2773.52,1944.024,2775.703,1927.163,2775.703z"/>
							</g>
						</g>
					</g>
				</g>
				<g>
					<g>
						<g>
							<g>
								<path style="fill:#FFFFFF;" d="M2142.307,2743.14c1.821,16.579-11.374,35.805-32.465,45.544
									c-21.098,9.751-43.09,6.794-52.958-6.065c-13.615,16.125-37.192,25.416-56.493,21.278
									c-19.301-4.138-27.899-20.327-21.631-38.027c-21.086,6.224-41.242,0.144-47.437-15.458
									c-6.201-15.591,3.631-35.538,22.354-47.712c-16.201-7.316-21.132-25.2-10.593-43.128
									c10.532-17.917,33.039-29.932,53.251-29.441c-1.821-16.579,11.368-35.795,32.465-45.545
									c21.091-9.74,43.072-6.786,52.947,6.063c13.626-16.122,37.197-25.403,56.498-21.265
									c19.301,4.138,27.906,20.316,21.649,38.019c21.08-6.213,41.225-0.136,47.426,15.455
									c6.195,15.601-3.631,35.538-22.354,47.712c16.201,7.316,21.125,25.21,10.593,43.128
									C2185.02,2731.627,2162.52,2743.631,2142.307,2743.14z"/>
							</g>
						</g>
					</g>
					<g>
						<g>
							<g>
								<g>
									<path style="fill:#390176;" d="M2009.932,2818.649c-4.229,0-8.394-0.417-12.427-1.284
										c-13.179-2.825-23.667-10.161-29.531-20.657c-2.539-4.541-4.121-9.495-4.731-14.668c-0.146,0-0.298,0.002-0.449,0.002
										c-20.381,0-37.603-9.756-44.272-26.545c-6.772-17.024-1.226-36.985,13.516-52.617c-2.822-3.616-4.99-7.703-6.401-12.148
										c-3.809-12.002-1.831-25.547,5.576-38.142c10.688-18.188,31.001-31.533,52.231-35.225
										c3.95-18.228,18.711-35.64,39.575-45.283c20.845-9.624,42.764-9.27,58.145-0.029c17.119-13.87,40.161-20.388,59.971-16.138
										c13.179,2.825,23.667,10.161,29.536,20.654c2.539,4.543,4.121,9.495,4.731,14.67c0.146-0.002,0.288-0.002,0.435-0.002
										c20.381,0,37.612,9.751,44.287,26.531c6.763,17.031,1.216,36.992-13.516,52.622c2.817,3.613,4.98,7.695,6.392,12.139
										c3.813,12.007,1.841,25.554-5.566,38.149c-10.688,18.191-31.001,31.538-52.236,35.227
										c-3.945,18.235-18.711,35.649-39.575,45.286c-20.854,9.629-42.769,9.277-58.154,0.032
										C2043.838,2812.265,2026.446,2818.647,2009.932,2818.649z M2000.762,2745.007l-9.018,25.461
										c-1.216,3.435-2.153,8.445,0.278,12.8c2.49,4.456,7.495,6.35,11.255,7.158c13.994,2.988,32.51-4.182,43.086-16.697
										l11.035-13.069l10.415,13.572c5.215,6.79,20.2,9.368,36.25,1.946c16.689-7.708,25.586-22.085,24.551-31.536l-1.724-15.659
										l15.747,0.383c15.654,0.415,33.232-9.36,41.045-22.649c3.389-5.767,4.473-11.392,3.057-15.847
										c-1.079-3.396-3.579-6.001-7.441-7.744l-22.964-10.369l21.123-13.735c13.101-8.523,20.596-22.175,17.061-31.079
										c-3.32-8.354-16.519-11.514-30.732-7.327l-25.874,7.625l8.994-25.432c1.216-3.435,2.148-8.44-0.283-12.793
										c-2.49-4.458-7.505-6.355-11.265-7.163c-14.009-3.008-32.51,4.172-43.086,16.687l-11.03,13.052l-10.415-13.547
										c-5.21-6.782-20.205-9.36-36.25-1.951c-16.685,7.71-25.586,22.087-24.551,31.533l1.724,15.659l-15.747-0.383
										c-15.786-0.413-33.228,9.36-41.04,22.649c-3.389,5.767-4.478,11.392-3.066,15.842c1.079,3.396,3.589,6.003,7.451,7.749
										l22.964,10.371l-21.123,13.735c-13.11,8.523-20.6,22.17-17.06,31.072c3.325,8.374,16.543,11.523,30.732,7.334
										L2000.762,2745.007z"/>
								</g>
							</g>
						</g>
						<g>
							<g>
								<g>
									<path style="fill:#F34E6C;" d="M2085.166,2739.742c-28.256,11.941-71.778,7.477-82.063-26.95
										c-9.546-44.76,33.968-81.253,74.086-88.583c38.96-8.999,76.737,21.596,57.449,61.915
										c-10.938,20.26-31.231,32.346-53.688,34.09c-53.304,0.616-44.624-62.22,2.096-65.882
										c13.302-1.628,28.052,9.189,23.986,24.083c-1.934,7.341-12.795,5.072-11.746-2.364c0.277-2.99-0.798-4.677-2.623-5.807
										c-8.493-4.313-20.985,2.614-26.232,9.603c-8.637,10.911-1.526,21.856,12.971,19.965
										c14.35-1.574,29.514-11.344,35.242-23.595c5.8-12.006,1.465-24.722-11.81-28.716c-13.762-4.506-31.324,0.14-44.439,6.87
										c-19.787,10.135-39.693,30.764-36.122,53.462c6.308,23.481,38.599,25.435,58.915,20.032
										C2088.734,2725.908,2092.317,2736.806,2085.166,2739.742L2085.166,2739.742z"/>
								</g>
							</g>
						</g>
					</g>
				</g>
				<g>
					<g>
						<g>
							<g>
								<path style="fill:#FFFFFF;" d="M1983.454,2750.857c1.606,16.601-11.836,35.655-33.052,45.121
									c-21.222,9.477-43.174,6.236-52.875-6.751c-13.823,15.947-37.518,24.932-56.763,20.545
									c-19.245-4.387-27.634-20.687-21.137-38.304c-21.165,5.95-41.241-0.39-47.233-16.071
									c-5.999-15.67,4.091-35.488,22.97-47.419c-16.105-7.525-20.804-25.471-10.034-43.262
									c10.764-17.78,33.423-29.501,53.628-28.749c-1.606-16.601,11.83-35.645,33.052-45.12
									c21.216-9.466,43.156-6.228,52.864,6.748c13.834-15.944,37.523-24.919,56.768-20.531
									c19.245,4.387,27.64,20.676,21.155,38.296c21.159-5.939,41.223,0.398,47.222,16.068c5.993,15.68-4.091,35.488-22.97,47.419
									c16.105,7.525,20.797,25.482,10.034,43.262C2026.312,2739.899,2003.658,2751.61,1983.454,2750.857z"/>
							</g>
						</g>
					</g>
					<g>
						<g>
							<g>
								<g>
									<path style="fill:#390176;" d="M1850.948,2824.653c-4.512,0-8.96-0.471-13.247-1.448
										c-13.14-2.996-23.53-10.466-29.258-21.035c-2.48-4.575-3.994-9.551-4.541-14.731c-20.576-0.12-37.881-10.122-44.38-27.124
										c-6.543-17.109-0.742-36.997,14.199-52.437c-2.773-3.65-4.883-7.759-6.24-12.222c-3.657-12.051-1.504-25.571,6.06-38.074
										c10.933-18.052,31.416-31.133,52.69-34.546c4.185-18.176,19.175-35.396,40.166-44.768
										c20.977-9.363,42.881-8.711,58.13,0.723c17.295-13.643,40.439-19.849,60.176-15.359
										c13.14,2.996,23.535,10.464,29.268,21.03c2.48,4.575,3.999,9.553,4.541,14.736c20.571,0.125,37.871,10.12,44.375,27.102
										c6.543,17.122,0.737,37.012-14.199,52.446c2.773,3.65,4.888,7.761,6.24,12.224c3.657,12.053,1.504,25.574-6.064,38.074
										c-10.923,18.049-31.406,31.13-52.686,34.543c-4.18,18.184-19.17,35.405-40.161,44.771
										c-20.977,9.365-42.886,8.721-58.145-0.72C1884.336,2818.522,1867.217,2824.653,1850.948,2824.653z M1841.89,2750.898
										l-9.341,25.337c-1.26,3.418-2.261,8.416,0.117,12.805c2.432,4.485,7.407,6.445,11.157,7.3
										c13.955,3.186,32.563-3.75,43.291-16.133l11.206-12.932l10.239,13.708c5.122,6.853,20.068,9.622,36.226,2.417
										c16.787-7.49,25.869-21.755,24.956-31.218l-1.519-15.681l15.742,0.588c15.464,0.542,33.345-8.923,41.328-22.114
										c3.467-5.72,4.624-11.333,3.271-15.803c-1.04-3.411-3.511-6.05-7.349-7.844l-22.832-10.664l21.304-13.462
										c13.213-8.35,20.884-21.904,17.461-30.857c-3.213-8.398-16.387-11.716-30.625-7.72l-25.972,7.29l9.316-25.313
										c1.26-3.418,2.261-8.416-0.117-12.8c-2.437-4.49-7.422-6.45-11.172-7.305c-13.94-3.179-32.559,3.75-43.301,16.125
										l-11.201,12.908l-10.234-13.684c-5.117-6.846-20.063-9.624-36.216-2.419c-16.787,7.495-25.874,21.758-24.961,31.216
										l1.519,15.681l-15.742-0.588c-15.483-0.61-33.34,8.923-41.333,22.117c-3.462,5.72-4.619,11.333-3.262,15.801
										c1.035,3.411,3.506,6.05,7.344,7.844l22.827,10.664l-21.299,13.462c-13.213,8.352-20.884,21.904-17.461,30.85
										c3.213,8.418,16.377,11.746,30.635,7.734L1841.89,2750.898z"/>
								</g>
							</g>
						</g>
						<g>
							<g>
								<g>
									<path style="fill:#F34E6C;" d="M1926.362,2746.72c-28.408,11.574-71.868,6.548-81.708-28.009
										c-8.965-44.881,35.016-80.807,75.227-87.617c39.074-8.493,76.45,22.587,56.643,62.654
										c-11.2,20.117-31.647,31.938-54.125,33.393c-53.324-0.045-43.755-62.859,2.949-65.851
										c13.323-1.457,27.93,9.551,23.672,24.392c-2.03,7.315-12.858,4.905-11.714-2.515c0.316-2.988-0.737-4.688-2.547-5.841
										c-8.435-4.422-21.017,2.341-26.354,9.262c-8.777,10.799-1.809,21.833,12.711,20.131
										c14.37-1.387,29.659-10.96,35.545-23.136c5.954-11.929,1.785-24.7-11.437-28.867c-13.703-4.683-31.324-0.266-44.524,6.294
										c-19.917,9.881-40.088,30.249-36.811,52.991c6.004,23.56,38.266,25.932,58.651,20.794
										C1930.107,2732.931,1933.551,2743.878,1926.362,2746.72L1926.362,2746.72z"/>
								</g>
							</g>
						</g>
					</g>
				</g>
				<g>
					<g>
						<g>
							<g>
								<path style="fill:#FFB839;" d="M1602.417,2953.486c-28.942,12.542-68.186,8.589-111.389-3.669
									c-71.647-20.311-154.187-63.429-218.843-92.124c9.961-61.316,30.035-104.044,52.767-133.253
									c28.015-36.049,60.053-51.553,82.107-56.057c3.613-0.75,7.16-1.382,10.628-1.873c39.069-5.84,69.125,1.883,97.306,13.535
									c45.309,18.681,85.739,47.495,150.972,46.284C1721.668,2725.319,1710.753,2906.555,1602.417,2953.486z"/>
							</g>
						</g>
					</g>
					<g style="opacity:0.7;">
						<g>
							<g>
								<path style="fill:#FFFFFF;" d="M1421.22,2902.358c43.218-68.329,9.606-111.757,9.606-111.757
									c18.91-39.017-12.603-70.296-12.603-70.296c15.052-17.9,8.71-38.451-0.537-53.796c39.069-5.84,69.125,1.883,97.306,13.535
									c-24.035,12.244-21.589,42.338-21.589,42.338c-20.785,23.834-11.778,60.199-11.778,60.199
									c-24.402,32.883,10.386,131.83,10.386,131.83L1421.22,2902.358z"/>
							</g>
						</g>
					</g>
					<g>
						<g>
							<g>
								<path style="fill:#FF8A33;" d="M1491.028,2949.817c-71.647-20.311-154.187-63.429-218.843-92.124
									c9.961-61.316,30.035-104.044,52.767-133.253c7.475,14.314,20.327,27.387,42.299,26.708c0,0-9.139,51.621,40.053,52.327
									c0,0,26.767,98.449,94.949,75.207C1539.453,2865.997,1517.881,2908.746,1491.028,2949.817z"/>
							</g>
						</g>
					</g>
					<g>
						<g>
							<g>
								<path style="fill:#390176;" d="M1560.259,2974.968c-69.053,0.002-159.707-42.412-241.641-80.745
									c-18.364-8.591-35.713-16.709-52.007-23.945l-9.707-4.312l1.699-10.486c27.285-168.149,126.147-196.602,145.698-200.598l0,0
									c63.838-13.066,106.274,7.126,147.305,26.65c34.478,16.404,67.075,31.987,114.111,31.033
									c21.719-0.479,37.695,16.101,44.019,45.251c13.594,62.671-18.569,172.234-101.831,208.308
									C1593.721,2972.268,1577.676,2974.968,1560.259,2974.968z M1287.617,2849.504c13.599,6.157,27.808,12.805,42.681,19.763
									c92.505,43.281,207.642,97.146,266.65,71.575c69.355-30.046,97.178-125.01,85.864-177.183
									c-1.543-7.102-6.216-23.547-16.411-23.547c-0.059,0-0.117,0-0.176,0.002c-53.477,1.038-90.62-16.648-126.46-33.701
									c-40.313-19.18-75.137-35.735-129.946-24.539l0,0C1393.775,2685.156,1314.063,2708.466,1287.617,2849.504z
									 M1407.061,2668.378h0.049H1407.061z"/>
							</g>
						</g>
					</g>
					<g>
						<g>
							<g>
								<path style="fill:#363D56;" d="M1388.55,2938.886c-1.992,0-4.019-0.435-5.933-1.353c-6.865-3.284-9.771-11.509-6.484-18.372
									c18.892-39.492,44.331-65.515,75.615-77.346c52.056-19.69,96.499-3.062,132.207,10.3
									c23.76,8.894,44.282,16.572,61.025,11.975c7.319-2.014,14.917,2.305,16.929,9.644c2.012,7.336-2.305,14.917-9.644,16.929
									c-25.347,6.963-50.908-2.615-77.969-12.742c-34.624-12.961-70.425-26.362-112.803-10.334
									c-24.424,9.236-44.78,30.588-60.508,63.464C1398.623,2935.998,1393.692,2938.886,1388.55,2938.886z"/>
							</g>
						</g>
					</g>
					<g>
						<g>
							<g>
								<path style="fill:#390176;" d="M1347.29,2915.605c-1.299,0-2.617-0.186-3.926-0.574c-7.295-2.163-11.45-9.832-9.287-17.126
									c18.691-62.966,50.464-104.529,91.885-120.195c52.07-19.692,96.504-3.059,132.207,10.303
									c23.76,8.892,44.282,16.563,61.025,11.975c7.344-2.009,14.912,2.307,16.929,9.644c2.012,7.336-2.305,14.917-9.644,16.929
									c-25.337,6.936-50.903-2.617-77.969-12.744c-34.634-12.959-70.435-26.357-112.803-10.334
									c-41.768,15.796-63.955,64.331-75.215,102.266C1358.716,2911.73,1353.233,2915.605,1347.29,2915.605z"/>
							</g>
						</g>
					</g>
					<g>
						<g>
							<g>
								<path style="fill:#390176;" d="M1312.808,2892.946c-0.747,0-1.499-0.061-2.261-0.188c-7.51-1.24-12.588-8.333-11.348-15.84
									c6.738-40.725,30.191-138.391,102.295-165.664c52.051-19.69,96.504-3.062,132.212,10.303
									c23.755,8.892,44.282,16.567,61.025,11.975c7.354-2.002,14.917,2.307,16.929,9.644s-2.305,14.917-9.644,16.929
									c-25.337,6.936-50.903-2.612-77.969-12.744c-34.634-12.959-70.435-26.36-112.808-10.334
									c-58.706,22.205-78.896,108.372-84.854,144.39C1325.269,2888.161,1319.429,2892.946,1312.808,2892.946z"/>
							</g>
						</g>
					</g>
				</g>
				<g>
					<g>
						<g>
							<g>
								<g>
									<path style="fill:#FFB839;" d="M2209.778,2933.501l-249.4,13.47l-331.246,17.86l32.324-170.867
										c0,0,102.769,38.369,232.507-36.327c0.994-0.552,1.96-1.132,2.954-1.684c23.988-13.857,47.451-27.742,70.638-39.888
										c23.049-12.09,45.822-22.469,68.568-29.426c48.417-14.768,96.669-13.94,147.018,19.35
										C2269.292,2762.91,2209.778,2933.501,2209.778,2933.501z"/>
								</g>
							</g>
						</g>
						<g style="opacity:0.7;">
							<g>
								<g>
									<path style="fill:#FFFFFF;" d="M2081.171,2911.253c0,0-41.544,33.18-40.357,6.708
										c3.671-82.48-34.891-106.523-34.891-106.523c14.52-36.686-18.467-50.763-18.467-50.763
										c4.306-17.667-8.226-33.87-19.902-44.608c23.049-12.09,45.822-22.469,68.568-29.426
										c-7.95,32.021,4.693,54.601,4.693,54.601c-12.256,51.84,11.787,51.84,11.787,51.84
										C2044.155,2833.521,2081.171,2911.253,2081.171,2911.253z"/>
								</g>
							</g>
						</g>
						<g>
							<g>
								<g>
									<path style="fill:#FF8A33;" d="M1960.377,2829.628c0,0-6.173,15.398,3.151,37.273
										c7.703,18.073,30.317,53.618,47.897,80.071l-382.294,17.86l32.324-170.867c0,0,102.769,38.369,232.507-36.327
										c0.994-0.552,1.96-1.132,2.954-1.684c-0.883,16.59,1.96,38.535,23.408,37.072
										C1920.324,2793.025,1922.703,2824.673,1960.377,2829.628z"/>
								</g>
							</g>
						</g>
						<g>
							<g>
								<g>
									<path style="fill:#390176;" d="M1612.324,2979.536l38.643-204.182l15.288,5.708c1.572,0.564,99.199,34.678,220.83-35.361
										c5.308-3.054,10.586-6.113,15.84-9.16c96.294-55.811,187.246-108.528,287.827-42.048
										c93.994,62.124,34.609,236.165,32.036,243.545l-3.042,8.721L1612.324,2979.536z M1672.198,2811.345l-26.27,138.787
										l553.584-29.875c10.176-34.18,41.88-159.27-23.955-202.781c-86.343-57.068-166.27-10.735-258.813,42.9
										c-5.278,3.062-10.581,6.135-15.908,9.202C1795.132,2830.441,1706.817,2819.462,1672.198,2811.345z"/>
								</g>
							</g>
						</g>
						<g>
							<g>
								<g>
									<path style="fill:#390176;" d="M1768.062,2864.299c-7.607,0-13.774-6.169-13.774-13.777s6.167-13.777,13.774-13.777
										c37.515,0,137.232-50.403,196.812-80.518c143.682-72.622,233.145-22.52,236.885-20.352c6.582,3.818,8.818,12.249,5,18.831
										c-3.813,6.577-12.231,8.823-18.828,5.002c-3.193-1.809-81.143-44.346-210.625,21.108
										C1890.269,2824.809,1808.775,2864.299,1768.062,2864.299z"/>
								</g>
							</g>
						</g>
					</g>
					<g>
						<g>
							<g>
								<path style="fill:#390176;" d="M1780.401,2887.592c-4.419,0-8.794-0.122-13.13-0.374
									c-7.598-0.437-13.398-6.948-12.964-14.546c0.439-7.595,7.007-13.406,14.546-12.959
									c56.709,3.291,123.32-18.162,205.918-51.338c156.333-62.793,235.64-19.116,238.936-17.222
									c6.602,3.782,8.892,12.2,5.107,18.801c-3.779,6.594-12.192,8.896-18.799,5.105c-0.62-0.337-72.329-38.408-214.971,18.882
									C1905.054,2866.071,1838.96,2887.592,1780.401,2887.592z"/>
							</g>
						</g>
					</g>
				</g>
				<g>
					<g>
						<g>
							<g>
								<path style="fill:#BF8C73;" d="M2021.579,2805.132c37.26,15.221,66.425,3.024,150.539,26.98
									c86.06,24.51,226.966-128.545,136.269-133.249C2069.738,2686.485,1978.964,2787.723,2021.579,2805.132z"/>
							</g>
						</g>
					</g>
					<g style="opacity:0.7;">
						<g>
							<g>
								<path style="fill:#FFFFFF;" d="M2336.824,2728.77c-2.396-9.486-11.273-15.814-28.628-16.718
									c-186.944-9.677-283.161,50.338-295.552,85.173c-13.283-29.262,81.837-109.461,295.736-98.357
									C2332.907,2700.144,2340.497,2712.25,2336.824,2728.77z"/>
							</g>
						</g>
					</g>
					<g>
						<g>
							<g>
								<path style="fill:#F4C3B0;" d="M2219.949,2811.881c-15.968,5.612-29.811,6.82-41.143,3.592
									c-45.478-12.952-75.786-15.373-97.915-17.14c-18.213-1.455-30.245-2.416-43.671-7.901c-0.106-0.044-0.191-0.083-0.255-0.113
									c-0.289-1.535,0.929-8.124,12.084-18.395c13.521-12.452,35.373-24.372,61.529-33.566
									c35.742-12.564,97.769-26.536,190.28-21.737c10.959,0.568,11.469,3.502,11.806,5.443
									c3.439,19.812-41.069,71.663-92.698,89.812C2219.958,2811.877,2219.955,2811.878,2219.949,2811.881z"/>
							</g>
						</g>
					</g>
					<g>
						<g>
							<g>
								<path style="fill:#BF8C73;" d="M2204.94,2791.529c18.742-12.555,38.08-25.017,54.539-39.052
									c4.674-4.154,9.144-7.931,11.561-12.606c0.23-0.485,0.059-0.686-0.07,0.243c-0.269,1.226,0.77,3.446,1.714,4.076
									c0.234,0.158,0.15,0.096-0.11,0.032c-20.526-3.118-42.431,0.3-63.218,2.215c-33.069,3.736-66.962,9.352-98.632,18.543
									c-9.218,2.923-21.547,6.57-28.042,12.437c0,0,0.519-0.904,0.408-2.267c-0.08-0.762-0.095-0.971-0.484-1.846
									c-0.913-1.786-1.564-2.1-1.685-2.251c24.512,8.344,54.817,8.312,81.477,8.105c17.34,0.111,35.675-4.577,47.702-17.373
									c0.497-0.544,0.536-1.074,0.479-0.133c-0.199,0.665,0.916,2.911,1.606,2.984c-8.792-2.344-20.403-1.304-29.806-1.23
									c-11.13,0.593-22.51,1.552-33.391,3.483c-5.715,0.941-7.553-7.421-1.96-8.963c19.946-5.245,40.191-7.934,60.771-7.873
									c3.958,0.054,7.433,0.064,11.704,2.307c11.445,6.803,3.203,20.081-3.989,25.767c-23.477,21.912-57.346,20.416-87.182,20.22
									c-11.691-0.325-23.333-1.01-35.268-2.678c-8.091-1.475-17.279-2.341-25.274-7.974c-2.551-1.52-6.167-7.465-5.953-11.427
									c0.103-20.039,27.893-27.033,42.343-32.433c45.215-13.362,90.55-20.479,137.521-22.744
									c15.793,0.428,49.487-3.52,49.765,19.73c-2.209,20.075-35.225,35.474-50.793,44.37
									c-10.293,5.374-20.753,10.158-31.534,14.505c-2.362,0.952-5.048-0.19-6-2.552
									C2202.292,2795.049,2203.102,2792.695,2204.94,2791.529L2204.94,2791.529z"/>
							</g>
						</g>
					</g>
					<g>
						<g>
							<g>
								<path style="fill:#390176;" d="M2191.792,2848.498c-8.066,0.002-15.923-0.994-23.447-3.137
									c-44.326-12.625-72.861-14.905-95.786-16.736c-19.941-1.594-37.168-2.971-56.191-10.74l0,0
									c-14.385-5.876-21.24-18.833-17.891-33.816c10.249-45.876,116.079-109.067,310.62-98.965
									c25.625,1.328,35.747,12.932,39.722,22.434c10.469,25-11.973,55.779-26.279,71.902
									C2289.673,2816.474,2237.5,2848.496,2191.792,2848.498z M2025.24,2791.621c0.088,0,0.591,0.366,1.548,0.757l0,0
									c15.063,6.155,28.862,7.256,47.964,8.784c24.141,1.926,54.185,4.329,101.143,17.7c37.373,10.649,93.442-20.977,126.04-57.71
									c19.673-22.168,23.618-37.844,21.47-42.971c-1.27-3.037-7.153-5.117-15.732-5.562
									c-167.314-8.677-253.706,39.749-276.011,66.565c-6.074,7.3-6.621,11.682-6.436,12.456
									C2025.22,2791.628,2025.225,2791.621,2025.24,2791.621z"/>
							</g>
						</g>
					</g>
				</g>
				<g>
					<g>
						<g>
							<g>
								<path style="fill:#BF8C73;" d="M2088.381,2877.978c37.146,20.021,66.448,6.32,150.401,38.842
									c85.895,33.274,228.355-147.584,137.633-156.914C2137.698,2735.355,2045.898,2855.08,2088.381,2877.978z"/>
							</g>
						</g>
					</g>
					<g style="opacity:0.7;">
						<g>
							<g>
								<path style="fill:#FFFFFF;" d="M2405.128,2794.002c-2.962-10.426-11.724-17.586-27.943-19.267
									c-190.506-19.586-287.449,52.703-297.248,94.333c-15.337-35.377,80.363-131.398,296.479-109.172
									C2399.498,2762.273,2407.492,2775.755,2405.128,2794.002z"/>
							</g>
						</g>
					</g>
					<g>
						<g>
							<g>
								<path style="fill:#F4C3B0;" d="M2286.841,2894.073c-16.033,6.202-29.898,7.125-41.209,2.742
									c-45.391-17.583-75.7-21.735-97.829-24.766c-18.213-2.495-30.246-4.143-43.631-11.358c-0.105-0.057-0.19-0.108-0.254-0.148
									c-0.274-1.882,1.007-9.86,12.267-21.929c13.649-14.632,35.63-28.286,61.893-38.448
									c35.889-13.887,98.095-28.445,190.633-18.928c10.962,1.127,11.445,4.721,11.763,7.099
									c3.254,24.271-41.778,85.669-93.618,105.729C2286.851,2894.069,2286.848,2894.07,2286.841,2894.073z"/>
							</g>
						</g>
					</g>
					<g>
						<g>
							<g>
								<path style="fill:#BF8C73;" d="M2271.762,2869.777c18.592-13.87,37.635-27.844,53.668-43.361
									c5.087-5.113,10.823-10.653,13.017-16.753c0.148-0.542,0.056-0.781,0.007-0.397c-0.112,0.506,0.391,1.636,0.772,2.036
									c-18.072-4.055-40.222-1.656-59.729-0.152c-33.903,3.196-68.875,8.78-101.032,18.901c-9.529,3.341-21.886,7.249-28.2,14.27
									c-0.046,0.196-0.134,0.2-0.017-0.233c0.002-0.241,0.005-0.548-0.096-0.778c0.034,0.197-0.293-0.865-0.5-1.125
									c-0.93-1.458-0.934-0.998-0.389-0.721c23.879,10.592,54.144,11.887,80.243,12.496c8.012-0.169,15.881-0.237,23.194-2.634
									c9.352-3.629,19.951-9.865,25.187-18.453c0.05-0.262,0.036,0.648,0.592,1.307c-17.516-3.576-42.631-2.075-62.177,1.249
									c-2.494,0.456-4.885-1.197-5.341-3.691c-0.432-2.363,1.047-4.637,3.323-5.258c11.838-3.185,23.548-5.284,35.639-6.266
									c11.18-0.556,22.293-1.857,33.425,0.855c2.128,0.778,4.821,1.955,7.04,5.019c2.256,3.106,2.483,7.177,1.93,9.762
									c-4.758,15.746-19.505,25.015-33.454,31.64c-21.023,7.277-43.545,5.274-65.159,4.203
									c-18.874-2.058-38.648-2.963-56.06-12.565c-1.894-1.323-4.251-2.766-6.637-6.797c-1.81-3.456-2.25-6.77-1.954-10.47
									c3.47-19.897,26.796-26.593,42.367-32.821c46.606-14.681,93.438-21.774,142.22-22.259c12.226,0.508,25.417,0.437,36.8,6.646
									c7.727,4.315,10.854,15.346,7.341,22.969c-10.146,21.013-31.535,32.438-49.876,44.448
									c-10.234,6.188-20.685,11.755-31.517,16.863c-2.302,1.086-5.049,0.1-6.135-2.202
									C2269.284,2873.451,2269.971,2871.039,2271.762,2869.777L2271.762,2869.777z"/>
							</g>
						</g>
					</g>
					<g>
						<g>
							<g>
								<path style="fill:#390176;" d="M2261.582,2934.672c-9.771,0-19.092-1.646-27.773-5.007
									c-44.053-17.063-72.451-20.955-95.273-24.08c-20.122-2.759-37.505-5.139-56.694-15.481l0,0
									c-14.917-8.042-20.732-24.27-15.166-42.354c16.533-53.75,123.989-120.796,311.152-101.55
									c26.875,2.764,36.055,18.149,39.131,27.075c10.845,31.443-17.886,77.864-51.172,109.922
									C2331.045,2916.662,2293.887,2934.672,2261.582,2934.672z M2094.917,2865.852c14.795,7.974,28.452,9.846,47.358,12.437
									c24.248,3.32,54.424,7.456,101.484,25.684c31.992,12.395,75.43-14.141,102.915-40.618
									c33.477-32.246,49.028-67.202,44.238-81.096c-0.62-1.799-2.51-7.271-15.908-8.65
									c-175.796-18.066-270.43,44.641-281.997,82.244C2090.64,2863.547,2093.526,2865.104,2094.917,2865.852L2094.917,2865.852z"
									/>
							</g>
						</g>
					</g>
				</g>
				<g>
					<g>
						<g>
							<g>
								<path style="fill:#FFFFFF;" d="M1643.116,2962.666c126.37,50.981,201.103-37.197,221.531-99.477
									s-39.587-137.885-134.047-168.868c-94.46-30.983-187.596-5.612-208.024,56.668
									C1502.148,2813.268,1546.652,2923.75,1643.116,2962.666z"/>
							</g>
						</g>
					</g>
					<g>
						<g>
							<g>
								<path style="fill:#E2E2E2;" d="M1864.645,2863.184c-20.43,62.288-95.159,150.456-221.525,99.472
									c-73.712-29.724-117.08-101.205-124.322-161.076c20.267,25.062,47.043,46.559,79.847,59.8
									c126.365,50.984,201.092-37.205,221.525-99.472c1.481-4.512,2.541-9.107,3.183-13.763
									C1859.858,2782.797,1877.021,2825.431,1864.645,2863.184z"/>
							</g>
						</g>
					</g>
					<g>
						<g>
							<g>
								<path style="fill:#363D56;" d="M1715.659,2991.779c-24.741,0.002-50.698-5.444-77.7-16.338
									c-101.216-40.833-152.173-156.494-128.472-228.748c11.372-34.666,41.812-60.344,85.718-72.305
									c41.86-11.406,91.479-8.977,139.688,6.841c101.523,33.301,165.605,116.851,142.847,186.25
									c-12.231,37.29-43.623,85.652-95.049,109.561C1761.553,2986.867,1739.156,2991.779,1715.659,2991.779z M1650.698,2694.838
									c-16.934,0-33.203,2.034-48.252,6.133c-34.673,9.446-58.389,28.735-66.777,54.309
									c-17.207,52.451,18.931,156.821,112.603,194.609c45.273,18.267,86.597,18.999,122.803,2.166
									c43.433-20.193,70.054-61.365,80.483-93.162c18.027-54.963-38.159-122.917-125.249-151.482
									C1700.84,2699.057,1675.083,2694.838,1650.698,2694.838z"/>
							</g>
						</g>
					</g>
					<g>
						<g>
							<g>
								
									<ellipse transform="matrix(0.3117 -0.9502 0.9502 0.3117 -1489.7748 3578.0811)" style="fill:#FFA64D;" cx="1724.747" cy="2817.301" rx="65.331" ry="99.088"/>
							</g>
						</g>
					</g>
					<g>
						<g>
							<g>
								<path style="fill:#FF8745;" d="M1818.91,2848.191c-11.263,34.288-62.531,48.253-114.527,31.182
									c-43.626-14.303-73.88-45.886-75.865-75.926c13.353,14.179,32.457,26.353,55.197,33.795
									c51.993,17.05,103.282,3.081,114.524-31.204c1.81-5.532,2.475-11.243,2.077-17.02
									C1817.548,2807.273,1825.235,2828.896,1818.91,2848.191z"/>
							</g>
						</g>
					</g>
					<g style="opacity:0.7;">
						<g>
							<g>
								
									<ellipse transform="matrix(0.3117 -0.9502 0.9502 0.3117 -1455.224 3556.6436)" style="fill:#FFFFFF;" cx="1727.221" cy="2782.733" rx="16.894" ry="25.623"/>
							</g>
						</g>
					</g>
					<g>
						<g>
							<g>
								<path style="fill:#390176;" d="M1735.752,2946.677c-26.641,0-55.01-4.409-83.423-13.728l0,0
									c-48.218-15.818-89.629-43.242-116.602-77.224c-28.291-35.642-37.612-74.363-26.24-109.031
									c11.372-34.666,41.812-60.344,85.718-72.305c41.86-11.406,91.479-8.977,139.688,6.841
									c101.523,33.301,165.605,116.851,142.847,186.25C1861.343,2917.458,1804.307,2946.677,1735.752,2946.677z
									 M1660.913,2906.767c87.104,28.577,172.622,7.085,190.644-47.874c18.027-54.963-38.159-122.917-125.249-151.482
									c-43.154-14.16-87.144-16.443-123.862-6.44c-34.673,9.446-58.389,28.735-66.777,54.309
									c-8.389,25.579-0.708,55.166,21.636,83.313C1580.967,2868.4,1617.764,2892.612,1660.913,2906.767L1660.913,2906.767z"/>
							</g>
						</g>
					</g>
				</g>
			</g>
			<g>
				<g>
					<g>
						<g>
							<path style="fill:#FFFFFF;" d="M2363.07,2688.991c35.029,15.024,54.607,31.806,54.607,49.515
								c0,6.863-2.938,13.626-8.618,20.155c-47.396,54.703-283.868,96.311-568.559,96.311c-284.73,0-521.358-41.609-568.598-96.345
								c-5.68-6.53-8.617-13.259-8.617-20.122c0-8.853,4.894-17.475,14.166-25.76s-22.779,5.133-5.267-2.378
								c0,0-37.662-4.88-21.231,61.615c18.345,74.236,171.899,170.399,589.523,170.399c426.979,0,581.508-89.899,594.672-164.193
								C2449.391,2697.817,2363.07,2688.991,2363.07,2688.991z"/>
						</g>
					</g>
				</g>
				<g>
					<g>
						<g>
							<path style="fill:#390176;" d="M2363.07,2688.991c54.449,10.571,93.472,54.077,33.05,93.785
								c-61.142,36.264-132.774,48.822-200.889,61.085c-54.808,9.129-110.012,14.583-165.234,18.463
								c-138.05,9.368-276.718,8.606-414.619-2.821c-82.937-7.709-165.81-19.109-245.995-42.592
								c-33.614-10.411-68.817-22.297-95.168-46.845c-19.346-17.733-20.704-42.698,3.239-57.32
								c-17.244,20.411-12.327,36.318,9.28,50.103c26.943,16.286,57.583,24.93,88.431,33.402
								c52.466,13.658,106.729,21.229,160.898,27.987c217.006,24.065,438.778,23.708,655.058-6.716
								c53.365-8.324,107.517-17.897,158.225-36.033c18.078-6.865,36.141-14.571,50.09-27.382
								C2428.083,2728.556,2382.321,2703.49,2363.07,2688.991L2363.07,2688.991z"/>
						</g>
					</g>
				</g>
				<g>
					<g>
						<g>
							<g>
								<path style="fill:#DB2626;" d="M1840.496,3103.074c60.558,0,113.844,14.287,158.963,36.539
									c126.938,62.603,176.589,209.511,165.648,244.79c-15.687,50.584-171.6,96.685-324.611,96.685
									s-308.923-46.102-324.611-96.685c-10.941-35.279,38.711-182.187,165.648-244.79
									C1726.652,3117.362,1779.938,3103.074,1840.496,3103.074z"/>
							</g>
						</g>
					</g>
					<g>
						<g>
							<g>
								<path style="fill:#390176;" d="M1840.493,3494.865c-147.183,0-318.032-42.747-337.769-106.379
									c-13.657-44.038,40.352-195.947,172.715-261.228c51.069-25.188,106.602-37.961,165.054-37.961
									c58.457,0,113.989,12.773,165.059,37.961c132.354,65.273,186.367,217.185,172.715,261.226
									C2158.531,3452.119,1987.681,3494.865,1840.493,3494.865z M1840.493,3116.85c-54.189,0-105.62,11.814-152.866,35.12
									c-121.914,60.122-166.67,202.292-158.584,228.352c12.217,39.402,153.872,86.99,311.45,86.99
									c157.583,0,299.238-47.588,311.455-86.99c8.359-26.958-34.355-167.087-158.584-228.352
									C1946.118,3128.664,1894.683,3116.85,1840.493,3116.85z"/>
							</g>
						</g>
					</g>
					<g>
						<g>
							<g>
								<path style="fill:#FF3333;" d="M2466.236,2749.715c0,0,41.649,661.467-625.733,661.467s-625.776-661.467-625.776-661.467
									c0,8.748,3.185,17.326,9.343,25.649c51.214,69.772,307.749,122.811,616.433,122.811
									c308.641,0,565.007-53.039,616.391-122.768C2463.051,2767.084,2466.236,2758.463,2466.236,2749.715z"/>
							</g>
						</g>
					</g>
					<g>
						<g>
							<g>
								<path style="fill:#FF3333;" d="M2466.236,2749.715c0,0,41.649,661.467-625.733,661.467s-625.776-661.467-625.776-661.467
									c0,8.748,3.185,17.326,9.343,25.649c51.214,69.772,307.749,122.811,616.433,122.811
									c308.641,0,565.007-53.039,616.391-122.768C2463.051,2767.084,2466.236,2758.463,2466.236,2749.715z"/>
							</g>
						</g>
					</g>
					<g>
						<g>
							<g>
								<path style="fill:#DB2626;" d="M2430.615,2837.535c-8.939,97.507-41.408,258.704-154.296,378.658
									c-101.22,107.596-247.859,162.117-435.807,162.117c-38.845,0-75.949-2.333-111.212-6.967
									c135.432-17.845,244.343-69.803,324.63-155.15c89.686-95.305,128.596-216.606,145.291-311.32
									C2294.393,2889.558,2376.652,2867.31,2430.615,2837.535z"/>
							</g>
						</g>
					</g>
					<g>
						<g>
							<g>
								<path style="fill:#FFFFFF;" d="M2461.103,2925.909c-1.192,2.208-2.605,4.415-4.195,6.579
									c-51.393,69.717-307.785,122.788-616.409,122.788c-308.668,0-565.237-53.071-616.41-122.832
									c-1.633-2.208-3.046-4.415-4.238-6.667c-8.036-67.95-5.121-114.09-5.121-114.09c0,8.742,3.179,17.308,9.36,25.653
									c51.173,69.76,307.741,122.787,616.41,122.787c308.624,0,565.016-53.027,616.409-122.743
									c6.138-8.345,9.317-16.954,9.317-25.697C2466.225,2811.688,2469.139,2857.915,2461.103,2925.909z"/>
							</g>
						</g>
					</g>
					<g>
						<g>
							<g>
								<path style="fill:#390176;" d="M2187.754,2873.227c76.124-17.684,155.316-36.529,222.958-76.178
									c18.074-11.923,38.213-25.607,41.752-47.347c-0.001,0,27.524-0.866,27.524-0.866
									c3.808,174.778-43.905,356.916-161.431,490.3c-48.148,53.138-107.893,96.565-173.142,126.23
									c-175.127,75.539-383.466,78.233-563.75,18.56c-174.814-60.735-292.869-200.263-345.383-374.981
									c-25.448-84.218-38.141-172.091-35.316-260.106c0.001,0,27.526,0.864,27.526,0.864c1.335,14,13.421,25.366,25.026,34.257
									c44.703,31.845,99.148,48.626,152.385,63.271c73.117,19.436,148.116,32.317,223.228,42.26
									c-114.519-5.862-230.083-15.981-338.971-55.284c-36.742-15.063-88.141-37.53-89.221-84.503
									c0.001,0,27.527,0.864,27.527,0.864c-0.519,9.97-0.537,20.823-0.379,31.306c4.252,233.302,106.133,472.479,333.494,564.562
									c170.035,68.842,387.826,68.837,557.872-0.006c67.728-27.747,129.362-71.58,178.602-125.699
									c112-126.806,157.995-303.224,154.438-470.161c-0.001,0.083,27.693-1.032,27.523-0.782
									C2480.37,2839.491,2256.108,2866.035,2187.754,2873.227L2187.754,2873.227z"/>
							</g>
						</g>
					</g>
					<g style="opacity:0.3;">
						<g>
							<g>
								<path style="fill:#FFFFFF;" d="M1400.557,3155.067c-49.339-66.925-90.956-168.191-56.208-196.897
									c46.663-38.55,111.856,65.107,175.852,131.991c105.455,110.214,180.428,123.893,176.992,179.118
									C1695.081,3303.237,1541.476,3346.214,1400.557,3155.067z"/>
							</g>
						</g>
					</g>
				</g>
			</g>
		</g>
		<g>
			<g>
				<g>
					<g>
						<path style="fill:#C7CEE2;" d="M2520.629,2838.173c-85.552-4.887-125.724,94.2-163.201,117.647
							c-21.553,13.484,8.768,84.795,173.991,50.511"/>
					</g>
				</g>
			</g>
			<g style="opacity:0.3;">
				<g>
					<g>
						<path style="fill:#FFFFFF;" d="M2520.641,2838.184c-75.875,13.98-98.073,99.449-148.794,132.644
							c-6.755,4.421-8.432,14.358-2.198,25.067c-21.024-14.867-22.271-33.772-12.227-40.074
							C2394.906,2932.381,2435.088,2833.284,2520.641,2838.184z"/>
					</g>
				</g>
			</g>
			<g>
				<g>
					<g>
						<path style="fill:#390176;" d="M2520.629,2838.173c-55.201,2.774-89.318,48.267-119.141,89.501
							c-10.65,13.871-21.568,29.151-36.36,39.542c0,0-0.39,0.283-0.39,0.283c0.06-0.001,0.081-0.016,0.128-0.044
							c0.806-0.422,0.449-0.753,0.729,1.02c0.267,1.433,1.184,3.639,2.753,5.824c32.967,36.715,114.069,24.722,160.272,18.544
							c7.575-1.208,14.699,4.017,15.812,11.609c1.036,7.029-3.492,13.616-10.213,15.369
							c-55.366,14.309-151.956,25.445-190.489-29.706c-9.892-15.137-9.665-37.962,8.73-47.422
							c11.73-8.159,20.699-19.308,30.532-30.126C2416.797,2873.204,2463.85,2827.216,2520.629,2838.173L2520.629,2838.173z"/>
					</g>
				</g>
			</g>
			<g>
				<g>
					<g>
						<path style="fill:#C7CEE2;" d="M2402.918,2986.298c0,0-47.849-57.344-100.566-82.764
							c-54.581-26.319-86.835-18.935-101.062,9.389c-17.695,35.229,35.075,61.716,34.52,94.169
							c-13.99,39.594-141.926,2.892-167.475,97.573c-3.793,13.285-4.006,38.725,1.637,52.146
							c-14.052,32.774-12.988,76.557,18.093,102.542c6.599,34.97,42.149,69.81,183.992,65.483
							c199.507-9.032,490.011-193.186,360.981-507.536"/>
					</g>
				</g>
			</g>
			<g style="opacity:0.3;">
				<g>
					<g>
						<path style="fill:#FFFFFF;" d="M2302.348,2903.532c2.861,1.363,5.688,2.861,8.515,4.394
							c-28.679-9.989-69.127-13.82-85.945,5.126c-24.256,27.326,37.544,63.584,23.204,102.396
							c-19.585,53.008-186.811,35.551-149.556,143.795c-14.575,18.421-21.6,59.933,5.063,103.62
							c3.038,4.979-5.588,21.88,39.007,49.197c-37.467-12.602-50.785-32.63-54.566-52.692c-4.803-3.985-8.856-8.413-12.262-13.147
							c-18.802-26.057-17.712-61.685-5.824-89.41c-5.654-13.42-5.45-38.864-1.635-52.148
							c25.546-94.69,153.479-57.972,167.444-97.585c0.579-32.426-52.216-58.926-34.504-94.145
							C2215.527,2884.594,2247.783,2877.203,2302.348,2903.532z"/>
					</g>
				</g>
			</g>
			<g>
				<g>
					<g>
						<path style="fill:#A3B0CE;" d="M2454.629,3274.671c-60.298,30.514-125.202,47.594-182.583,50.166
							c-141.823,4.337-177.365-30.514-183.966-65.48c-2.495-2.073-4.798-4.299-6.909-6.602
							c46.558,20.611,144.777,46.98,316.346-5.681c229.333-70.316,260.346-267.946,262.918-334.731
							C2688.529,3086.176,2581.865,3210.266,2454.629,3274.671z"/>
					</g>
				</g>
			</g>
			<g>
				<g>
					<g>
						<path style="fill:#390176;" d="M2402.918,2986.298c-35.024-26.024-68.121-52.302-106.982-69.794
							c-21.571-8.227-49.649-21.968-70.321-10.915c-24.992,17.787-11.742,35.159,2.893,54.45
							c10.005,13.7,21.061,27.799,21.076,47.288c-1.851,17.424-21.167,27.246-35.622,30.895
							c-46.781,11.949-108.385,9.041-129.054,60.273c-6.662,16.044-7.485,36.636-2.237,52.977c1.495,3.555,1.364,7.472-0.037,10.769
							c-12.387,28.345-10.649,66.213,14.268,86.544c2.532,2.098,4.111,4.921,4.683,7.917
							c11.355,57.358,120.563,54.787,166.939,54.436c196.07-9.32,406.812-164.449,380.781-378.083
							c-3.942-37.816-14.498-74.99-29.03-110.569c-2.876-7.043,0.502-15.085,7.546-17.961c7.044-2.877,15.085,0.501,17.961,7.545
							c15.326,37.534,26.645,77.175,30.92,118.062c9.65,82.034-13.658,167.353-63.948,232.805
							c-86.49,112.581-232.291,179.039-373.625,175.948c-41.552-1.185-83.123-3.443-121.888-22.674
							c-20.601-10.139-39.039-30.754-42.714-54.302c-0.001,0,4.7,8.014,4.7,8.014c-16.964-13.922-27.881-35.122-30.665-56.638
							c-2.892-21.323,0.561-42.575,8.747-61.901l-0.038,10.767c-8.451-24.362-7.153-50.25,2.082-73.962
							c18.31-48.82,71.306-64.19,116.868-70.553c14.644-2.76,29.793-4.059,42.037-10.51c2.997-1.828,4.045-3.216,4.561-4.622
							l-0.785,4.354c-0.162-10.432-8.882-21.051-15.625-30.361c-9.799-13.439-20.769-26.787-22.376-45.621
							c-1.977-29.875,25.457-55.758,54.164-57.415C2308.206,2869.204,2370.629,2929.82,2402.918,2986.298L2402.918,2986.298z"/>
					</g>
				</g>
			</g>
			<g>
				<g>
					<g>
						<path style="fill:#390176;" d="M2079.21,3135.465c-0.641,1.831,7.01,6.667,10.057,8.069
							c35.455,15.817,76.796,18.56,115.546,18.022c16.079-0.625,32.265-2.195,47.961-6.606
							c-14.944,6.59-31.053,10.519-47.232,13.455c-41.391,6.412-84.403,9.43-125.426-2.564
							c-11.085-4.242-20.995-8.029-27.002-21.532C2053.115,3144.308,2079.21,3135.465,2079.21,3135.465L2079.21,3135.465z"/>
					</g>
				</g>
			</g>
			<g>
				<g>
					<g>
						<path style="fill:#390176;" d="M2088.408,3240.378c36.081,28.864,120.146,32.038,164.365,21.014
							c-13.76,5.764-28.342,9.749-43.146,12.613c-41.49,7.186-102.219,11.243-139.142-12.698
							C2070.487,3261.305,2088.408,3240.378,2088.408,3240.378L2088.408,3240.378z"/>
					</g>
				</g>
			</g>
		</g>
		<g>
			<g>
				<g>
					<g>
						<g>
							<path style="fill:#FFD399;" d="M2084.579,2238.288L2084.579,2238.288c1.387-15.716-15.905-30.507-38.961-32.918
								c-356.846-37.315-713.692-74.628-1070.538-111.943c-23.056-2.411-44.523,16.827-46.817,42.828l0,0
								c-2.294,26.002,15.471,48.7,38.594,50.364c357.866,25.751,715.732,51.503,1073.598,77.256
								C2063.577,2265.539,2083.192,2254.006,2084.579,2238.288z"/>
						</g>
					</g>
				</g>
			</g>
			<g>
				<g>
					<g>
						<g>
							<path style="fill:#E09F69;" d="M2080.693,2230.496c1.018,0.078,2.087,0.121,3.071,0.146c0.781,2.5,1.062,5.031,0.833,7.635
								c-1.392,15.711-21.018,27.256-44.14,25.619c-357.892-25.773-715.741-51.538-1073.598-77.259
								c-1.681-0.127-3.345-0.339-4.982-0.68c-20.631-4.308-35.743-25.578-33.624-49.721c2.172-24.179,20.87-42.479,42.017-43.008
								c-0.872,3.099-1.494,6.294-1.79,9.65c-2.11,24.101,13.002,45.369,33.59,49.668c1.637,0.342,3.343,0.564,5.025,0.69"/>
						</g>
					</g>
				</g>
			</g>
			<g>
				<g>
					<g>
						<g>
							<path style="fill:#390176;" d="M2044.956,2277.812c-1.812,0-3.643-0.063-5.493-0.198l-1073.599-77.256
								c-14.165-1.018-27.29-7.822-36.943-19.158c-10.63-12.478-15.869-29.302-14.38-46.157
								c1.484-16.855,9.595-32.502,22.241-42.927c11.494-9.47,25.601-13.887,39.731-12.39l1070.532,111.943
								c30.825,3.22,53.34,24.231,51.255,47.83C2096.348,2261.684,2073.379,2277.812,2044.956,2277.812z M971.192,2107.001
								c-5.923,0-11.836,2.219-16.885,6.379c-6.987,5.757-11.479,14.536-12.324,24.084c-0.84,9.548,2.041,18.977,7.915,25.869
								c4.829,5.669,11.201,9.058,17.944,9.543l1073.599,77.256c15.83,1.123,28.799-6.086,29.419-13.057l0,0
								c0.615-6.973-10.903-16.357-26.675-18.005L973.648,2107.128C972.827,2107.043,972.012,2107.001,971.192,2107.001z"/>
						</g>
					</g>
				</g>
			</g>
		</g>
		<g>
			<g>
				<g>
					<g>
						<path style="fill:#C7CEE2;" d="M1019.823,2342.319c0,0,58.576-235.03,110.67-265.326
							c49.824-28.976,180.279-54.966,225.624-24.719c45.345,30.248,159.224,95.018,29.826,147.818c0,0,54.663,53.083,34.455,138.223
							c-20.208,85.14-50.868,139.853-127.46,120.59c-10.068,13.71-51.951,41.831-111.728,26.808c0,0-65.085-13.79-101.063-47.937
							c-50.803-48.217-47.169-89.301-47.169-89.301L1019.823,2342.319z"/>
					</g>
				</g>
			</g>
			<g style="opacity:0.3;">
				<g>
					<g>
						<path style="fill:#FFFFFF;" d="M1444.857,2151.787c-14.393-29.837-60.235-57.013-85.24-73.683
							c-45.352-30.257-175.803-4.272-225.637,24.725c-42.41,24.654-89.092,185.013-105.026,243.777l-9.14-4.273
							c0,0,58.589-235.057,110.664-265.35c49.834-28.962,180.285-54.947,225.637-24.724
							C1388.194,2073.656,1454.523,2112.319,1444.857,2151.787z"/>
					</g>
				</g>
			</g>
			<g>
				<g>
					<g>
						<path style="fill:#A3B0CE;" d="M1182.872,2465.08c0,0,108.697-24.936,129.966-104.587c0,0-0.434,50.634,23.629,36.377
							c51.975-30.792,33.953-162.758,45.131-162.302c29.299,25.786,15.919,164.729-34.866,194.49
							c-29.986,17.573-42.067-4.776-42.067-4.776S1246.5,2485.844,1182.872,2465.08z"/>
					</g>
				</g>
			</g>
			<g>
				<g>
					<g>
						<path style="fill:#390176;" d="M1006.456,2338.987c15.84-60.864,33.572-120.448,56.975-178.952
							c9.097-22.108,18.921-44.3,31.977-64.752c7.271-10.988,15.596-22.535,27.808-29.98c24.985-14.145,52.635-22.368,80.193-29.037
							c31.126-7.163,62.824-11.759,95.589-11.176c18.233,0.51,38.551,2.58,56.685,11.191c26.385,15.646,51.196,31.932,74.27,52.972
							c57.852,54.304,23.471,99.578-38.805,123.594c0.004,0.005,4.389-22.655,4.397-22.634
							c22.238,23.614,36.087,53.763,41.161,85.612c5.303,31.13-0.901,62.477-9.866,92.158
							c-19.03,68.727-57.392,125.156-137.261,104.281c-0.007,0.004,14.505-5.23,14.455-5.195
							c-31.754,31.379-83.616,33.522-122.823,18.643c36.208,4.723,79.156-4.385,100.625-34.962
							c-0.001-0.001,5.998-7.261,5.998-7.261l8.466,2.055c63.878,17.729,88.796-32.402,104.091-85.278
							c16.653-49.731,15.159-100.87-18.126-143.413c-1.905-2.458-4.328-5.27-5.917-6.879l4.393-22.638
							c82.246-33.349,53.139-64.845-4.626-105.34c-7.739-5.315-16.071-10.63-24.052-15.889c-4.469-3.008-7.632-5.004-12.693-6.888
							c-40.81-13.057-87.687-4.993-129.682,3.873c-21.699,5.136-43.184,11.62-63.198,21.041
							c-12.532,5.061-20.573,14.327-27.928,26.088c-27.495,45.223-43.741,96.449-60.153,146.783
							c-9.162,29.349-17.686,59.161-25.257,88.804C1028.281,2363.18,1002.444,2356.878,1006.456,2338.987L1006.456,2338.987z"/>
					</g>
				</g>
			</g>
			<g>
				<g>
					<g>
						<g>
							<path style="fill:#FFFFFF;" d="M1312.49,2390.087c0,0-8.168,49.081-19.551,68.818"/>
						</g>
					</g>
				</g>
				<g>
					<g>
						<g>
							<path style="fill:#390176;" d="M1312.49,2390.087c1.311,26.279,3.963,51.819-3.639,77.995
								c-0.001,0-31.824-18.355-31.824-18.355C1292.881,2433.908,1302.558,2410.451,1312.49,2390.087L1312.49,2390.087z"/>
						</g>
					</g>
				</g>
			</g>
			<g>
				<g>
					<g>
						<path style="fill:#390176;" d="M1285.012,2139.281c39.749,8.364,76.734,27.503,110.235,50.65c0,0-18.608,20.32-18.608,20.32
							C1350.756,2181.682,1320.427,2155.852,1285.012,2139.281L1285.012,2139.281z"/>
					</g>
				</g>
			</g>
		</g>
		<g>
			<g>
				<g>
					<g>
						<line style="fill:#C7CEE2;" x1="2083.411" y1="816.722" x2="2015.304" y2="761.155"/>
					</g>
				</g>
			</g>
			<g>
				<g>
					<g>
						<path style="fill:#390176;" d="M2083.411,816.723l-76.816-44.894c-6.649-3.885-8.889-12.426-5.003-19.075
							c4.55-8.11,16.348-9.255,22.421-2.274C2024.013,750.48,2083.411,816.723,2083.411,816.723L2083.411,816.723z"/>
					</g>
				</g>
			</g>
		</g>
		<g>
			<g>
				<g>
					<g>
						<path style="fill:#F8FDFF;" d="M1792.406,2110.553c113.928-37.253,173.25,80.656,299.239,20.751
							c0,0,42.927-84.249-107.024-107.116C1834.67,2001.321,1792.406,2110.553,1792.406,2110.553z"/>
					</g>
				</g>
			</g>
			<g>
				<g>
					<g>
						<path style="fill:#390176;" d="M1792.406,2110.553c64.076-40.314,126.892,0.573,190.295,16.765
							c34.868,9.217,69.057,5.008,103.029-8.457c0,0.001,11.832,24.884,11.832,24.884
							C1973.951,2210.004,1910.92,2099.781,1792.406,2110.553L1792.406,2110.553z"/>
					</g>
				</g>
			</g>
			<g>
				<g>
					<g>
						<g>
							<path style="fill:#F8FDFF;" d="M2140.902,2030.303c-66.739,21.839-71.818,124.29-24.475,151.395"/>
						</g>
					</g>
				</g>
				<g>
					<g>
						<g>
							<path style="fill:#390176;" d="M2140.902,2030.303c-35.919,26.254-46.615,70.055-40.532,111.635
								c2.197,13.413,6.068,26.394,16.057,39.761c-17.348-2.272-31.142-17.376-37.916-32.93
								C2057.249,2102.565,2085.841,2031.289,2140.902,2030.303L2140.902,2030.303z"/>
						</g>
					</g>
				</g>
			</g>
		</g>
		<g>
			<g>
				<g>
					<g>
						<path style="fill:#390176;" d="M1802.533,2040.814c-126.953-19.087-222.431-93.646-192.835-247.741
							c36.057-187.732,176.482-305.826,282.913-281.109c98.846,22.956,154.42,158.194,148,304.07
							C2033.943,1967.555,1948.208,2062.716,1802.533,2040.814z"/>
					</g>
				</g>
			</g>
			<g style="opacity:0.5;">
				<g>
					<g>
						<path style="fill:#FFFFFF;" d="M1816.12,1585.077c-33.438-5.354-102.809,50.968-106.849,127.22
							c-4.33,81.744,79.092,104.02,110.545,18.986C1836.817,1685.323,1851.296,1590.71,1816.12,1585.077z"/>
					</g>
				</g>
			</g>
		</g>
	</g>
</g>
</svg>
